playfair-display_bold.sfdir
StartChar: exclam
Encoding: 33 33 677
Width: 591
Flags: W
LayerCount: 2
Back
Fore
SplineSet
377.5 1578 m 128,-1,1
 416 1554 416 1554 439 1508 c 128,-1,2
 462 1462 462 1462 462 1401 c 0,3,4
 462 1329 462 1329 447.5 1243 c 128,-1,5
 433 1157 433 1157 402 1012 c 0,6,7
 362 820 362 820 340 683.5 c 128,-1,8
 318 547 318 547 313 401 c 1,9,-1
 276 401 l 1,10,11
 271 548 271 548 248.5 687 c 128,-1,12
 226 826 226 826 186 1012 c 0,13,14
 155 1157 155 1157 140.5 1243 c 128,-1,15
 126 1329 126 1329 126 1401 c 0,16,17
 126 1494 126 1494 173 1548 c 128,-1,18
 220 1602 220 1602 294 1602 c 0,19,0
 339 1602 339 1602 377.5 1578 c 128,-1,1
422 245.5 m 128,-1,21
 469 203 469 203 469 129 c 0,22,23
 469 56 469 56 422 13.5 c 128,-1,24
 375 -29 375 -29 294 -29 c 0,25,26
 214 -29 214 -29 167 13.5 c 128,-1,27
 120 56 120 56 120 129 c 0,28,29
 120 203 120 203 167 245.5 c 128,-1,30
 214 288 214 288 294 288 c 0,31,20
 375 288 375 288 422 245.5 c 128,-1,21
EndSplineSet
Substitution2: "'smcp' Lowercase to Small Capitals lookup 24 subtable" exclam.smcp
Substitution2: "'c2sc' Capitals to Small Capitals lookup 23 subtable" exclam.smcp
Substitution2: "'aalt' Access All Alternates lookup 0 subtable" exclam.smcp
EndChar
StartChar: numbersign
Encoding: 35 35 679
Width: 1270
Flags: W
LayerCount: 2
Back
Fore
SplineSet
814 547 m 1,0,-1
 1114 547 l 1,1,-1
 1106 506 l 1,2,-1
 806 506 l 1,3,-1
 748 207 l 1,4,-1
 707 207 l 1,5,-1
 765 506 l 1,6,-1
 423 506 l 1,7,-1
 365 207 l 1,8,-1
 324 207 l 1,9,-1
 382 506 l 1,10,-1
 80 506 l 1,11,-1
 88 547 l 1,12,-1
 390 547 l 1,13,-1
 456 889 l 1,14,-1
 156 889 l 1,15,-1
 162 930 l 1,16,-1
 464 930 l 1,17,-1
 522 1233 l 1,18,-1
 563 1233 l 1,19,-1
 505 930 l 1,20,-1
 847 930 l 1,21,-1
 905 1233 l 1,22,-1
 946 1233 l 1,23,-1
 888 930 l 1,24,-1
 1188 930 l 1,25,-1
 1182 889 l 1,26,-1
 880 889 l 1,27,-1
 814 547 l 1,0,-1
497 889 m 1,28,-1
 431 547 l 1,29,-1
 773 547 l 1,30,-1
 839 889 l 1,31,-1
 497 889 l 1,28,-1
EndSplineSet
EndChar
StartChar: dollar
Encoding: 36 36 719
Width: 1176
Flags: W
LayerCount: 2
Back
Fore
SplineSet
1051 179.5 m 128,-1,1
 1002 98 1002 98 917 48.5 c 128,-1,2
 832 -1 832 -1 722 -19 c 1,3,-1
 722 -270 l 1,4,-1
 681 -270 l 1,5,-1
 681 -24 l 1,6,7
 633 -29 633 -29 593 -29 c 0,8,9
 556 -29 556 -29 523 -26 c 1,10,-1
 523 -270 l 1,11,-1
 482 -270 l 1,12,-1
 482 -21 l 1,13,14
 417 -12 417 -12 375.5 3.5 c 128,-1,15
 334 19 334 19 280 46 c 0,16,17
 220 76 220 76 193 76 c 0,18,19
 174 76 174 76 164 54.5 c 128,-1,20
 154 33 154 33 148 -14 c 1,21,-1
 101 -14 l 1,22,23
 109 114 109 114 109 539 c 1,24,-1
 156 539 l 1,25,26
 169 374 169 374 206 267.5 c 128,-1,27
 243 161 243 161 310 101.5 c 128,-1,28
 377 42 377 42 482 25 c 1,29,-1
 482 626 l 1,30,-1
 476 630 l 2,31,32
 356 706 356 706 281 768 c 128,-1,33
 206 830 206 830 158.5 912.5 c 128,-1,34
 111 995 111 995 111 1102 c 0,35,36
 111 1211 111 1211 160 1289.5 c 128,-1,37
 209 1368 209 1368 292.5 1412.5 c 128,-1,38
 376 1457 376 1457 482 1471 c 1,39,-1
 482 1720 l 1,40,-1
 523 1720 l 1,41,-1
 523 1474 l 1,42,43
 555 1476 555 1476 570 1476 c 0,44,45
 630 1476 630 1476 681 1468 c 1,46,-1
 681 1720 l 1,47,-1
 722 1720 l 1,48,-1
 722 1460 l 1,49,50
 789 1444 789 1444 869 1397 c 0,51,52
 917 1368 917 1368 939 1368 c 0,53,54
 957 1368 957 1368 967 1389 c 128,-1,55
 977 1410 977 1410 984 1458 c 1,56,-1
 1031 1458 l 1,57,58
 1021 1323 1021 1323 1021 991 c 1,59,-1
 973 991 l 1,60,61
 953 1162 953 1162 894.5 1270 c 128,-1,62
 836 1378 836 1378 722 1414 c 1,63,-1
 722 853 l 1,64,-1
 754 832 l 2,65,66
 870 759 870 759 942 697.5 c 128,-1,67
 1014 636 1014 636 1057 555.5 c 128,-1,68
 1100 475 1100 475 1100 370 c 0,69,0
 1100 261 1100 261 1051 179.5 c 128,-1,1
523 1424 m 1,71,-1
 523 990 l 1,72,73
 583 944 583 944 681 880 c 1,74,-1
 681 1424 l 1,75,76
 647 1431 647 1431 603 1431 c 0,77,70
 565 1431 565 1431 523 1424 c 1,71,-1
384 1130.5 m 128,-1,79
 410 1083 410 1083 482 1023 c 1,80,-1
 482 1412 l 1,81,82
 421 1390 421 1390 389.5 1345 c 128,-1,83
 358 1300 358 1300 358 1239 c 256,84,78
 358 1178 358 1178 384 1130.5 c 128,-1,79
681 25 m 1,86,-1
 681 485 l 1,87,88
 622 530 622 530 523 598 c 1,89,-1
 523 20 l 1,90,91
 553 17 553 17 586 17 c 0,92,85
 636 17 636 17 681 25 c 1,86,-1
862 228 m 0,94,95
 862 269 862 269 850.5 302 c 128,-1,96
 839 335 839 335 809 371 c 128,-1,97
 779 407 779 407 722 453 c 1,98,-1
 722 36 l 1,99,93
 862 80 862 80 862 228 c 0,94,95
EndSplineSet
Substitution2: "'smcp' Lowercase to Small Capitals lookup 24 subtable" dollar.smcp
Substitution2: "'c2sc' Capitals to Small Capitals lookup 23 subtable" dollar.smcp
Substitution2: "'aalt' Access All Alternates lookup 0 subtable" dollar.smcp
EndChar
StartChar: percent
Encoding: 37 37 739
Width: 1491
Flags: W
LayerCount: 2
Back
Fore
SplineSet
174 -113 m 1,0,-1
 135 -86 l 1,1,-1
 1333 1688 l 1,2,-1
 1372 1661 l 1,3,-1
 174 -113 l 1,0,-1
574 1519 m 128,-1,5
 649 1479 649 1479 691 1404 c 128,-1,6
 733 1329 733 1329 733 1225 c 0,7,8
 733 1123 733 1123 690 1045 c 128,-1,9
 647 967 647 967 571 924 c 128,-1,10
 495 881 495 881 400 881 c 0,11,12
 301 881 301 881 226 920.5 c 128,-1,13
 151 960 151 960 109 1035.5 c 128,-1,14
 67 1111 67 1111 67 1214 c 0,15,16
 67 1315 67 1315 110.5 1393.5 c 128,-1,17
 154 1472 154 1472 230 1515.5 c 128,-1,18
 306 1559 306 1559 400 1559 c 0,19,4
 499 1559 499 1559 574 1519 c 128,-1,5
263 1217 m 0,21,22
 263 1070 263 1070 300.5 994 c 128,-1,23
 338 918 338 918 405 918 c 0,24,25
 536 918 536 918 536 1221 c 0,26,27
 536 1369 536 1369 499.5 1445.5 c 128,-1,28
 463 1522 463 1522 396 1522 c 0,29,20
 263 1522 263 1522 263 1217 c 0,21,22
1263 609 m 128,-1,31
 1338 569 1338 569 1379.5 494 c 128,-1,32
 1421 419 1421 419 1421 315 c 0,33,34
 1421 214 1421 214 1378 135.5 c 128,-1,35
 1335 57 1335 57 1259 14 c 128,-1,36
 1183 -29 1183 -29 1089 -29 c 0,37,38
 990 -29 990 -29 914.5 11 c 128,-1,39
 839 51 839 51 797 126 c 128,-1,40
 755 201 755 201 755 305 c 0,41,42
 755 406 755 406 798.5 484 c 128,-1,43
 842 562 842 562 918 605.5 c 128,-1,44
 994 649 994 649 1089 649 c 0,45,30
 1188 649 1188 649 1263 609 c 128,-1,31
951 307 m 0,47,48
 951 161 951 161 988.5 84.5 c 128,-1,49
 1026 8 1026 8 1093 8 c 0,50,51
 1224 8 1224 8 1224 311 c 0,52,53
 1224 460 1224 460 1187.5 536 c 128,-1,54
 1151 612 1151 612 1084 612 c 0,55,46
 951 612 951 612 951 307 c 0,47,48
EndSplineSet
EndChar
StartChar: ampersand
Encoding: 38 38 760
Width: 1838
Flags: W
LayerCount: 2
Back
Fore
SplineSet
1699.5 953 m 128,-1,1
 1593 867 1593 867 1390 825 c 1,2,-1
 1352 812 l 1,3,4
 1444 771 1444 771 1494 681 c 128,-1,5
 1544 591 1544 591 1544 473 c 0,6,7
 1544 331 1544 331 1455.5 216.5 c 128,-1,8
 1367 102 1367 102 1206 36.5 c 128,-1,9
 1045 -29 1045 -29 837 -29 c 0,10,11
 612 -29 612 -29 441.5 33 c 128,-1,12
 271 95 271 95 177.5 210 c 128,-1,13
 84 325 84 325 84 481 c 0,14,15
 84 620 84 620 157.5 715.5 c 128,-1,16
 231 811 231 811 325 860.5 c 128,-1,17
 419 910 419 910 500 930 c 1,18,19
 268 1021 268 1021 268 1188 c 0,20,21
 268 1272 268 1272 325.5 1332.5 c 128,-1,22
 383 1393 383 1393 476.5 1423.5 c 128,-1,23
 570 1454 570 1454 676 1454 c 0,24,25
 805 1454 805 1454 889 1412 c 0,26,27
 942 1385 942 1385 977 1343.5 c 128,-1,28
 1012 1302 1012 1302 1012 1246 c 0,29,30
 1012 1205 1012 1205 990.5 1174 c 128,-1,31
 969 1143 969 1143 933 1126 c 128,-1,32
 897 1109 897 1109 855 1109 c 0,33,34
 791 1109 791 1109 748.5 1142 c 128,-1,35
 706 1175 706 1175 706 1236 c 0,36,37
 706 1288 706 1288 742.5 1329.5 c 128,-1,38
 779 1371 779 1371 837 1383 c 1,39,40
 820 1398 820 1398 783 1408.5 c 128,-1,41
 746 1419 746 1419 702 1419 c 0,42,43
 629 1419 629 1419 571 1389 c 128,-1,44
 513 1359 513 1359 479.5 1298.5 c 128,-1,45
 446 1238 446 1238 446 1151 c 0,46,47
 446 1033 446 1033 526 942 c 1,48,49
 593 958 593 958 641 958 c 0,50,51
 677 958 677 958 697 943.5 c 128,-1,52
 717 929 717 929 717 904 c 0,53,54
 717 884 717 884 700.5 872.5 c 128,-1,55
 684 861 684 861 659 861 c 0,56,57
 607 861 607 861 528 913 c 1,58,59
 424 860 424 860 367.5 781.5 c 128,-1,60
 311 703 311 703 311 582 c 0,61,62
 311 384 311 384 469 284 c 128,-1,63
 627 184 627 184 908 184 c 0,64,65
 1050 184 1050 184 1179.5 225.5 c 128,-1,66
 1309 267 1309 267 1390.5 348 c 128,-1,67
 1472 429 1472 429 1472 541 c 0,68,69
 1472 728 1472 728 1317 801 c 1,70,71
 1244 780 1244 780 1196 767 c 0,72,73
 1068 730 1068 730 1069 730 c 1,74,75
 956 705 956 705 884.5 679 c 128,-1,76
 813 653 813 653 775.5 617.5 c 128,-1,77
 738 582 738 582 738 532 c 0,78,79
 738 483 738 483 771 445.5 c 128,-1,80
 804 408 804 408 855.5 387.5 c 128,-1,81
 907 367 907 367 960 367 c 0,82,83
 983 367 983 367 1008 372.5 c 128,-1,84
 1033 378 1033 378 1042 388 c 1,85,86
 991 404 991 404 964.5 439 c 128,-1,87
 938 474 938 474 938 522 c 0,88,89
 938 585 938 585 984 621 c 128,-1,90
 1030 657 1030 657 1102 657 c 0,91,92
 1176 657 1176 657 1218 619.5 c 128,-1,93
 1260 582 1260 582 1260 518 c 0,94,95
 1260 426 1260 426 1179 379 c 128,-1,96
 1098 332 1098 332 970 332 c 0,97,98
 885 332 885 332 816 361 c 128,-1,99
 747 390 747 390 706 449.5 c 128,-1,100
 665 509 665 509 665 595 c 0,101,102
 665 748 665 748 782 837.5 c 128,-1,103
 899 927 899 927 1123 971 c 0,104,105
 1180 984 1180 984 1178 984 c 1,106,107
 1341 1024 1341 1024 1429 1053 c 1,108,109
 1588 1092 1588 1092 1662.5 1137.5 c 128,-1,110
 1737 1183 1737 1183 1737 1256 c 0,111,112
 1737 1309 1737 1309 1704 1351.5 c 128,-1,113
 1671 1394 1671 1394 1617.5 1418 c 128,-1,114
 1564 1442 1564 1442 1506 1442 c 0,115,116
 1468 1442 1468 1442 1448 1432 c 1,117,118
 1495 1413 1495 1413 1521 1377 c 128,-1,119
 1547 1341 1547 1341 1547 1302 c 0,120,121
 1547 1241 1547 1241 1501 1206 c 128,-1,122
 1455 1171 1455 1171 1384 1171 c 0,123,124
 1312 1171 1312 1171 1268 1207.5 c 128,-1,125
 1224 1244 1224 1244 1224 1307 c 0,126,127
 1224 1388 1224 1388 1293 1433.5 c 128,-1,128
 1362 1479 1362 1479 1480 1479 c 0,129,130
 1576 1479 1576 1479 1649.5 1444.5 c 128,-1,131
 1723 1410 1723 1410 1764.5 1345 c 128,-1,132
 1806 1280 1806 1280 1806 1190 c 0,133,0
 1806 1039 1806 1039 1699.5 953 c 128,-1,1
EndSplineSet
Substitution2: "'smcp' Lowercase to Small Capitals lookup 24 subtable" ampersand.smcp
Substitution2: "'c2sc' Capitals to Small Capitals lookup 23 subtable" ampersand.smcp
Substitution2: "'aalt' Access All Alternates lookup 0 subtable" ampersand.smcp
EndChar
StartChar: quotesingle
Encoding: 39 39 685
Width: 428
Flags: W
LayerCount: 2
Back
Fore
SplineSet
305.5 1458 m 128,-1,1
 342 1421 342 1421 342 1359 c 0,2,3
 342 1309 342 1309 331 1267.5 c 128,-1,4
 320 1226 320 1226 293 1155 c 0,5,6
 252 1048 252 1048 228 958 c 1,7,-1
 199 958 l 1,8,9
 178 1034 178 1034 137 1142 c 0,10,11
 109 1215 109 1215 96.5 1260 c 128,-1,12
 84 1305 84 1305 84 1357 c 0,13,14
 84 1419 84 1419 120.5 1456.5 c 128,-1,15
 157 1494 157 1494 213 1495 c 0,16,0
 269 1495 269 1495 305.5 1458 c 128,-1,1
EndSplineSet
EndChar
StartChar: parenright
Encoding: 41 41 643
Width: 651
Flags: W
LayerCount: 2
Back
Fore
SplineSet
448.5 1216.5 m 128,-1,1
 579 967 579 967 579 639 c 256,2,3
 579 311 579 311 448.5 61.5 c 128,-1,4
 318 -188 318 -188 67 -373 c 1,5,-1
 37 -347 l 1,6,7
 173 -130 173 -130 234.5 105 c 128,-1,8
 296 340 296 340 296 639 c 256,9,10
 296 938 296 938 234 1175.5 c 128,-1,11
 172 1413 172 1413 37 1625 c 1,12,-1
 67 1651 l 1,13,0
 318 1466 318 1466 448.5 1216.5 c 128,-1,1
EndSplineSet
Substitution2: "'case' Case-Sensitive Forms lookup 25 subtable" parenright.case
Substitution2: "'smcp' Lowercase to Small Capitals lookup 24 subtable" parenright.smcp
Substitution2: "'c2sc' Capitals to Small Capitals lookup 23 subtable" parenright.smcp
AlternateSubs2: "'aalt' Access All Alternates lookup 1 subtable" parenright.smcp parenright.case
EndChar
StartChar: asterisk
Encoding: 42 42 671
Width: 984
Flags: W
LayerCount: 2
Back
Fore
SplineSet
881 898 m 0,1,2
 881 872 881 872 866 845 c 0,3,4
 837 795 837 795 787 795 c 0,5,6
 757 795 757 795 721 815 c 0,7,8
 689 833 689 833 659 864.5 c 128,-1,9
 629 896 629 896 576 959 c 0,10,11
 537 1007 537 1007 500 1049 c 1,12,13
 518 994 518 994 541 933 c 0,14,15
 568 859 568 859 580 816.5 c 128,-1,16
 592 774 592 774 593 739 c 0,17,18
 592 682 592 682 563 655.5 c 128,-1,19
 534 629 534 629 492 629 c 256,20,21
 450 629 450 629 421.5 655.5 c 128,-1,22
 393 682 393 682 393 739 c 0,23,24
 393 776 393 776 405.5 818 c 128,-1,25
 418 860 418 860 446 936 c 0,26,27
 478 1024 478 1024 486 1048 c 1,28,29
 480 1041 480 1041 407 956 c 0,30,31
 357 897 357 897 326 864 c 128,-1,32
 295 831 295 831 264 813 c 0,33,34
 231 794 231 794 200 794 c 0,35,36
 146 794 146 794 118 845 c 0,37,38
 102 871 102 871 102 897 c 0,39,40
 102 949 102 949 164 985 c 0,41,42
 195 1003 195 1003 235 1012.5 c 128,-1,43
 275 1022 275 1022 358 1037 c 0,44,45
 430 1049 430 1049 478 1060 c 1,46,-1
 359 1082 l 2,47,48
 277 1096 277 1096 235.5 1106.5 c 128,-1,49
 194 1117 194 1117 163 1134 c 0,50,51
 102 1170 102 1170 102 1223 c 0,52,53
 102 1251 102 1251 118 1277 c 0,54,55
 147 1327 147 1327 197 1327 c 0,56,57
 228 1327 228 1327 262 1307 c 0,58,59
 294 1289 294 1289 324 1257.5 c 128,-1,60
 354 1226 354 1226 406 1164 c 0,61,62
 447 1114 447 1114 485 1071 c 1,63,64
 475 1103 475 1103 443 1188 c 0,65,66
 415 1265 415 1265 403 1306 c 128,-1,67
 391 1347 391 1347 391 1382 c 0,68,69
 391 1439 391 1439 420.5 1466 c 128,-1,70
 450 1493 450 1493 492 1493 c 0,71,72
 533 1493 533 1493 561.5 1466 c 128,-1,73
 590 1439 590 1439 590 1382 c 0,74,75
 590 1347 590 1347 578.5 1306 c 128,-1,76
 567 1265 567 1265 540 1194 c 0,77,78
 521 1142 521 1142 498 1074 c 1,79,80
 500 1077 500 1077 577 1166 c 0,81,82
 626 1225 626 1225 657.5 1258 c 128,-1,83
 689 1291 689 1291 719 1309 c 0,84,85
 752 1328 752 1328 784 1328 c 0,86,87
 839 1328 839 1328 865 1277 c 0,88,89
 881 1251 881 1251 881 1224 c 0,90,91
 881 1172 881 1172 819 1136 c 0,92,93
 788 1118 788 1118 747 1108 c 128,-1,94
 706 1098 706 1098 632 1085 c 0,95,96
 560 1073 560 1073 508 1062 c 1,97,98
 561 1051 561 1051 625 1040 c 0,99,100
 707 1026 707 1026 748.5 1015.5 c 128,-1,101
 790 1005 790 1005 820 988 c 0,102,0
 881 953 881 953 881 898 c 0,1,2
EndSplineSet
EndChar
StartChar: plus
Encoding: 43 43 741
Width: 1175
Flags: W
LayerCount: 2
Back
Fore
SplineSet
1100 758 m 1,0,-1
 1100 696 l 1,1,-1
 624 696 l 1,2,-1
 624 215 l 1,3,-1
 551 215 l 1,4,-1
 551 696 l 1,5,-1
 74 696 l 1,6,-1
 74 758 l 1,7,-1
 551 758 l 1,8,-1
 551 1241 l 1,9,-1
 624 1241 l 1,10,-1
 624 758 l 1,11,-1
 1100 758 l 1,0,-1
EndSplineSet
EndChar
StartChar: comma
Encoding: 44 44 675
Width: 555
Flags: W
LayerCount: 2
Back
Fore
SplineSet
414 216 m 0,1,2
 435 185 435 185 446.5 139.5 c 128,-1,3
 458 94 458 94 458 45 c 0,4,5
 458 -61 458 -61 404 -147.5 c 128,-1,6
 350 -234 350 -234 244 -283 c 1,7,-1
 225 -246 l 1,8,9
 283 -220 283 -220 326.5 -169.5 c 128,-1,10
 370 -119 370 -119 380 -65 c 0,11,12
 385 -45 385 -45 385 -19 c 0,13,14
 385 3 385 3 381 20 c 1,15,16
 335 -29 335 -29 261 -29 c 0,17,18
 189 -29 189 -29 144.5 13 c 128,-1,19
 100 55 100 55 100 129 c 0,20,21
 100 200 100 200 147.5 244 c 128,-1,22
 195 288 195 288 268 288 c 0,23,0
 366 288 366 288 414 216 c 0,1,2
EndSplineSet
EndChar
StartChar: hyphen
Encoding: 45 45 652
Width: 985
Flags: W
LayerCount: 2
Back
Fore
SplineSet
122 469 m 1,0,-1
 122 639 l 1,1,-1
 861 639 l 1,2,-1
 861 469 l 1,3,-1
 122 469 l 1,0,-1
EndSplineSet
Substitution2: "'case' Case-Sensitive Forms lookup 25 subtable" hyphen.case
Substitution2: "'smcp' Lowercase to Small Capitals lookup 24 subtable" hyphen.smcp
Substitution2: "'c2sc' Capitals to Small Capitals lookup 23 subtable" hyphen.smcp
AlternateSubs2: "'aalt' Access All Alternates lookup 1 subtable" hyphen.smcp hyphen.case
EndChar
StartChar: period
Encoding: 46 46 680
Width: 553
Flags: W
LayerCount: 2
Back
Fore
SplineSet
403 245.5 m 128,-1,1
 450 203 450 203 450 129 c 0,2,3
 450 56 450 56 403 13.5 c 128,-1,4
 356 -29 356 -29 275 -29 c 0,5,6
 195 -29 195 -29 148 13.5 c 128,-1,7
 101 56 101 56 101 129 c 0,8,9
 101 203 101 203 148 245.5 c 128,-1,10
 195 288 195 288 275 288 c 0,11,0
 356 288 356 288 403 245.5 c 128,-1,1
EndSplineSet
EndChar
StartChar: slash
Encoding: 47 47 687
Width: 754
Flags: W
LayerCount: 2
Back
Fore
SplineSet
65 -29 m 1,0,-1
 622 1479 l 1,1,-1
 690 1479 l 1,2,-1
 133 -29 l 1,3,-1
 65 -29 l 1,0,-1
EndSplineSet
Substitution2: "'frac' Diagonal Fractions lookup 16 subtable" fraction
Substitution2: "'aalt' Access All Alternates lookup 0 subtable" fraction
EndChar
StartChar: zero
Encoding: 48 48 572
Width: 1321
Flags: W
LayerCount: 2
Back
Fore
SplineSet
958.5 1020.5 m 128,-1,1
 1085 953 1085 953 1156 830.5 c 128,-1,2
 1227 708 1227 708 1227 547 c 0,3,4
 1227 384 1227 384 1154 253 c 128,-1,5
 1081 122 1081 122 949.5 46.5 c 128,-1,6
 818 -29 818 -29 648 -29 c 0,7,8
 488 -29 488 -29 361 38.5 c 128,-1,9
 234 106 234 106 162.5 229 c 128,-1,10
 91 352 91 352 91 514 c 256,11,12
 91 676 91 676 163 806.5 c 128,-1,13
 235 937 235 937 367 1012.5 c 128,-1,14
 499 1088 499 1088 670 1088 c 0,15,0
 832 1088 832 1088 958.5 1020.5 c 128,-1,1
521 987.5 m 128,-1,17
 464 924 464 924 432 804 c 128,-1,18
 400 684 400 684 400 521 c 0,19,20
 400 344 400 344 435.5 229 c 128,-1,21
 471 114 471 114 531 61 c 128,-1,22
 591 8 591 8 666 8 c 0,23,24
 740 8 740 8 797 72 c 128,-1,25
 854 136 854 136 886 256.5 c 128,-1,26
 918 377 918 377 918 541 c 0,27,28
 918 717 918 717 882.5 831 c 128,-1,29
 847 945 847 945 787 998 c 128,-1,30
 727 1051 727 1051 652 1051 c 0,31,16
 578 1051 578 1051 521 987.5 c 128,-1,17
EndSplineSet
Substitution2: "'case' Case-Sensitive Forms lookup 25 subtable" zero.lf
Substitution2: "'lnum' Lining Figures lookup 20 subtable" zero.lf
Substitution2: "'frac' Diagonal Fractions lookup 17 subtable" zero.numr
Substitution2: "'dnom' Denominators lookup 15 subtable" zero.dnom
Substitution2: "'numr' Numerators lookup 14 subtable" zero.numr
Substitution2: "'sups' Superscript lookup 13 subtable" zero.sups
Substitution2: "'sinf' Scientific Inferiors lookup 12 subtable" zero.subs
Substitution2: "'subs' Subscript lookup 11 subtable" zero.subs
AlternateSubs2: "'aalt' Access All Alternates lookup 1 subtable" zero.subs zero.sups zero.numr zero.dnom zero.lf
EndChar
StartChar: one
Encoding: 49 49 573
Width: 785
Flags: W
LayerCount: 2
Back
Fore
SplineSet
591.5 104.5 m 128,-1,1
 606 71 606 71 638 57 c 128,-1,2
 670 43 670 43 725 43 c 1,3,-1
 725 0 l 1,4,5
 717 0 717 0 685 2 c 0,6,7
 502 8 502 8 442 8 c 0,8,9
 374 8 374 8 146 2 c 0,10,11
 104 0 104 0 90 0 c 1,12,-1
 90 43 l 1,13,14
 187 43 187 43 234.5 79.5 c 128,-1,15
 282 116 282 116 282 211 c 2,16,-1
 282 711 l 2,17,18
 282 810 282 810 264.5 856.5 c 128,-1,19
 247 903 247 903 206.5 918 c 128,-1,20
 166 933 166 933 82 933 c 1,21,-1
 82 978 l 1,22,23
 261 981 261 981 375.5 1004.5 c 128,-1,24
 490 1028 490 1028 577 1082 c 1,25,-1
 577 199 l 2,26,0
 577 138 577 138 591.5 104.5 c 128,-1,1
EndSplineSet
Substitution2: "'case' Case-Sensitive Forms lookup 25 subtable" one.lf
Substitution2: "'lnum' Lining Figures lookup 20 subtable" one.lf
Substitution2: "'frac' Diagonal Fractions lookup 17 subtable" one.numr
Substitution2: "'dnom' Denominators lookup 15 subtable" one.dnom
Substitution2: "'numr' Numerators lookup 14 subtable" one.numr
Substitution2: "'sups' Superscript lookup 13 subtable" onesuperior
Substitution2: "'sinf' Scientific Inferiors lookup 12 subtable" one.subs
Substitution2: "'subs' Subscript lookup 11 subtable" one.subs
AlternateSubs2: "'aalt' Access All Alternates lookup 1 subtable" one.subs onesuperior one.numr one.dnom one.lf
EndChar
StartChar: two
Encoding: 50 50 574
Width: 1072
Flags: W
LayerCount: 2
Back
Fore
SplineSet
812.5 1019.5 m 128,-1,1
 904 951 904 951 904 828 c 0,2,3
 904 744 904 744 856 671.5 c 128,-1,4
 808 599 808 599 740.5 542.5 c 128,-1,5
 673 486 673 486 560 406 c 0,6,7
 410 302 410 302 355 244 c 1,8,-1
 799 244 l 2,9,10
 855 244 855 244 882 252.5 c 128,-1,11
 909 261 909 261 920 279.5 c 128,-1,12
 931 298 931 298 936 336 c 1,13,-1
 978 336 l 1,14,15
 978 94 978 94 986 -10 c 1,16,17
 940 0 940 0 681 0 c 2,18,-1
 85 0 l 1,19,-1
 85 40 l 1,20,21
 111 66 111 66 187 136 c 0,22,23
 305 243 305 243 385 329 c 128,-1,24
 465 415 465 415 524 527 c 128,-1,25
 583 639 583 639 583 761 c 0,26,27
 583 970 583 970 391 970 c 0,28,29
 306 970 306 970 239.5 929.5 c 128,-1,30
 173 889 173 889 117 810 c 1,31,-1
 83 832 l 1,32,33
 235 1088 235 1088 561 1088 c 0,34,0
 721 1088 721 1088 812.5 1019.5 c 128,-1,1
EndSplineSet
Substitution2: "'case' Case-Sensitive Forms lookup 25 subtable" two.lf
Substitution2: "'lnum' Lining Figures lookup 20 subtable" two.lf
Substitution2: "'frac' Diagonal Fractions lookup 17 subtable" two.numr
Substitution2: "'dnom' Denominators lookup 15 subtable" two.dnom
Substitution2: "'numr' Numerators lookup 14 subtable" two.numr
Substitution2: "'sups' Superscript lookup 13 subtable" twosuperior
Substitution2: "'sinf' Scientific Inferiors lookup 12 subtable" two.subs
Substitution2: "'subs' Subscript lookup 11 subtable" two.subs
AlternateSubs2: "'aalt' Access All Alternates lookup 1 subtable" two.subs twosuperior two.numr two.dnom two.lf
EndChar
StartChar: three
Encoding: 51 51 575
Width: 999
Flags: W
LayerCount: 2
Back
Fore
SplineSet
683.5 1059.5 m 128,-1,1
 763 1031 763 1031 808 977.5 c 128,-1,2
 853 924 853 924 853 852 c 0,3,4
 853 775 853 775 802.5 707 c 128,-1,5
 752 639 752 639 658 589 c 128,-1,6
 564 539 564 539 438 514 c 1,7,-1
 475 515 l 2,8,9
 606 515 606 515 708.5 478.5 c 128,-1,10
 811 442 811 442 869 371.5 c 128,-1,11
 927 301 927 301 927 202 c 0,12,13
 927 52 927 52 798 -64.5 c 128,-1,14
 669 -181 669 -181 467.5 -245 c 128,-1,15
 266 -309 266 -309 59 -309 c 1,16,-1
 59 -269 l 1,17,18
 194 -264 194 -264 324 -208 c 128,-1,19
 454 -152 454 -152 538 -47 c 128,-1,20
 622 58 622 58 622 201 c 0,21,22
 622 280 622 280 596 343 c 128,-1,23
 570 406 570 406 521.5 443 c 128,-1,24
 473 480 473 480 407 485 c 1,25,26
 367 467 367 467 344.5 459.5 c 128,-1,27
 322 452 322 452 301 452 c 0,28,29
 264 452 264 452 264 482 c 0,30,31
 264 504 264 504 282.5 515 c 128,-1,32
 301 526 301 526 329 526 c 0,33,34
 343 526 343 526 369 522 c 2,35,-1
 401 519 l 1,36,37
 559 629 559 629 559 793 c 0,38,39
 559 884 559 884 511 929 c 128,-1,40
 463 974 463 974 377 974 c 0,41,42
 295 974 295 974 226 933 c 128,-1,43
 157 892 157 892 109 813 c 1,44,-1
 73 832 l 1,45,46
 137 948 137 948 238 1018 c 128,-1,47
 339 1088 339 1088 503 1088 c 0,48,0
 604 1088 604 1088 683.5 1059.5 c 128,-1,1
EndSplineSet
Substitution2: "'case' Case-Sensitive Forms lookup 25 subtable" three.lf
Substitution2: "'lnum' Lining Figures lookup 20 subtable" three.lf
Substitution2: "'frac' Diagonal Fractions lookup 17 subtable" three.numr
Substitution2: "'dnom' Denominators lookup 15 subtable" three.dnom
Substitution2: "'numr' Numerators lookup 14 subtable" three.numr
Substitution2: "'sups' Superscript lookup 13 subtable" threesuperior
Substitution2: "'sinf' Scientific Inferiors lookup 12 subtable" three.subs
Substitution2: "'subs' Subscript lookup 11 subtable" three.subs
AlternateSubs2: "'aalt' Access All Alternates lookup 1 subtable" three.subs threesuperior three.numr three.dnom three.lf
EndChar
StartChar: four
Encoding: 52 52 576
Width: 1081
Flags: W
LayerCount: 2
Back
Fore
SplineSet
812 73 m 1,1,-1
 812 -289 l 1,2,-1
 574 -289 l 1,3,-1
 574 74 l 1,4,-1
 15 74 l 1,5,-1
 15 117 l 1,6,-1
 779 1088 l 1,7,-1
 812 1088 l 1,8,-1
 812 285 l 1,9,-1
 829 285 l 2,10,11
 885 285 885 285 912 293.5 c 128,-1,12
 939 302 939 302 949.5 320.5 c 128,-1,13
 960 339 960 339 966 377 c 1,14,-1
 1009 377 l 1,15,16
 1009 159 1009 159 1017 63 c 1,17,0
 984 71 984 71 812 73 c 1,1,-1
574 761 m 1,18,-1
 203 285 l 1,19,-1
 574 285 l 1,20,-1
 574 761 l 1,18,-1
EndSplineSet
Substitution2: "'case' Case-Sensitive Forms lookup 25 subtable" four.lf
Substitution2: "'lnum' Lining Figures lookup 20 subtable" four.lf
Substitution2: "'frac' Diagonal Fractions lookup 17 subtable" four.numr
Substitution2: "'dnom' Denominators lookup 15 subtable" four.dnom
Substitution2: "'numr' Numerators lookup 14 subtable" four.numr
Substitution2: "'sups' Superscript lookup 13 subtable" four.sups
Substitution2: "'sinf' Scientific Inferiors lookup 12 subtable" four.subs
Substitution2: "'subs' Subscript lookup 11 subtable" four.subs
AlternateSubs2: "'aalt' Access All Alternates lookup 1 subtable" four.subs four.sups four.numr four.dnom four.lf
EndChar
StartChar: five
Encoding: 53 53 577
Width: 941
Flags: W
LayerCount: 2
Back
Fore
SplineSet
796 793 m 1,1,2
 752 803 752 803 511 803 c 2,3,-1
 196 803 l 1,4,-1
 162 453 l 1,5,6
 284 535 284 535 472 535 c 0,7,8
 604 535 604 535 694 493 c 128,-1,9
 784 451 784 451 827.5 378 c 128,-1,10
 871 305 871 305 871 212 c 0,11,12
 871 60 871 60 752.5 -57.5 c 128,-1,13
 634 -175 634 -175 446 -239 c 128,-1,14
 258 -303 258 -303 60 -303 c 1,15,-1
 60 -266 l 1,16,17
 190 -265 190 -265 306 -210 c 128,-1,18
 422 -155 422 -155 494 -50 c 128,-1,19
 566 55 566 55 566 199 c 0,20,21
 566 327 566 327 506 396.5 c 128,-1,22
 446 466 446 466 332 466 c 0,23,24
 276 466 276 466 234 451.5 c 128,-1,25
 192 437 192 437 146 406 c 1,26,-1
 119 425 l 1,27,-1
 183 1066 l 1,28,29
 224 1058 224 1058 294 1058 c 2,30,-1
 631 1058 l 2,31,32
 691 1058 691 1058 714.5 1075 c 128,-1,33
 738 1092 738 1092 744 1137 c 1,34,-1
 787 1137 l 1,35,0
 787 909 787 909 796 793 c 1,1,2
EndSplineSet
Substitution2: "'case' Case-Sensitive Forms lookup 25 subtable" five.lf
Substitution2: "'lnum' Lining Figures lookup 20 subtable" five.lf
Substitution2: "'frac' Diagonal Fractions lookup 17 subtable" five.numr
Substitution2: "'dnom' Denominators lookup 15 subtable" five.dnom
Substitution2: "'numr' Numerators lookup 14 subtable" five.numr
Substitution2: "'sups' Superscript lookup 13 subtable" five.sups
Substitution2: "'sinf' Scientific Inferiors lookup 12 subtable" five.subs
Substitution2: "'subs' Subscript lookup 11 subtable" five.subs
AlternateSubs2: "'aalt' Access All Alternates lookup 1 subtable" five.subs five.sups five.numr five.dnom five.lf
EndChar
StartChar: six
Encoding: 54 54 578
Width: 1150
Flags: W
LayerCount: 2
Back
Fore
SplineSet
887 848 m 128,-1,1
 979 794 979 794 1033 693.5 c 128,-1,2
 1087 593 1087 593 1087 458 c 0,3,4
 1087 307 1087 307 1018 196.5 c 128,-1,5
 949 86 949 86 832.5 28.5 c 128,-1,6
 716 -29 716 -29 576 -29 c 0,7,8
 427 -29 427 -29 319 39.5 c 128,-1,9
 211 108 211 108 153.5 239.5 c 128,-1,10
 96 371 96 371 96 554 c 0,11,12
 96 840 96 840 224.5 1039 c 128,-1,13
 353 1238 353 1238 539.5 1344 c 128,-1,14
 726 1450 726 1450 913 1481 c 1,15,-1
 921 1440 l 1,16,17
 789 1398 789 1398 690.5 1332.5 c 128,-1,18
 592 1267 592 1267 516.5 1130.5 c 128,-1,19
 441 994 441 994 416 767 c 1,20,21
 458 836 458 836 530.5 869 c 128,-1,22
 603 902 603 902 685 902 c 0,23,0
 795 902 795 902 887 848 c 128,-1,1
687.5 56.5 m 128,-1,25
 728 101 728 101 753 197.5 c 128,-1,26
 778 294 778 294 778 441 c 0,27,28
 778 649 778 649 729.5 746 c 128,-1,29
 681 843 681 843 603 843 c 0,30,31
 550 843 550 843 494.5 805 c 128,-1,32
 439 767 439 767 410 689 c 1,33,34
 405 612 405 612 405 544 c 0,35,36
 405 352 405 352 433 233 c 128,-1,37
 461 114 461 114 504.5 63 c 128,-1,38
 548 12 548 12 598 12 c 0,39,24
 647 12 647 12 687.5 56.5 c 128,-1,25
EndSplineSet
Substitution2: "'case' Case-Sensitive Forms lookup 25 subtable" six.lf
Substitution2: "'lnum' Lining Figures lookup 20 subtable" six.lf
Substitution2: "'frac' Diagonal Fractions lookup 17 subtable" six.numr
Substitution2: "'dnom' Denominators lookup 15 subtable" six.dnom
Substitution2: "'numr' Numerators lookup 14 subtable" six.numr
Substitution2: "'sups' Superscript lookup 13 subtable" six.sups
Substitution2: "'sinf' Scientific Inferiors lookup 12 subtable" six.subs
Substitution2: "'subs' Subscript lookup 11 subtable" six.subs
AlternateSubs2: "'aalt' Access All Alternates lookup 1 subtable" six.subs six.sups six.numr six.dnom six.lf
EndChar
StartChar: seven
Encoding: 55 55 579
Width: 932
Flags: W
LayerCount: 2
Back
Fore
SplineSet
829 820 m 0,1,2
 747 670 747 670 695.5 559.5 c 128,-1,3
 644 449 644 449 606.5 307.5 c 128,-1,4
 569 166 569 166 569 12 c 0,5,6
 569 4 569 4 573 -56 c 0,7,8
 579 -128 579 -128 579 -153 c 0,9,10
 579 -216 579 -216 540 -259.5 c 128,-1,11
 501 -303 501 -303 428 -303 c 256,12,13
 355 -303 355 -303 317.5 -254 c 128,-1,14
 280 -205 280 -205 280 -123 c 0,15,16
 280 4 280 4 334.5 135.5 c 128,-1,17
 389 267 389 267 465.5 380.5 c 128,-1,18
 542 494 542 494 664 655 c 0,19,20
 752 772 752 772 778 808 c 1,21,-1
 235 808 l 2,22,23
 179 808 179 808 151.5 799.5 c 128,-1,24
 124 791 124 791 113.5 773 c 128,-1,25
 103 755 103 755 97 716 c 1,26,-1
 55 716 l 1,27,28
 55 964 55 964 47 1068 c 1,29,30
 93 1058 93 1058 352 1058 c 2,31,-1
 930 1058 l 1,32,-1
 930 1015 l 1,33,0
 900 948 900 948 829 820 c 0,1,2
EndSplineSet
Substitution2: "'case' Case-Sensitive Forms lookup 25 subtable" seven.lf
Substitution2: "'lnum' Lining Figures lookup 20 subtable" seven.lf
Substitution2: "'frac' Diagonal Fractions lookup 17 subtable" seven.numr
Substitution2: "'dnom' Denominators lookup 15 subtable" seven.dnom
Substitution2: "'numr' Numerators lookup 14 subtable" seven.numr
Substitution2: "'sups' Superscript lookup 13 subtable" seven.sups
Substitution2: "'sinf' Scientific Inferiors lookup 12 subtable" seven.subs
Substitution2: "'subs' Subscript lookup 11 subtable" seven.subs
AlternateSubs2: "'aalt' Access All Alternates lookup 1 subtable" seven.subs seven.sups seven.numr seven.dnom seven.lf
EndChar
StartChar: eight
Encoding: 56 56 580
Width: 1149
Flags: W
LayerCount: 2
Back
Fore
SplineSet
732 840 m 0,1,2
 841 747 841 747 907 681.5 c 128,-1,3
 973 616 973 616 1018.5 533.5 c 128,-1,4
 1064 451 1064 451 1064 358 c 0,5,6
 1064 246 1064 246 999 158 c 128,-1,7
 934 70 934 70 819.5 20.5 c 128,-1,8
 705 -29 705 -29 561 -29 c 0,9,10
 432 -29 432 -29 324 11.5 c 128,-1,11
 216 52 216 52 151.5 131 c 128,-1,12
 87 210 87 210 87 322 c 0,13,14
 87 572 87 572 420 719 c 1,15,16
 337 790 337 790 281 852 c 128,-1,17
 225 914 225 914 190 987.5 c 128,-1,18
 155 1061 155 1061 155 1146 c 0,19,20
 155 1252 155 1252 214 1327.5 c 128,-1,21
 273 1403 273 1403 371.5 1441 c 128,-1,22
 470 1479 470 1479 588 1479 c 0,23,24
 705 1479 705 1479 796 1443.5 c 128,-1,25
 887 1408 887 1408 938.5 1342.5 c 128,-1,26
 990 1277 990 1277 990 1192 c 0,27,28
 990 1091 990 1091 919 1012.5 c 128,-1,29
 848 934 848 934 708 860 c 1,30,0
 724 846 724 846 732 840 c 0,1,2
464.5 1395.5 m 128,-1,32
 425 1349 425 1349 425 1272 c 0,33,34
 425 1201 425 1201 458 1135.5 c 128,-1,35
 491 1070 491 1070 544.5 1012.5 c 128,-1,36
 598 955 598 955 677 887 c 1,37,38
 716 942 716 942 734.5 1021.5 c 128,-1,39
 753 1101 753 1101 753 1175 c 0,40,41
 753 1300 753 1300 705 1371 c 128,-1,42
 657 1442 657 1442 572 1442 c 0,43,31
 504 1442 504 1442 464.5 1395.5 c 128,-1,32
723.5 68.5 m 128,-1,45
 779 129 779 129 779 229 c 0,46,47
 779 316 779 316 737.5 392 c 128,-1,48
 696 468 696 468 635 528.5 c 128,-1,49
 574 589 574 589 473 674 c 2,50,-1
 452 692 l 1,51,52
 341 576 341 576 341 358 c 0,53,54
 341 202 341 202 396 105 c 128,-1,55
 451 8 451 8 572 8 c 0,56,44
 668 8 668 8 723.5 68.5 c 128,-1,45
EndSplineSet
Substitution2: "'case' Case-Sensitive Forms lookup 25 subtable" eight.lf
Substitution2: "'lnum' Lining Figures lookup 20 subtable" eight.lf
Substitution2: "'frac' Diagonal Fractions lookup 17 subtable" eight.numr
Substitution2: "'dnom' Denominators lookup 15 subtable" eight.dnom
Substitution2: "'numr' Numerators lookup 14 subtable" eight.numr
Substitution2: "'sups' Superscript lookup 13 subtable" eight.sups
Substitution2: "'sinf' Scientific Inferiors lookup 12 subtable" eight.subs
Substitution2: "'subs' Subscript lookup 11 subtable" eight.subs
AlternateSubs2: "'aalt' Access All Alternates lookup 1 subtable" eight.subs eight.sups eight.numr eight.dnom eight.lf
EndChar
StartChar: nine
Encoding: 57 57 581
Width: 1132
Flags: W
LayerCount: 2
Back
Fore
SplineSet
826 1021.5 m 128,-1,1
 934 955 934 955 991.5 827.5 c 128,-1,2
 1049 700 1049 700 1049 522 c 0,3,4
 1049 266 1049 266 922.5 86.5 c 128,-1,5
 796 -93 796 -93 611 -189.5 c 128,-1,6
 426 -286 426 -286 244 -310 c 1,7,-1
 236 -270 l 1,8,9
 358 -235 358 -235 451.5 -179.5 c 128,-1,10
 545 -124 545 -124 618.5 -12.5 c 128,-1,11
 692 99 692 99 722 283 c 1,12,13
 679 219 679 219 609 188.5 c 128,-1,14
 539 158 539 158 459 158 c 0,15,16
 349 158 349 158 257.5 212 c 128,-1,17
 166 266 166 266 112 366.5 c 128,-1,18
 58 467 58 467 58 602 c 0,19,20
 58 753 58 753 127 863 c 128,-1,21
 196 973 196 973 312 1030.5 c 128,-1,22
 428 1088 428 1088 568 1088 c 0,23,0
 718 1088 718 1088 826 1021.5 c 128,-1,1
646.5 253.5 m 128,-1,25
 701 290 701 290 732 364 c 1,26,27
 740 447 740 447 740 532 c 0,28,29
 740 718 740 718 712 833 c 128,-1,30
 684 948 684 948 640.5 997.5 c 128,-1,31
 597 1047 597 1047 547 1047 c 0,32,33
 498 1047 498 1047 457 1002.5 c 128,-1,34
 416 958 416 958 391.5 861.5 c 128,-1,35
 367 765 367 765 367 618 c 0,36,37
 367 411 367 411 415 314 c 128,-1,38
 463 217 463 217 541 217 c 0,39,24
 592 217 592 217 646.5 253.5 c 128,-1,25
EndSplineSet
Substitution2: "'case' Case-Sensitive Forms lookup 25 subtable" nine.lf
Substitution2: "'lnum' Lining Figures lookup 20 subtable" nine.lf
Substitution2: "'frac' Diagonal Fractions lookup 17 subtable" nine.numr
Substitution2: "'dnom' Denominators lookup 15 subtable" nine.dnom
Substitution2: "'numr' Numerators lookup 14 subtable" nine.numr
Substitution2: "'sups' Superscript lookup 13 subtable" nine.sups
Substitution2: "'sinf' Scientific Inferiors lookup 12 subtable" nine.subs
Substitution2: "'subs' Subscript lookup 11 subtable" nine.subs
AlternateSubs2: "'aalt' Access All Alternates lookup 1 subtable" nine.subs nine.sups nine.numr nine.dnom nine.lf
EndChar
StartChar: less
Encoding: 60 60 732
Width: 1233
Flags: W
LayerCount: 2
Back
Fore
SplineSet
251 727 m 1,0,-1
 1089 336 l 1,1,-1
 1054 262 l 1,2,-1
 57 727 l 1,3,-1
 1054 1192 l 1,4,-1
 1089 1118 l 1,5,-1
 251 727 l 1,0,-1
EndSplineSet
EndChar
StartChar: equal
Encoding: 61 61 727
Width: 1300
Flags: W
LayerCount: 2
Back
Fore
SplineSet
136 840 m 1,0,-1
 136 901 l 1,1,-1
 1162 901 l 1,2,-1
 1162 840 l 1,3,-1
 136 840 l 1,0,-1
136 553 m 1,4,-1
 136 614 l 1,5,-1
 1162 614 l 1,6,-1
 1162 553 l 1,7,-1
 136 553 l 1,4,-1
EndSplineSet
EndChar
StartChar: question
Encoding: 63 63 682
Width: 1040
Flags: W
LayerCount: 2
Back
Fore
SplineSet
741 1557.5 m 128,-1,1
 852 1513 852 1513 913.5 1429.5 c 128,-1,2
 975 1346 975 1346 975 1233 c 0,3,4
 975 1065 975 1065 835 949 c 128,-1,5
 695 833 695 833 453 778 c 1,6,-1
 453 479 l 1,7,-1
 412 479 l 1,8,-1
 412 797 l 1,9,10
 522 845 522 845 581 905.5 c 128,-1,11
 640 966 640 966 661 1035.5 c 128,-1,12
 682 1105 682 1105 682 1194 c 0,13,14
 682 1380 682 1380 614.5 1470.5 c 128,-1,15
 547 1561 547 1561 431 1561 c 0,16,17
 372 1561 372 1561 325 1548 c 128,-1,18
 278 1535 278 1535 254 1508 c 1,19,20
 368 1471 368 1471 368 1358 c 0,21,22
 368 1293 368 1293 322.5 1251.5 c 128,-1,23
 277 1210 277 1210 205 1210 c 0,24,25
 163 1210 163 1210 130 1229 c 128,-1,26
 97 1248 97 1248 79 1280.5 c 128,-1,27
 61 1313 61 1313 61 1352 c 0,28,29
 61 1459 61 1459 178 1529 c 0,30,31
 300 1602 300 1602 484 1602 c 0,32,0
 630 1602 630 1602 741 1557.5 c 128,-1,1
563 245.5 m 128,-1,34
 610 203 610 203 610 129 c 0,35,36
 610 56 610 56 563 13.5 c 128,-1,37
 516 -29 516 -29 435 -29 c 0,38,39
 355 -29 355 -29 308 13.5 c 128,-1,40
 261 56 261 56 261 129 c 0,41,42
 261 203 261 203 308 245.5 c 128,-1,43
 355 288 355 288 435 288 c 0,44,33
 516 288 516 288 563 245.5 c 128,-1,34
EndSplineSet
Substitution2: "'smcp' Lowercase to Small Capitals lookup 24 subtable" question.smcp
Substitution2: "'c2sc' Capitals to Small Capitals lookup 23 subtable" question.smcp
Substitution2: "'aalt' Access All Alternates lookup 0 subtable" question.smcp
EndChar
StartChar: at
Encoding: 64 64 762
Width: 1810
Flags: W
LayerCount: 2
Back
Fore
SplineSet
976 194 m 0,1,2
 976 234 976 234 988 284 c 1,3,4
 934 163 934 163 861.5 108 c 128,-1,5
 789 53 789 53 697 53 c 0,6,7
 586 53 586 53 523 121 c 128,-1,8
 460 189 460 189 460 319 c 0,9,10
 460 464 460 464 530 619 c 128,-1,11
 600 774 600 774 713.5 876.5 c 128,-1,12
 827 979 827 979 950 979 c 0,13,14
 1014 979 1014 979 1054.5 945.5 c 128,-1,15
 1095 912 1095 912 1108 857 c 1,16,-1
 1127 950 l 1,17,18
 1290 950 1290 950 1386 979 c 1,19,-1
 1224 240 l 2,20,21
 1214 200 1214 200 1213 175 c 2,22,-1
 1213 165 l 2,23,24
 1213 118 1213 118 1246 118 c 0,25,26
 1255 118 1255 118 1272 123 c 0,27,28
 1365 150 1365 150 1465 240 c 128,-1,29
 1565 330 1565 330 1634 476 c 128,-1,30
 1703 622 1703 622 1703 807 c 0,31,32
 1703 989 1703 989 1622 1106 c 128,-1,33
 1541 1223 1541 1223 1404 1277 c 128,-1,34
 1267 1331 1267 1331 1094 1331 c 0,35,36
 844 1331 844 1331 622 1188.5 c 128,-1,37
 400 1046 400 1046 266 807.5 c 128,-1,38
 132 569 132 569 132 297 c 0,39,40
 132 93 132 93 211.5 -39 c 128,-1,41
 291 -171 291 -171 431.5 -232 c 128,-1,42
 572 -293 572 -293 758 -293 c 0,43,44
 995 -293 995 -293 1180 -182 c 1,45,-1
 1195 -209 l 1,46,47
 1115 -265 1115 -265 1002 -297.5 c 128,-1,48
 889 -330 889 -330 756 -330 c 0,49,50
 557 -330 557 -330 407.5 -263.5 c 128,-1,51
 258 -197 258 -197 174.5 -57.5 c 128,-1,52
 91 82 91 82 91 293 c 0,53,54
 91 566 91 566 225.5 815 c 128,-1,55
 360 1064 360 1064 590.5 1216 c 128,-1,56
 821 1368 821 1368 1092 1368 c 0,57,58
 1281 1368 1281 1368 1427.5 1308.5 c 128,-1,59
 1574 1249 1574 1249 1658.5 1123 c 128,-1,60
 1743 997 1743 997 1743 805 c 0,61,62
 1743 587 1743 587 1650 415 c 128,-1,63
 1557 243 1557 243 1415.5 148 c 128,-1,64
 1274 53 1274 53 1137 53 c 0,65,0
 976 53 976 53 976 194 c 0,1,2
925.5 232 m 128,-1,67
 982 312 982 312 1028 462 c 1,68,-1
 1092 778 l 1,69,70
 1092 831 1092 831 1068 869 c 128,-1,71
 1044 907 1044 907 1000 907 c 0,72,73
 935 907 935 907 870 820 c 128,-1,74
 805 733 805 733 763.5 596.5 c 128,-1,75
 722 460 722 460 722 322 c 0,76,77
 722 230 722 230 743.5 191 c 128,-1,78
 765 152 765 152 807 152 c 0,79,66
 869 152 869 152 925.5 232 c 128,-1,67
EndSplineSet
Substitution2: "'case' Case-Sensitive Forms lookup 25 subtable" at.case
Substitution2: "'smcp' Lowercase to Small Capitals lookup 24 subtable" at.smcp
Substitution2: "'c2sc' Capitals to Small Capitals lookup 23 subtable" at.smcp
AlternateSubs2: "'aalt' Access All Alternates lookup 1 subtable" at.smcp at.case
EndChar
StartChar: A
Encoding: 65 65 2
Width: 1366
GlyphClass: 2
Flags: W
AnchorPoint: "Anchor-5" 0 0 basechar 0
AnchorPoint: "Anchor-4" 680 1450 basechar 0
AnchorPoint: "Anchor-3" 1349 0 basechar 0
LayerCount: 2
Back
Fore
SplineSet
1311.5 73.5 m 128,-1,1
 1346 43 1346 43 1380 41 c 1,2,-1
 1380 0 l 1,3,4
 1258 6 1258 6 1069 6 c 0,5,6
 859 6 859 6 757 0 c 1,7,-1
 757 41 l 1,8,9
 834 44 834 44 867.5 60 c 128,-1,10
 901 76 901 76 901 116 c 0,11,12
 901 152 901 152 877 213 c 2,13,-1
 754 549 l 1,14,-1
 309 549 l 1,15,-1
 254 407 l 2,16,17
 198 263 198 263 198 180 c 0,18,19
 198 104 198 104 243.5 73.5 c 128,-1,20
 289 43 289 43 380 41 c 1,21,-1
 380 0 l 1,22,23
 240 6 240 6 125 6 c 0,24,25
 29 6 29 6 -32 0 c 1,26,-1
 -32 41 l 1,27,28
 71 60 71 60 146 256 c 2,29,-1
 612 1454 l 1,30,31
 645 1451 645 1451 683 1451 c 256,32,33
 721 1451 721 1451 754 1454 c 1,34,-1
 1251 172 l 2,35,0
 1277 104 1277 104 1311.5 73.5 c 128,-1,1
536 1141 m 1,36,-1
 324 590 l 1,37,-1
 739 590 l 1,38,-1
 536 1141 l 1,36,-1
EndSplineSet
Substitution2: "Single Substitution lookup 29 subtable" ordfeminine
Substitution2: "'c2sc' Capitals to Small Capitals lookup 23 subtable" a.smcp
AlternateSubs2: "'aalt' Access All Alternates lookup 1 subtable" ordfeminine a.smcp
Position2: "'cpsp' Capital Spacing lookup 0 subtable" dx=20 dy=0 dh=20 dv=0
EndChar
StartChar: B
Encoding: 66 66 13
Width: 1375
GlyphClass: 2
Flags: W
LayerCount: 2
Back
Fore
SplineSet
1095 694.5 m 128,-1,1
 1210 641 1210 641 1261.5 563.5 c 128,-1,2
 1313 486 1313 486 1313 397 c 0,3,4
 1313 270 1313 270 1245.5 180.5 c 128,-1,5
 1178 91 1178 91 1051 45.5 c 128,-1,6
 924 0 924 0 748 0 c 2,7,-1
 649 2 l 2,8,9
 513 6 513 6 383 6 c 0,10,11
 172 6 172 6 68 0 c 1,12,-1
 68 41 l 1,13,14
 137 44 137 44 167.5 57 c 128,-1,15
 198 70 198 70 209.5 105 c 128,-1,16
 221 140 221 140 221 217 c 2,17,-1
 221 1233 l 2,18,19
 221 1310 221 1310 209.5 1345 c 128,-1,20
 198 1380 198 1380 167 1393 c 128,-1,21
 136 1406 136 1406 68 1409 c 1,22,-1
 68 1450 l 1,23,24
 172 1444 172 1444 379 1444 c 0,25,26
 417 1444 417 1444 609 1447 c 2,27,-1
 701 1448 l 2,28,29
 866 1448 866 1448 979.5 1407.5 c 128,-1,30
 1093 1367 1093 1367 1150 1294.5 c 128,-1,31
 1207 1222 1207 1222 1207 1126 c 0,32,33
 1207 1050 1207 1050 1163 977 c 128,-1,34
 1119 904 1119 904 1026.5 847.5 c 128,-1,35
 934 791 934 791 798 766 c 1,36,-1
 798 762 l 1,37,0
 980 748 980 748 1095 694.5 c 128,-1,1
593.5 1394.5 m 128,-1,39
 567 1380 567 1380 557 1343 c 128,-1,40
 547 1306 547 1306 547 1233 c 2,41,-1
 547 770 l 1,42,-1
 635 770 l 2,43,44
 769 770 769 770 822 861 c 128,-1,45
 875 952 875 952 875 1104 c 0,46,47
 875 1258 875 1258 827.5 1333.5 c 128,-1,48
 780 1409 780 1409 674 1409 c 0,49,38
 620 1409 620 1409 593.5 1394.5 c 128,-1,39
904 138 m 128,-1,51
 973 229 973 229 973 406 c 0,52,53
 973 567 973 567 891.5 651 c 128,-1,54
 810 735 810 735 633 735 c 2,55,-1
 547 735 l 1,56,-1
 547 217 l 2,57,58
 547 143 547 143 558 108 c 128,-1,59
 569 73 569 73 598 60 c 128,-1,60
 627 47 627 47 688 47 c 0,61,50
 835 47 835 47 904 138 c 128,-1,51
EndSplineSet
Substitution2: "'c2sc' Capitals to Small Capitals lookup 23 subtable" b.smcp
Substitution2: "'aalt' Access All Alternates lookup 0 subtable" b.smcp
Position2: "'cpsp' Capital Spacing lookup 0 subtable" dx=20 dy=0 dh=20 dv=0
EndChar
StartChar: C
Encoding: 67 67 14
Width: 1445
GlyphClass: 2
Flags: W
AnchorPoint: "Anchor-5" 819 0 basechar 0
AnchorPoint: "Anchor-4" 776 1450 basechar 0
AnchorPoint: "Anchor-3" 0 0 basechar 0
LayerCount: 2
Back
Fore
SplineSet
1020 1444 m 128,-1,1
 1106 1409 1106 1409 1188 1346 c 0,2,3
 1210 1328 1210 1328 1228 1328 c 0,4,5
 1269 1328 1269 1328 1281 1450 c 1,6,-1
 1328 1450 l 1,7,8
 1320 1310 1320 1310 1320 954 c 1,9,-1
 1272 954 l 1,10,11
 1260 1057 1260 1057 1244.5 1121 c 128,-1,12
 1229 1185 1229 1185 1199.5 1234.5 c 128,-1,13
 1170 1284 1170 1284 1118 1325 c 1,14,15
 1068 1374 1068 1374 1000.5 1400 c 128,-1,16
 933 1426 933 1426 859 1426 c 0,17,18
 719 1426 719 1426 627.5 1329 c 128,-1,19
 536 1232 536 1232 493.5 1072.5 c 128,-1,20
 451 913 451 913 451 721 c 256,21,22
 451 529 451 529 495.5 370.5 c 128,-1,23
 540 212 540 212 633.5 116.5 c 128,-1,24
 727 21 727 21 867 21 c 0,25,26
 937 21 937 21 1005.5 46.5 c 128,-1,27
 1074 72 1074 72 1122 120 c 1,28,29
 1174 160 1174 160 1203 213 c 128,-1,30
 1232 266 1232 266 1247 336 c 128,-1,31
 1262 406 1262 406 1272 516 c 1,32,-1
 1320 516 l 1,33,34
 1320 145 1320 145 1328 0 c 1,35,-1
 1281 0 l 1,36,37
 1275 64 1275 64 1263.5 92.5 c 128,-1,38
 1252 121 1252 121 1231 121 c 0,39,40
 1214 121 1214 121 1188 104 c 0,41,42
 1128 61 1128 61 1076.5 33.5 c 128,-1,43
 1025 6 1025 6 959 -11.5 c 128,-1,44
 893 -29 893 -29 810 -29 c 0,45,46
 593 -29 593 -29 429.5 59 c 128,-1,47
 266 147 266 147 176.5 314.5 c 128,-1,48
 87 482 87 482 87 713 c 0,49,50
 87 939 87 939 179 1113 c 128,-1,51
 271 1287 271 1287 436 1383 c 128,-1,52
 601 1479 601 1479 812 1479 c 0,53,0
 934 1479 934 1479 1020 1444 c 128,-1,1
EndSplineSet
Substitution2: "'c2sc' Capitals to Small Capitals lookup 23 subtable" c.smcp
Substitution2: "'aalt' Access All Alternates lookup 0 subtable" c.smcp
Position2: "'cpsp' Capital Spacing lookup 0 subtable" dx=20 dy=0 dh=20 dv=0
EndChar
StartChar: D
Encoding: 68 68 20
Width: 1589
GlyphClass: 2
Flags: W
AnchorPoint: "Anchor-5" 0 0 basechar 0
AnchorPoint: "Anchor-4" 702 1450 basechar 0
AnchorPoint: "Anchor-3" 0 0 basechar 0
LayerCount: 2
Back
Fore
SplineSet
1298.5 1269 m 128,-1,1
 1497 1088 1497 1088 1497 741 c 0,2,3
 1497 518 1497 518 1400 350.5 c 128,-1,4
 1303 183 1303 183 1119.5 91.5 c 128,-1,5
 936 0 936 0 682 0 c 0,6,7
 632 0 632 0 558 3 c 0,8,9
 378 6 378 6 383 6 c 1,10,11
 172 6 172 6 68 0 c 1,12,-1
 68 41 l 1,13,14
 137 44 137 44 167.5 57 c 128,-1,15
 198 70 198 70 209.5 105 c 128,-1,16
 221 140 221 140 221 217 c 2,17,-1
 221 1233 l 2,18,19
 221 1310 221 1310 209.5 1345 c 128,-1,20
 198 1380 198 1380 167 1393 c 128,-1,21
 136 1406 136 1406 68 1409 c 1,22,-1
 68 1450 l 1,23,24
 199 1443 199 1443 315 1443 c 2,25,-1
 379 1444 l 1,26,-1
 467 1446 l 2,27,28
 633 1450 633 1450 701 1450 c 0,29,0
 1100 1450 1100 1450 1298.5 1269 c 128,-1,1
603 1398.5 m 128,-1,31
 571 1384 571 1384 559 1347 c 128,-1,32
 547 1310 547 1310 547 1237 c 2,33,-1
 547 213 l 2,34,35
 547 139 547 139 559 102.5 c 128,-1,36
 571 66 571 66 603.5 51.5 c 128,-1,37
 636 37 636 37 701 37 c 0,38,39
 870 37 870 37 970.5 116.5 c 128,-1,40
 1071 196 1071 196 1114 348.5 c 128,-1,41
 1157 501 1157 501 1157 733 c 0,42,43
 1157 967 1157 967 1111 1116 c 128,-1,44
 1065 1265 1065 1265 964 1339 c 128,-1,45
 863 1413 863 1413 699 1413 c 0,46,30
 635 1413 635 1413 603 1398.5 c 128,-1,31
EndSplineSet
Substitution2: "'c2sc' Capitals to Small Capitals lookup 23 subtable" d.smcp
Substitution2: "'aalt' Access All Alternates lookup 0 subtable" d.smcp
Position2: "'cpsp' Capital Spacing lookup 0 subtable" dx=20 dy=0 dh=20 dv=0
EndChar
StartChar: E
Encoding: 69 69 24
Width: 1298
GlyphClass: 2
Flags: W
AnchorPoint: "Anchor-5" 666 0 basechar 0
AnchorPoint: "Anchor-4" 644 1450 basechar 0
AnchorPoint: "Anchor-3" 1194 0 basechar 0
LayerCount: 2
Back
Fore
SplineSet
1204 0 m 1,1,2
 1065 6 1065 6 735 6 c 0,3,4
 291 6 291 6 68 0 c 1,5,-1
 68 41 l 1,6,7
 137 44 137 44 167.5 57 c 128,-1,8
 198 70 198 70 209.5 105 c 128,-1,9
 221 140 221 140 221 217 c 2,10,-1
 221 1233 l 2,11,12
 221 1310 221 1310 209.5 1345 c 128,-1,13
 198 1380 198 1380 167 1393 c 128,-1,14
 136 1406 136 1406 68 1409 c 1,15,-1
 68 1450 l 1,16,17
 291 1444 291 1444 735 1444 c 0,18,19
 1037 1444 1037 1444 1163 1450 c 1,20,21
 1149 1281 1149 1281 1149 1147 c 0,22,23
 1149 1058 1149 1058 1155 1008 c 1,24,-1
 1108 1008 l 1,25,26
 1088 1156 1088 1156 1045 1242.5 c 128,-1,27
 1002 1329 1002 1329 935.5 1366 c 128,-1,28
 869 1403 869 1403 772 1403 c 2,29,-1
 688 1403 l 2,30,31
 625 1403 625 1403 596.5 1393 c 128,-1,32
 568 1383 568 1383 557.5 1353 c 128,-1,33
 547 1323 547 1323 547 1257 c 2,34,-1
 547 750 l 1,35,-1
 613 750 l 2,36,37
 723 750 723 750 779 830 c 128,-1,38
 835 910 835 910 857 1020 c 1,39,-1
 904 1020 l 1,40,41
 897 919 897 919 897 827 c 2,42,-1
 898 729 l 2,43,44
 898 625 898 625 910 438 c 1,45,-1
 863 438 l 1,46,47
 823 709 823 709 613 709 c 2,48,-1
 547 709 l 1,49,-1
 547 193 l 2,50,51
 547 127 547 127 557.5 97 c 128,-1,52
 568 67 568 67 596.5 57 c 128,-1,53
 625 47 625 47 688 47 c 2,54,-1
 789 47 l 2,55,56
 885 47 885 47 955.5 88.5 c 128,-1,57
 1026 130 1026 130 1075 226 c 128,-1,58
 1124 322 1124 322 1149 483 c 1,59,-1
 1196 483 l 1,60,61
 1190 417 1190 417 1190 311 c 0,62,0
 1190 144 1190 144 1204 0 c 1,1,2
EndSplineSet
Substitution2: "'c2sc' Capitals to Small Capitals lookup 23 subtable" e.smcp
Substitution2: "'aalt' Access All Alternates lookup 0 subtable" e.smcp
Position2: "'cpsp' Capital Spacing lookup 0 subtable" dx=20 dy=0 dh=20 dv=0
EndChar
StartChar: F
Encoding: 70 70 34
Width: 1213
GlyphClass: 2
Flags: W
LayerCount: 2
Back
Fore
SplineSet
1149 1139 m 0,1,2
 1149 1040 1149 1040 1155 983 c 1,3,-1
 1108 983 l 1,4,5
 1081 1141 1081 1141 1035.5 1232.5 c 128,-1,6
 990 1324 990 1324 922.5 1363.5 c 128,-1,7
 855 1403 855 1403 756 1403 c 2,8,-1
 688 1403 l 2,9,10
 625 1403 625 1403 596.5 1393 c 128,-1,11
 568 1383 568 1383 557.5 1353 c 128,-1,12
 547 1323 547 1323 547 1257 c 2,13,-1
 547 741 l 1,14,-1
 619 741 l 2,15,16
 729 741 729 741 785 821.5 c 128,-1,17
 841 902 841 902 862 1012 c 1,18,-1
 910 1012 l 1,19,20
 902 892 902 892 902 813 c 2,21,-1
 903 721 l 2,22,23
 903 614 903 614 916 430 c 1,24,-1
 869 430 l 1,25,26
 827 700 827 700 619 700 c 2,27,-1
 547 700 l 1,28,-1
 547 229 l 2,29,30
 547 147 547 147 564 109.5 c 128,-1,31
 581 72 581 72 625 59 c 128,-1,32
 669 46 669 46 766 45 c 1,33,-1
 766 0 l 1,34,35
 598 6 598 6 393 6 c 0,36,37
 246 6 246 6 68 0 c 1,38,-1
 68 41 l 1,39,40
 137 44 137 44 167.5 57 c 128,-1,41
 198 70 198 70 209.5 105 c 128,-1,42
 221 140 221 140 221 217 c 2,43,-1
 221 1233 l 2,44,45
 221 1310 221 1310 209.5 1345 c 128,-1,46
 198 1380 198 1380 167 1393 c 128,-1,47
 136 1406 136 1406 68 1409 c 1,48,-1
 68 1450 l 1,49,50
 291 1444 291 1444 735 1444 c 0,51,52
 1037 1444 1037 1444 1163 1450 c 1,53,0
 1149 1276 1149 1276 1149 1139 c 0,1,2
EndSplineSet
Substitution2: "'c2sc' Capitals to Small Capitals lookup 23 subtable" f.smcp
Substitution2: "'aalt' Access All Alternates lookup 0 subtable" f.smcp
Position2: "'cpsp' Capital Spacing lookup 0 subtable" dx=20 dy=0 dh=20 dv=0
EndChar
StartChar: G
Encoding: 71 71 35
Width: 1505
GlyphClass: 2
Flags: W
AnchorPoint: "Anchor-5" 824 0 basechar 0
AnchorPoint: "Anchor-4" 791 1450 basechar 0
AnchorPoint: "Anchor-3" 0 0 basechar 0
LayerCount: 2
Back
Fore
SplineSet
1043 1444.5 m 128,-1,1
 1131 1410 1131 1410 1214 1346 c 0,2,3
 1237 1326 1237 1326 1255 1326 c 0,4,5
 1276 1326 1276 1326 1288 1356 c 128,-1,6
 1300 1386 1300 1386 1306 1450 c 1,7,-1
 1353 1450 l 1,8,9
 1345 1310 1345 1310 1345 954 c 1,10,-1
 1298 954 l 1,11,12
 1282 1093 1282 1093 1250 1179 c 128,-1,13
 1218 1265 1218 1265 1144 1325 c 1,14,15
 1094 1372 1094 1372 1022 1399 c 128,-1,16
 950 1426 950 1426 876 1426 c 0,17,18
 733 1426 733 1426 638 1328.5 c 128,-1,19
 543 1231 543 1231 497.5 1071 c 128,-1,20
 452 911 452 911 452 722 c 0,21,22
 452 12 452 12 845 12 c 0,23,24
 931 12 931 12 990 52 c 0,25,26
 1018 72 1018 72 1029 96.5 c 128,-1,27
 1040 121 1040 121 1040 159 c 2,28,-1
 1040 360 l 2,29,30
 1040 456 1040 456 1024 500.5 c 128,-1,31
 1008 545 1008 545 966 561.5 c 128,-1,32
 924 578 924 578 833 582 c 1,33,-1
 833 623 l 1,34,35
 951 616 951 616 1183 616 c 0,36,37
 1371 616 1371 616 1458 623 c 1,38,-1
 1458 582 l 1,39,40
 1416 578 1416 578 1397.5 565.5 c 128,-1,41
 1379 553 1379 553 1372 518.5 c 128,-1,42
 1365 484 1365 484 1365 406 c 2,43,-1
 1365 0 l 1,44,-1
 1324 0 l 1,45,46
 1322 43 1322 43 1306.5 80 c 128,-1,47
 1291 117 1291 117 1264 117 c 0,48,49
 1231 117 1231 117 1154 75 c 0,50,51
 975 -29 975 -29 818 -29 c 0,52,53
 581 -29 581 -29 417.5 58.5 c 128,-1,54
 254 146 254 146 170.5 311 c 128,-1,55
 87 476 87 476 87 708 c 0,56,57
 87 937 87 937 181.5 1112 c 128,-1,58
 276 1287 276 1287 444.5 1383 c 128,-1,59
 613 1479 613 1479 828 1479 c 0,60,0
 955 1479 955 1479 1043 1444.5 c 128,-1,1
EndSplineSet
Substitution2: "'c2sc' Capitals to Small Capitals lookup 23 subtable" g.smcp
Substitution2: "'aalt' Access All Alternates lookup 0 subtable" g.smcp
Position2: "'cpsp' Capital Spacing lookup 0 subtable" dx=20 dy=0 dh=20 dv=0
EndChar
StartChar: H
Encoding: 72 72 41
Width: 1639
GlyphClass: 2
Flags: W
AnchorPoint: "Anchor-5" 0 0 basechar 0
AnchorPoint: "Anchor-4" 825 1450 basechar 0
AnchorPoint: "Anchor-3" 0 0 basechar 0
LayerCount: 2
Back
Fore
SplineSet
1469 1393 m 128,-1,1
 1438 1380 1438 1380 1426.5 1345 c 128,-1,2
 1415 1310 1415 1310 1415 1233 c 2,3,-1
 1415 217 l 2,4,5
 1415 140 1415 140 1426.5 105 c 128,-1,6
 1438 70 1438 70 1469.5 57 c 128,-1,7
 1501 44 1501 44 1569 41 c 1,8,-1
 1569 0 l 1,9,10
 1469 6 1469 6 1258 6 c 0,11,12
 1050 6 1050 6 936 0 c 1,13,-1
 936 41 l 1,14,15
 1005 44 1005 44 1036 57 c 128,-1,16
 1067 70 1067 70 1078.5 105 c 128,-1,17
 1090 140 1090 140 1090 217 c 2,18,-1
 1090 709 l 1,19,-1
 547 709 l 1,20,-1
 547 217 l 2,21,22
 547 140 547 140 558.5 105 c 128,-1,23
 570 70 570 70 601 57 c 128,-1,24
 632 44 632 44 701 41 c 1,25,-1
 701 0 l 1,26,27
 590 6 590 6 391 6 c 0,28,29
 172 6 172 6 68 0 c 1,30,-1
 68 41 l 1,31,32
 137 44 137 44 167.5 57 c 128,-1,33
 198 70 198 70 209.5 105 c 128,-1,34
 221 140 221 140 221 217 c 2,35,-1
 221 1233 l 2,36,37
 221 1310 221 1310 209.5 1345 c 128,-1,38
 198 1380 198 1380 167 1393 c 128,-1,39
 136 1406 136 1406 68 1409 c 1,40,-1
 68 1450 l 1,41,42
 172 1444 172 1444 391 1444 c 0,43,44
 590 1444 590 1444 701 1450 c 1,45,-1
 701 1409 l 1,46,47
 632 1406 632 1406 601 1393 c 128,-1,48
 570 1380 570 1380 558.5 1345 c 128,-1,49
 547 1310 547 1310 547 1233 c 2,50,-1
 547 750 l 1,51,-1
 1090 750 l 1,52,-1
 1090 1233 l 2,53,54
 1090 1310 1090 1310 1078.5 1345 c 128,-1,55
 1067 1380 1067 1380 1036 1393 c 128,-1,56
 1005 1406 1005 1406 936 1409 c 1,57,-1
 936 1450 l 1,58,59
 1050 1444 1050 1444 1258 1444 c 0,60,61
 1469 1444 1469 1444 1569 1450 c 1,62,-1
 1569 1409 l 1,63,0
 1500 1406 1500 1406 1469 1393 c 128,-1,1
EndSplineSet
Substitution2: "'c2sc' Capitals to Small Capitals lookup 23 subtable" h.smcp
Substitution2: "'aalt' Access All Alternates lookup 0 subtable" h.smcp
Position2: "'cpsp' Capital Spacing lookup 0 subtable" dx=20 dy=0 dh=20 dv=0
EndChar
StartChar: I
Encoding: 73 73 44
Width: 770
GlyphClass: 2
Flags: W
AnchorPoint: "Anchor-5" 392 0 basechar 0
AnchorPoint: "Anchor-4" 392 1450 basechar 0
AnchorPoint: "Anchor-3" 672 0 basechar 0
LayerCount: 2
Back
Fore
SplineSet
601 1393 m 128,-1,1
 570 1380 570 1380 558.5 1345 c 128,-1,2
 547 1310 547 1310 547 1233 c 2,3,-1
 547 217 l 2,4,5
 547 140 547 140 558.5 105 c 128,-1,6
 570 70 570 70 601 57 c 128,-1,7
 632 44 632 44 701 41 c 1,8,-1
 701 0 l 1,9,10
 590 6 590 6 391 6 c 0,11,12
 172 6 172 6 68 0 c 1,13,-1
 68 41 l 1,14,15
 137 44 137 44 167.5 57 c 128,-1,16
 198 70 198 70 209.5 105 c 128,-1,17
 221 140 221 140 221 217 c 2,18,-1
 221 1233 l 2,19,20
 221 1310 221 1310 209.5 1345 c 128,-1,21
 198 1380 198 1380 167 1393 c 128,-1,22
 136 1406 136 1406 68 1409 c 1,23,-1
 68 1450 l 1,24,25
 172 1444 172 1444 391 1444 c 0,26,27
 590 1444 590 1444 701 1450 c 1,28,-1
 701 1409 l 1,29,0
 632 1406 632 1406 601 1393 c 128,-1,1
EndSplineSet
Substitution2: "'c2sc' Capitals to Small Capitals lookup 23 subtable" i.smcp
Substitution2: "'aalt' Access All Alternates lookup 0 subtable" i.smcp
Position2: "'cpsp' Capital Spacing lookup 0 subtable" dx=20 dy=0 dh=20 dv=0
EndChar
StartChar: J
Encoding: 74 74 55
Width: 746
GlyphClass: 2
Flags: W
AnchorPoint: "Anchor-5" 0 0 basechar 0
AnchorPoint: "Anchor-4" 369 1450 basechar 0
AnchorPoint: "Anchor-3" 0 0 basechar 0
LayerCount: 2
Back
Fore
SplineSet
591 1393 m 128,-1,1
 560 1380 560 1380 548.5 1345 c 128,-1,2
 537 1310 537 1310 537 1233 c 2,3,-1
 537 483 l 1,4,-1
 537 376 l 2,5,6
 537 234 537 234 530.5 129 c 128,-1,7
 524 24 524 24 502 -51 c 0,8,9
 474 -147 474 -147 404 -222.5 c 128,-1,10
 334 -298 334 -298 226.5 -341.5 c 128,-1,11
 119 -385 119 -385 -16 -385 c 0,12,13
 -146 -385 -146 -385 -222 -347 c 0,14,15
 -323 -297 -323 -297 -323 -198 c 0,16,17
 -323 -136 -323 -136 -278 -98 c 128,-1,18
 -233 -60 -233 -60 -159 -60 c 0,19,20
 -88 -60 -88 -60 -46 -95 c 128,-1,21
 -4 -130 -4 -130 -4 -195 c 0,22,23
 -4 -241 -4 -241 -31 -277 c 128,-1,24
 -58 -313 -58 -313 -109 -329 c 1,25,26
 -87 -344 -87 -344 -35 -344 c 0,27,28
 40 -344 40 -344 94 -303.5 c 128,-1,29
 148 -263 148 -263 172 -197 c 0,30,31
 190 -145 190 -145 198.5 -86 c 128,-1,32
 207 -27 207 -27 209 54.5 c 128,-1,33
 211 136 211 136 211 297 c 2,34,-1
 211 1233 l 2,35,36
 211 1310 211 1310 199.5 1345 c 128,-1,37
 188 1380 188 1380 157 1393 c 128,-1,38
 126 1406 126 1406 58 1409 c 1,39,-1
 58 1450 l 1,40,41
 158 1444 158 1444 369 1444 c 0,42,43
 577 1444 577 1444 691 1450 c 1,44,-1
 691 1409 l 1,45,0
 622 1406 622 1406 591 1393 c 128,-1,1
EndSplineSet
Substitution2: "'c2sc' Capitals to Small Capitals lookup 23 subtable" j.smcp
Substitution2: "'aalt' Access All Alternates lookup 0 subtable" j.smcp
Position2: "'cpsp' Capital Spacing lookup 0 subtable" dx=20 dy=0 dh=20 dv=0
EndChar
StartChar: K
Encoding: 75 75 57
Width: 1463
GlyphClass: 2
Flags: W
AnchorPoint: "Anchor-5" 814 0 basechar 0
AnchorPoint: "Anchor-4" 812 1450 basechar 0
AnchorPoint: "Anchor-3" 0 0 basechar 0
LayerCount: 2
Back
Fore
SplineSet
1396.5 89.5 m 128,-1,1
 1429 61 1429 61 1481 41 c 1,2,-1
 1481 0 l 1,3,4
 1339 6 1339 6 1161 6 c 0,5,6
 1026 6 1026 6 901 0 c 1,7,-1
 901 41 l 1,8,9
 959 43 959 43 984.5 52.5 c 128,-1,10
 1010 62 1010 62 1010 82 c 0,11,12
 1010 97 1010 97 989 133 c 2,13,-1
 691 614 l 2,14,15
 662 660 662 660 641.5 683 c 128,-1,16
 621 706 621 706 600 715.5 c 128,-1,17
 579 725 579 725 547 728 c 1,18,-1
 547 217 l 2,19,20
 547 140 547 140 558.5 105 c 128,-1,21
 570 70 570 70 601 57 c 128,-1,22
 632 44 632 44 701 41 c 1,23,-1
 701 0 l 1,24,25
 590 6 590 6 391 6 c 0,26,27
 172 6 172 6 68 0 c 1,28,-1
 68 41 l 1,29,30
 137 44 137 44 167.5 57 c 128,-1,31
 198 70 198 70 209.5 105 c 128,-1,32
 221 140 221 140 221 217 c 2,33,-1
 221 1233 l 2,34,35
 221 1310 221 1310 209.5 1345 c 128,-1,36
 198 1380 198 1380 167 1393 c 128,-1,37
 136 1406 136 1406 68 1409 c 1,38,-1
 68 1450 l 1,39,40
 172 1444 172 1444 391 1444 c 0,41,42
 590 1444 590 1444 701 1450 c 1,43,-1
 701 1409 l 1,44,45
 632 1406 632 1406 601 1393 c 128,-1,46
 570 1380 570 1380 558.5 1345 c 128,-1,47
 547 1310 547 1310 547 1233 c 2,48,-1
 547 772 l 1,49,50
 628 777 628 777 697.5 822 c 128,-1,51
 767 867 767 867 851 964 c 2,52,-1
 971 1110 l 2,53,54
 1065 1221 1065 1221 1065 1300 c 0,55,56
 1065 1351 1065 1351 1025.5 1379.5 c 128,-1,57
 986 1408 986 1408 915 1410 c 1,58,-1
 915 1450 l 1,59,60
 1065 1444 1065 1444 1217 1444 c 0,61,62
 1336 1444 1336 1444 1411 1450 c 1,63,-1
 1411 1410 l 1,64,65
 1248 1375 1248 1375 1113 1215 c 2,66,-1
 857 910 l 1,67,-1
 1334 166 l 2,68,0
 1364 118 1364 118 1396.5 89.5 c 128,-1,1
EndSplineSet
Substitution2: "'c2sc' Capitals to Small Capitals lookup 23 subtable" k.smcp
Substitution2: "'aalt' Access All Alternates lookup 0 subtable" k.smcp
Position2: "'cpsp' Capital Spacing lookup 0 subtable" dx=20 dy=0 dh=20 dv=0
EndChar
StartChar: L
Encoding: 76 76 59
Width: 1251
GlyphClass: 2
Flags: W
AnchorPoint: "Anchor-5" 724 0 basechar 0
AnchorPoint: "Anchor-4" 392 1450 basechar 0
AnchorPoint: "Anchor-3" 0 0 basechar 0
LayerCount: 2
Back
Fore
SplineSet
605.5 1393 m 128,-1,1
 572 1380 572 1380 559.5 1345 c 128,-1,2
 547 1310 547 1310 547 1233 c 2,3,-1
 547 193 l 2,4,5
 547 127 547 127 557 97 c 128,-1,6
 567 67 567 67 593 57 c 128,-1,7
 619 47 619 47 676 47 c 2,8,-1
 776 47 l 2,9,10
 869 47 869 47 946.5 104 c 128,-1,11
 1024 161 1024 161 1076.5 264.5 c 128,-1,12
 1129 368 1129 368 1149 504 c 1,13,-1
 1196 504 l 1,14,15
 1190 434 1190 434 1190 324 c 0,16,17
 1190 149 1190 149 1204 0 c 1,18,19
 1065 6 1065 6 735 6 c 0,20,21
 291 6 291 6 68 0 c 1,22,-1
 68 41 l 1,23,24
 137 44 137 44 167.5 57 c 128,-1,25
 198 70 198 70 209.5 105 c 128,-1,26
 221 140 221 140 221 217 c 2,27,-1
 221 1233 l 2,28,29
 221 1310 221 1310 209.5 1345 c 128,-1,30
 198 1380 198 1380 167 1393 c 128,-1,31
 136 1406 136 1406 68 1409 c 1,32,-1
 68 1450 l 1,33,34
 172 1444 172 1444 391 1444 c 0,35,36
 599 1444 599 1444 713 1450 c 1,37,-1
 713 1409 l 1,38,0
 639 1406 639 1406 605.5 1393 c 128,-1,1
EndSplineSet
Substitution2: "'c2sc' Capitals to Small Capitals lookup 23 subtable" l.smcp
Substitution2: "'aalt' Access All Alternates lookup 0 subtable" l.smcp
Position2: "'cpsp' Capital Spacing lookup 0 subtable" dx=20 dy=0 dh=20 dv=0
EndChar
StartChar: M
Encoding: 77 77 65
Width: 1899
GlyphClass: 2
Flags: W
LayerCount: 2
Back
Fore
SplineSet
1730 1393 m 128,-1,1
 1699 1380 1699 1380 1687.5 1345 c 128,-1,2
 1676 1310 1676 1310 1676 1233 c 2,3,-1
 1676 217 l 2,4,5
 1676 140 1676 140 1687.5 105 c 128,-1,6
 1699 70 1699 70 1730 57 c 128,-1,7
 1761 44 1761 44 1830 41 c 1,8,-1
 1830 0 l 1,9,10
 1716 6 1716 6 1508 6 c 0,11,12
 1289 6 1289 6 1184 0 c 1,13,-1
 1184 41 l 1,14,15
 1258 44 1258 44 1291.5 57 c 128,-1,16
 1325 70 1325 70 1337.5 105 c 128,-1,17
 1350 140 1350 140 1350 217 c 2,18,-1
 1350 1283 l 1,19,-1
 857 -3 l 1,20,-1
 824 -3 l 1,21,-1
 271 1318 l 1,22,-1
 271 336 l 2,23,24
 271 214 271 214 283.5 158 c 128,-1,25
 296 102 296 102 337 76 c 128,-1,26
 378 50 378 50 470 41 c 1,27,-1
 470 0 l 1,28,29
 391 6 391 6 248 6 c 0,30,31
 135 6 135 6 70 0 c 1,32,-1
 70 41 l 1,33,34
 137 50 137 50 169 75.5 c 128,-1,35
 201 101 201 101 212.5 154 c 128,-1,36
 224 207 224 207 224 311 c 2,37,-1
 224 1233 l 2,38,39
 224 1310 224 1310 212.5 1345 c 128,-1,40
 201 1380 201 1380 170 1393 c 128,-1,41
 139 1406 139 1406 70 1409 c 1,42,-1
 70 1450 l 1,43,44
 135 1444 135 1444 248 1444 c 0,45,46
 438 1444 438 1444 572 1450 c 1,47,-1
 985 454 l 1,48,-1
 1363 1444 l 1,49,-1
 1508 1444 l 2,50,51
 1716 1444 1716 1444 1830 1450 c 1,52,-1
 1830 1409 l 1,53,0
 1761 1406 1761 1406 1730 1393 c 128,-1,1
EndSplineSet
Substitution2: "'c2sc' Capitals to Small Capitals lookup 23 subtable" m.smcp
Substitution2: "'aalt' Access All Alternates lookup 0 subtable" m.smcp
Position2: "'cpsp' Capital Spacing lookup 0 subtable" dx=20 dy=0 dh=20 dv=0
EndChar
StartChar: N
Encoding: 78 78 66
Width: 1478
GlyphClass: 2
Flags: W
AnchorPoint: "Anchor-5" 761 0 basechar 0
AnchorPoint: "Anchor-4" 776 1450 basechar 0
AnchorPoint: "Anchor-3" 0 0 basechar 0
LayerCount: 2
Back
Fore
SplineSet
1319 1374.5 m 128,-1,1
 1287 1349 1287 1349 1275.5 1296 c 128,-1,2
 1264 1243 1264 1243 1264 1139 c 2,3,-1
 1264 -4 l 1,4,5
 1249 -3 1249 -3 1215 -3 c 0,6,7
 1179 -3 1179 -3 1159 -4 c 1,8,-1
 271 1122 l 1,9,-1
 271 336 l 2,10,11
 271 214 271 214 283.5 158 c 128,-1,12
 296 102 296 102 337 76 c 128,-1,13
 378 50 378 50 470 41 c 1,14,-1
 470 0 l 1,15,16
 391 6 391 6 248 6 c 0,17,18
 135 6 135 6 70 0 c 1,19,-1
 70 41 l 1,20,21
 137 50 137 50 169 75.5 c 128,-1,22
 201 101 201 101 212.5 154 c 128,-1,23
 224 207 224 207 224 311 c 2,24,-1
 224 1233 l 2,25,26
 224 1310 224 1310 212.5 1345 c 128,-1,27
 201 1380 201 1380 170 1393 c 128,-1,28
 139 1406 139 1406 70 1409 c 1,29,-1
 70 1450 l 1,30,31
 135 1444 135 1444 248 1444 c 0,32,33
 353 1444 353 1444 425 1450 c 1,34,-1
 1217 473 l 1,35,-1
 1217 1114 l 2,36,37
 1217 1236 1217 1236 1204.5 1292 c 128,-1,38
 1192 1348 1192 1348 1151 1374 c 128,-1,39
 1110 1400 1110 1400 1018 1409 c 1,40,-1
 1018 1450 l 1,41,42
 1098 1444 1098 1444 1240 1444 c 0,43,44
 1354 1444 1354 1444 1418 1450 c 1,45,-1
 1418 1409 l 1,46,0
 1351 1400 1351 1400 1319 1374.5 c 128,-1,1
EndSplineSet
Substitution2: "'c2sc' Capitals to Small Capitals lookup 23 subtable" n.smcp
Substitution2: "'aalt' Access All Alternates lookup 0 subtable" n.smcp
Position2: "'cpsp' Capital Spacing lookup 0 subtable" dx=20 dy=0 dh=20 dv=0
EndChar
StartChar: O
Encoding: 79 79 72
Width: 1623
GlyphClass: 2
Flags: W
AnchorPoint: "Anchor-5" 815 0 basechar 0
AnchorPoint: "Anchor-4" 809 1450 basechar 0
AnchorPoint: "Anchor-3" 0 0 basechar 0
LayerCount: 2
Back
Fore
SplineSet
1192 1391 m 128,-1,1
 1355 1303 1355 1303 1445 1135.5 c 128,-1,2
 1535 968 1535 968 1535 737 c 0,3,4
 1535 511 1535 511 1442.5 337 c 128,-1,5
 1350 163 1350 163 1185.5 67 c 128,-1,6
 1021 -29 1021 -29 810 -29 c 0,7,8
 593 -29 593 -29 429.5 59 c 128,-1,9
 266 147 266 147 176.5 314.5 c 128,-1,10
 87 482 87 482 87 713 c 0,11,12
 87 939 87 939 179 1113 c 128,-1,13
 271 1287 271 1287 436 1383 c 128,-1,14
 601 1479 601 1479 812 1479 c 0,15,0
 1029 1479 1029 1479 1192 1391 c 128,-1,1
605 1350.5 m 128,-1,17
 520 1259 520 1259 473.5 1095.5 c 128,-1,18
 427 932 427 932 427 721 c 0,19,20
 427 509 427 509 479 346.5 c 128,-1,21
 531 184 531 184 620.5 96 c 128,-1,22
 710 8 710 8 818 8 c 0,23,24
 931 8 931 8 1016.5 99.5 c 128,-1,25
 1102 191 1102 191 1148.5 354.5 c 128,-1,26
 1195 518 1195 518 1195 729 c 0,27,28
 1195 942 1195 942 1143 1104 c 128,-1,29
 1091 1266 1091 1266 1001.5 1354 c 128,-1,30
 912 1442 912 1442 803 1442 c 0,31,16
 690 1442 690 1442 605 1350.5 c 128,-1,17
EndSplineSet
Substitution2: "Single Substitution lookup 29 subtable" ordmasculine
Substitution2: "'c2sc' Capitals to Small Capitals lookup 23 subtable" o.smcp
AlternateSubs2: "'aalt' Access All Alternates lookup 1 subtable" ordmasculine o.smcp
Position2: "'cpsp' Capital Spacing lookup 0 subtable" dx=20 dy=0 dh=20 dv=0
EndChar
StartChar: P
Encoding: 80 80 83
Width: 1312
GlyphClass: 2
Flags: W
AnchorPoint: "Anchor-5" 392 0 basechar 0
AnchorPoint: "Anchor-4" 689 1450 basechar 0
AnchorPoint: "Anchor-3" 0 0 basechar 0
LayerCount: 2
Back
Fore
SplineSet
547 229 m 2,0,1
 547 147 547 147 564 109.5 c 128,-1,2
 581 72 581 72 625 59 c 128,-1,3
 669 46 669 46 766 45 c 1,4,-1
 766 0 l 1,5,6
 598 6 598 6 393 6 c 0,7,8
 246 6 246 6 68 0 c 1,9,-1
 68 41 l 1,10,11
 137 44 137 44 167.5 57 c 128,-1,12
 198 70 198 70 209.5 105 c 128,-1,13
 221 140 221 140 221 217 c 2,14,-1
 221 1233 l 2,15,16
 221 1310 221 1310 209.5 1345 c 128,-1,17
 198 1380 198 1380 167 1393 c 128,-1,18
 136 1406 136 1406 68 1409 c 1,19,-1
 68 1450 l 1,20,21
 172 1444 172 1444 379 1444 c 0,22,23
 417 1444 417 1444 609 1447 c 2,24,-1
 701 1448 l 2,25,26
 887 1448 887 1448 1014 1397.5 c 128,-1,27
 1141 1347 1141 1347 1204.5 1256 c 128,-1,28
 1268 1165 1268 1165 1268 1044 c 0,29,30
 1268 931 1268 931 1211.5 827.5 c 128,-1,31
 1155 724 1155 724 1018.5 655 c 128,-1,32
 882 586 882 586 656 586 c 2,33,-1
 547 586 l 1,34,-1
 547 229 l 2,0,1
593.5 1394.5 m 128,-1,36
 567 1380 567 1380 557 1343 c 128,-1,37
 547 1306 547 1306 547 1233 c 2,38,-1
 547 627 l 1,39,-1
 635 627 l 2,40,41
 802 627 802 627 865 733.5 c 128,-1,42
 928 840 928 840 928 1022 c 0,43,44
 928 1221 928 1221 869 1315 c 128,-1,45
 810 1409 810 1409 674 1409 c 0,46,35
 620 1409 620 1409 593.5 1394.5 c 128,-1,36
EndSplineSet
Substitution2: "'c2sc' Capitals to Small Capitals lookup 23 subtable" p.smcp
Substitution2: "'aalt' Access All Alternates lookup 0 subtable" p.smcp
Position2: "'cpsp' Capital Spacing lookup 0 subtable" dx=20 dy=0 dh=20 dv=0
EndChar
StartChar: Q
Encoding: 81 81 85
Width: 1623
GlyphClass: 2
Flags: W
AnchorPoint: "Anchor-5" 815 0 basechar 0
AnchorPoint: "Anchor-4" 814 1450 basechar 0
AnchorPoint: "Anchor-3" 0 0 basechar 0
LayerCount: 2
Back
Fore
SplineSet
1458 -305 m 0,1,2
 1413 -342 1413 -342 1345 -363.5 c 128,-1,3
 1277 -385 1277 -385 1194 -385 c 0,4,5
 1117 -385 1117 -385 1040 -367 c 128,-1,6
 963 -349 963 -349 893 -322 c 128,-1,7
 823 -295 823 -295 713 -247 c 0,8,9
 567 -185 567 -185 522 -168 c 0,10,11
 486 -155 486 -155 473 -154 c 1,12,13
 382 -197 382 -197 302 -197 c 0,14,15
 258 -197 258 -197 232.5 -183.5 c 128,-1,16
 207 -170 207 -170 207 -143 c 0,17,18
 207 -88 207 -88 318 -88 c 0,19,20
 391 -88 391 -88 473 -117 c 1,21,22
 533 -101 533 -101 628 -60 c 0,23,24
 670 -41 670 -41 715 -24 c 1,25,26
 524 -5 524 -5 382.5 87.5 c 128,-1,27
 241 180 241 180 164 339.5 c 128,-1,28
 87 499 87 499 87 713 c 0,29,30
 87 939 87 939 179 1113 c 128,-1,31
 271 1287 271 1287 436 1383 c 128,-1,32
 601 1479 601 1479 812 1479 c 0,33,34
 1029 1479 1029 1479 1192 1391 c 128,-1,35
 1355 1303 1355 1303 1445 1135.5 c 128,-1,36
 1535 968 1535 968 1535 737 c 0,37,38
 1535 519 1535 519 1448.5 348.5 c 128,-1,39
 1362 178 1362 178 1206.5 79.5 c 128,-1,40
 1051 -19 1051 -19 851 -28 c 0,41,42
 804 -34 804 -34 766 -46 c 128,-1,43
 728 -58 728 -58 673 -81 c 0,44,45
 601 -111 601 -111 545 -127 c 1,46,-1
 689 -139 l 2,47,48
 970 -163 970 -163 1087 -163 c 0,49,50
 1170 -163 1170 -163 1241 -154 c 0,51,52
 1368 -139 1368 -139 1441.5 -98.5 c 128,-1,53
 1515 -58 1515 -58 1564 25 c 1,54,-1
 1600 14 l 1,55,0
 1566 -218 1566 -218 1458 -305 c 0,1,2
479 346.5 m 128,-1,57
 531 184 531 184 620.5 96 c 128,-1,58
 710 8 710 8 818 8 c 0,59,60
 931 8 931 8 1016.5 99.5 c 128,-1,61
 1102 191 1102 191 1148.5 354.5 c 128,-1,62
 1195 518 1195 518 1195 729 c 0,63,64
 1195 942 1195 942 1143 1104 c 128,-1,65
 1091 1266 1091 1266 1001.5 1354 c 128,-1,66
 912 1442 912 1442 803 1442 c 0,67,68
 690 1442 690 1442 605 1350.5 c 128,-1,69
 520 1259 520 1259 473.5 1095.5 c 128,-1,70
 427 932 427 932 427 721 c 0,71,56
 427 509 427 509 479 346.5 c 128,-1,57
EndSplineSet
Substitution2: "'c2sc' Capitals to Small Capitals lookup 23 subtable" q.smcp
Substitution2: "'aalt' Access All Alternates lookup 0 subtable" q.smcp
Position2: "'cpsp' Capital Spacing lookup 0 subtable" dx=20 dy=0 dh=20 dv=0
EndChar
StartChar: R
Encoding: 82 82 86
Width: 1417
GlyphClass: 2
Flags: W
AnchorPoint: "Anchor-5" 747 0 basechar 0
AnchorPoint: "Anchor-4" 663 1450 basechar 0
AnchorPoint: "Anchor-3" 0 0 basechar 0
LayerCount: 2
Back
Fore
SplineSet
1337.5 -1 m 128,-1,1
 1274 -29 1274 -29 1184 -29 c 0,2,3
 1067 -29 1067 -29 998 21 c 128,-1,4
 929 71 929 71 907 193 c 2,5,-1
 871 397 l 2,6,7
 854 497 854 497 834 557 c 128,-1,8
 814 617 814 617 777.5 652.5 c 128,-1,9
 741 688 741 688 680 688 c 2,10,-1
 547 688 l 1,11,-1
 547 217 l 2,12,13
 547 140 547 140 558.5 105 c 128,-1,14
 570 70 570 70 601 57 c 128,-1,15
 632 44 632 44 701 41 c 1,16,-1
 701 0 l 1,17,18
 590 6 590 6 391 6 c 0,19,20
 172 6 172 6 68 0 c 1,21,-1
 68 41 l 1,22,23
 137 44 137 44 167.5 57 c 128,-1,24
 198 70 198 70 209.5 105 c 128,-1,25
 221 140 221 140 221 217 c 2,26,-1
 221 1233 l 2,27,28
 221 1310 221 1310 209.5 1345 c 128,-1,29
 198 1380 198 1380 167 1393 c 128,-1,30
 136 1406 136 1406 68 1409 c 1,31,-1
 68 1450 l 1,32,33
 172 1444 172 1444 379 1444 c 0,34,35
 417 1444 417 1444 609 1447 c 2,36,-1
 701 1448 l 2,37,38
 983 1448 983 1448 1125.5 1355.5 c 128,-1,39
 1268 1263 1268 1263 1268 1092 c 0,40,41
 1268 1000 1268 1000 1225 918 c 128,-1,42
 1182 836 1182 836 1079.5 775.5 c 128,-1,43
 977 715 977 715 808 696 c 1,44,-1
 809 696 l 1,45,46
 933 685 933 685 1013 654 c 128,-1,47
 1093 623 1093 623 1138.5 567.5 c 128,-1,48
 1184 512 1184 512 1202 426 c 2,49,-1
 1248 215 l 2,50,51
 1265 132 1265 132 1286 100 c 128,-1,52
 1307 68 1307 68 1345 68 c 0,53,54
 1370 68 1370 68 1388.5 79 c 128,-1,55
 1407 90 1407 90 1428 115 c 1,56,-1
 1456 90 l 1,57,0
 1401 27 1401 27 1337.5 -1 c 128,-1,1
593.5 1394.5 m 128,-1,59
 567 1380 567 1380 557 1343 c 128,-1,60
 547 1306 547 1306 547 1233 c 2,61,-1
 547 729 l 1,62,-1
 635 729 l 2,63,64
 750 729 750 729 814.5 773 c 128,-1,65
 879 817 879 817 903.5 891 c 128,-1,66
 928 965 928 965 928 1069 c 0,67,68
 928 1237 928 1237 868.5 1323 c 128,-1,69
 809 1409 809 1409 674 1409 c 0,70,58
 620 1409 620 1409 593.5 1394.5 c 128,-1,59
EndSplineSet
Substitution2: "'c2sc' Capitals to Small Capitals lookup 23 subtable" r.smcp
Substitution2: "'aalt' Access All Alternates lookup 0 subtable" r.smcp
Position2: "'cpsp' Capital Spacing lookup 0 subtable" dx=20 dy=0 dh=20 dv=0
EndChar
StartChar: S
Encoding: 83 83 90
Width: 1196
GlyphClass: 2
Flags: W
AnchorPoint: "Anchor-5" 618 0 basechar 0
AnchorPoint: "Anchor-4" 610 1450 basechar 0
AnchorPoint: "Anchor-3" 0 0 basechar 0
LayerCount: 2
Back
Fore
SplineSet
751 1455.5 m 128,-1,1
 815 1435 815 1435 879 1397 c 0,2,3
 927 1368 927 1368 948 1368 c 0,4,5
 967 1368 967 1368 977 1389 c 128,-1,6
 987 1410 987 1410 994 1458 c 1,7,-1
 1041 1458 l 1,8,9
 1030 1331 1030 1331 1030 991 c 1,10,-1
 983 991 l 1,11,12
 976 1103 976 1103 934 1202.5 c 128,-1,13
 892 1302 892 1302 815.5 1364.5 c 128,-1,14
 739 1427 739 1427 635 1427 c 0,15,16
 569 1427 569 1427 518 1401.5 c 128,-1,17
 467 1376 467 1376 438.5 1329 c 128,-1,18
 410 1282 410 1282 410 1218 c 0,19,20
 410 1146 410 1146 442 1093 c 128,-1,21
 474 1040 474 1040 530.5 995 c 128,-1,22
 587 950 587 950 705 871 c 0,23,24
 739 850 739 850 764 832 c 0,25,26
 883 753 883 753 953 693 c 128,-1,27
 1023 633 1023 633 1066.5 554 c 128,-1,28
 1110 475 1110 475 1110 370 c 0,29,30
 1110 240 1110 240 1042 150 c 128,-1,31
 974 60 974 60 859 15.5 c 128,-1,32
 744 -29 744 -29 602 -29 c 0,33,34
 488 -29 488 -29 413 -8.5 c 128,-1,35
 338 12 338 12 273 47 c 0,36,37
 227 76 227 76 203 76 c 0,38,39
 184 76 184 76 174 54.5 c 128,-1,40
 164 33 164 33 158 -14 c 1,41,-1
 111 -14 l 1,42,43
 119 114 119 114 119 539 c 1,44,-1
 166 539 l 1,45,46
 180 310 180 310 268 167.5 c 128,-1,47
 356 25 356 25 539 25 c 0,48,49
 612 25 612 25 669.5 51 c 128,-1,50
 727 77 727 77 760 128.5 c 128,-1,51
 793 180 793 180 793 254 c 0,52,53
 793 334 793 334 755.5 398 c 128,-1,54
 718 462 718 462 654.5 514.5 c 128,-1,55
 591 567 591 567 486 635 c 0,56,57
 363 713 363 713 289.5 772.5 c 128,-1,58
 216 832 216 832 168.5 913.5 c 128,-1,59
 121 995 121 995 121 1102 c 0,60,61
 121 1226 121 1226 184 1310 c 128,-1,62
 247 1394 247 1394 351 1435 c 128,-1,63
 455 1476 455 1476 580 1476 c 0,64,0
 687 1476 687 1476 751 1455.5 c 128,-1,1
EndSplineSet
Substitution2: "'c2sc' Capitals to Small Capitals lookup 23 subtable" s.smcp
Substitution2: "'aalt' Access All Alternates lookup 0 subtable" s.smcp
Position2: "'cpsp' Capital Spacing lookup 0 subtable" dx=20 dy=0 dh=20 dv=0
EndChar
StartChar: T
Encoding: 84 84 97
Width: 1368
GlyphClass: 2
Flags: W
AnchorPoint: "Anchor-5" 680 0 basechar 0
AnchorPoint: "Anchor-4" 685 1450 basechar 0
AnchorPoint: "Anchor-3" 0 0 basechar 0
LayerCount: 2
Back
Fore
SplineSet
1300 1102 m 0,1,2
 1300 1003 1300 1003 1306 946 c 1,3,-1
 1259 946 l 1,4,5
 1225 1118 1225 1118 1176 1217.5 c 128,-1,6
 1127 1317 1127 1317 1058 1360 c 128,-1,7
 989 1403 989 1403 891 1403 c 2,8,-1
 846 1403 l 1,9,-1
 846 234 l 2,10,11
 846 148 846 148 863 109 c 128,-1,12
 880 70 880 70 924.5 56 c 128,-1,13
 969 42 969 42 1065 41 c 1,14,-1
 1065 0 l 1,15,16
 891 6 891 6 675 6 c 0,17,18
 463 6 463 6 301 0 c 1,19,-1
 301 41 l 1,20,21
 397 42 397 42 441.5 56 c 128,-1,22
 486 70 486 70 503 109 c 128,-1,23
 520 148 520 148 520 234 c 2,24,-1
 520 1403 l 1,25,-1
 475 1403 l 2,26,27
 376 1403 376 1403 307.5 1360 c 128,-1,28
 239 1317 239 1317 190 1217.5 c 128,-1,29
 141 1118 141 1118 106 946 c 1,30,-1
 59 946 l 1,31,32
 65 1003 65 1003 65 1102 c 0,33,34
 65 1255 65 1255 51 1450 c 1,35,36
 236 1444 236 1444 684 1444 c 0,37,38
 1130 1444 1130 1444 1315 1450 c 1,39,0
 1300 1260 1300 1260 1300 1102 c 0,1,2
EndSplineSet
Substitution2: "'c2sc' Capitals to Small Capitals lookup 23 subtable" t.smcp
Substitution2: "'aalt' Access All Alternates lookup 0 subtable" t.smcp
Position2: "'cpsp' Capital Spacing lookup 0 subtable" dx=20 dy=0 dh=20 dv=0
EndChar
StartChar: U
Encoding: 85 85 102
Width: 1410
GlyphClass: 2
Flags: W
AnchorPoint: "Anchor-5" 782 0 basechar 0
AnchorPoint: "Anchor-4" 732 1450 basechar 0
AnchorPoint: "Anchor-3" 934 0 basechar 0
LayerCount: 2
Back
Fore
SplineSet
1274 1374.5 m 128,-1,1
 1242 1349 1242 1349 1230.5 1296 c 128,-1,2
 1219 1243 1219 1243 1219 1139 c 2,3,-1
 1219 596 l 2,4,5
 1219 453 1219 453 1200 345.5 c 128,-1,6
 1181 238 1181 238 1135 162 c 0,7,8
 1081 71 1081 71 977 21 c 128,-1,9
 873 -29 873 -29 721 -29 c 0,10,11
 482 -29 482 -29 352 75 c 0,12,13
 287 127 287 127 252 195.5 c 128,-1,14
 217 264 217 264 204 357 c 128,-1,15
 191 450 191 450 191 590 c 2,16,-1
 191 1233 l 2,17,18
 191 1310 191 1310 179.5 1345 c 128,-1,19
 168 1380 168 1380 137 1393 c 128,-1,20
 106 1406 106 1406 37 1409 c 1,21,-1
 37 1450 l 1,22,23
 142 1444 142 1444 358 1444 c 0,24,25
 568 1444 568 1444 682 1450 c 1,26,-1
 682 1409 l 1,27,28
 608 1406 608 1406 574.5 1393 c 128,-1,29
 541 1380 541 1380 528.5 1345 c 128,-1,30
 516 1310 516 1310 516 1233 c 2,31,-1
 516 460 l 2,32,33
 516 317 516 317 542 226.5 c 128,-1,34
 568 136 568 136 630 89.5 c 128,-1,35
 692 43 692 43 799 43 c 0,36,37
 1003 43 1003 43 1087.5 181 c 128,-1,38
 1172 319 1172 319 1172 573 c 2,39,-1
 1172 1114 l 2,40,41
 1172 1233 1172 1233 1157.5 1290.5 c 128,-1,42
 1143 1348 1143 1348 1102 1374 c 128,-1,43
 1061 1400 1061 1400 973 1409 c 1,44,-1
 973 1450 l 1,45,46
 1053 1444 1053 1444 1194 1444 c 0,47,48
 1309 1444 1309 1444 1372 1450 c 1,49,-1
 1372 1409 l 1,50,0
 1306 1400 1306 1400 1274 1374.5 c 128,-1,1
EndSplineSet
Substitution2: "'c2sc' Capitals to Small Capitals lookup 23 subtable" u.smcp
Substitution2: "'aalt' Access All Alternates lookup 0 subtable" u.smcp
Position2: "'cpsp' Capital Spacing lookup 0 subtable" dx=20 dy=0 dh=20 dv=0
EndChar
StartChar: V
Encoding: 86 86 113
Width: 1368
GlyphClass: 2
Flags: W
LayerCount: 2
Back
Fore
SplineSet
1388 1450 m 1,1,-1
 1388 1409 l 1,2,3
 1338 1389 1338 1389 1288.5 1330.5 c 128,-1,4
 1239 1272 1239 1272 1201 1166 c 2,5,-1
 768 -4 l 1,6,7
 724 -2 724 -2 697 -2 c 256,8,9
 670 -2 670 -2 626 -4 c 1,10,-1
 104 1278 l 2,11,12
 53 1405 53 1405 -25 1409 c 1,13,-1
 -25 1450 l 1,14,15
 98 1444 98 1444 287 1444 c 0,16,17
 498 1444 498 1444 598 1450 c 1,18,-1
 598 1409 l 1,19,20
 521 1406 521 1406 487.5 1390.5 c 128,-1,21
 454 1375 454 1375 454 1333 c 0,22,23
 454 1299 454 1299 478 1237 c 2,24,-1
 840 320 l 1,25,-1
 1092 1000 l 2,26,27
 1149 1155 1149 1155 1149 1248 c 0,28,29
 1149 1331 1149 1331 1105.5 1369 c 128,-1,30
 1062 1407 1062 1407 977 1409 c 1,31,-1
 977 1450 l 1,32,33
 1115 1444 1115 1444 1232 1444 c 0,34,0
 1327 1444 1327 1444 1388 1450 c 1,1,-1
EndSplineSet
Substitution2: "'c2sc' Capitals to Small Capitals lookup 23 subtable" v.smcp
Substitution2: "'aalt' Access All Alternates lookup 0 subtable" v.smcp
Position2: "'cpsp' Capital Spacing lookup 0 subtable" dx=20 dy=0 dh=20 dv=0
EndChar
StartChar: W
Encoding: 87 87 114
Width: 1982
GlyphClass: 2
Flags: W
AnchorPoint: "Anchor-5" 0 0 basechar 0
AnchorPoint: "Anchor-4" 1025 1450 basechar 0
AnchorPoint: "Anchor-3" 0 0 basechar 0
LayerCount: 2
Back
Fore
SplineSet
1994 1450 m 1,1,-1
 1994 1409 l 1,2,3
 1942 1389 1942 1389 1894.5 1331 c 128,-1,4
 1847 1273 1847 1273 1815 1166 c 2,5,-1
 1454 -4 l 1,6,7
 1410 -2 1410 -2 1382 -2 c 0,8,9
 1356 -2 1356 -2 1312 -4 c 1,10,-1
 1010 907 l 1,11,-1
 706 -4 l 1,12,13
 662 -2 662 -2 634 -2 c 0,14,15
 608 -2 608 -2 564 -4 c 1,16,-1
 105 1278 l 2,17,18
 80 1346 80 1346 45.5 1376.5 c 128,-1,19
 11 1407 11 1407 -24 1409 c 1,20,-1
 -24 1450 l 1,21,22
 97 1444 97 1444 281 1444 c 0,23,24
 452 1444 452 1444 533 1450 c 1,25,-1
 533 1409 l 1,26,27
 461 1399 461 1399 461 1329 c 0,28,29
 461 1291 461 1291 480 1237 c 2,30,-1
 777 371 l 1,31,-1
 986 980 l 1,32,-1
 880 1299 l 2,33,34
 860 1358 860 1358 832.5 1382 c 128,-1,35
 805 1406 805 1406 769 1409 c 1,36,-1
 769 1450 l 1,37,38
 881 1444 881 1444 1061 1444 c 0,39,40
 1259 1444 1259 1444 1356 1450 c 1,41,-1
 1356 1409 l 1,42,43
 1280 1406 1280 1406 1248 1391.5 c 128,-1,44
 1216 1377 1216 1377 1216 1333 c 0,45,46
 1216 1299 1216 1299 1237 1237 c 2,47,-1
 1518 380 l 1,48,-1
 1713 1000 l 2,49,50
 1759 1148 1759 1148 1759 1238 c 0,51,52
 1759 1327 1759 1327 1715 1367 c 128,-1,53
 1671 1407 1671 1407 1583 1409 c 1,54,-1
 1583 1450 l 1,55,56
 1721 1444 1721 1444 1838 1444 c 0,57,0
 1932 1444 1932 1444 1994 1450 c 1,1,-1
EndSplineSet
Substitution2: "'c2sc' Capitals to Small Capitals lookup 23 subtable" w.smcp
Substitution2: "'aalt' Access All Alternates lookup 0 subtable" w.smcp
Position2: "'cpsp' Capital Spacing lookup 0 subtable" dx=20 dy=0 dh=20 dv=0
EndChar
StartChar: X
Encoding: 88 88 119
Width: 1415
GlyphClass: 2
Flags: W
LayerCount: 2
Back
Fore
SplineSet
1356 83 m 128,-1,1
 1374 63 1374 63 1393 54 c 128,-1,2
 1412 45 1412 45 1440 43 c 1,3,-1
 1440 0 l 1,4,5
 1432 0 1432 0 1402 2 c 0,6,7
 1219 8 1219 8 1160 8 c 0,8,9
 1042 8 1042 8 872 1 c 2,10,-1
 830 0 l 1,11,-1
 830 43 l 1,12,13
 902 43 902 43 933.5 50 c 128,-1,14
 965 57 965 57 965 77 c 0,15,16
 965 91 965 91 950 113 c 2,17,-1
 606 618 l 1,18,-1
 442 394 l 2,19,20
 348 268 348 268 348 180 c 0,21,22
 348 117 348 117 394.5 81.5 c 128,-1,23
 441 46 441 46 523 41 c 1,24,-1
 523 0 l 1,25,26
 406 6 406 6 199 6 c 0,27,28
 76 6 76 6 11 0 c 1,29,-1
 11 41 l 1,30,31
 151 87 151 87 307 291 c 2,32,-1
 579 658 l 1,33,-1
 138 1306 l 2,34,35
 109 1348 109 1348 91 1368 c 128,-1,36
 73 1388 73 1388 54 1397 c 128,-1,37
 35 1406 35 1406 7 1408 c 1,38,-1
 7 1451 l 1,39,40
 16 1451 16 1451 46 1449 c 0,41,42
 235 1443 235 1443 299 1443 c 0,43,44
 429 1443 429 1443 613 1451 c 1,45,-1
 613 1408 l 1,46,47
 544 1408 544 1408 513 1399 c 128,-1,48
 482 1390 482 1390 482 1369 c 0,49,50
 482 1353 482 1353 498 1330 c 2,51,-1
 803 885 l 1,52,-1
 954 1089 l 1,53,54
 1051 1212 1051 1212 1051 1296 c 0,55,56
 1051 1347 1051 1347 1012.5 1375.5 c 128,-1,57
 974 1404 974 1404 902 1409 c 1,58,-1
 902 1450 l 1,59,60
 1018 1444 1018 1444 1159 1444 c 0,61,62
 1283 1444 1283 1444 1348 1450 c 1,63,-1
 1348 1409 l 1,64,65
 1284 1390 1284 1390 1217 1333 c 128,-1,66
 1150 1276 1150 1276 1090 1195 c 2,67,-1
 828 847 l 1,68,-1
 1309 145 l 2,69,0
 1338 103 1338 103 1356 83 c 128,-1,1
EndSplineSet
Substitution2: "'c2sc' Capitals to Small Capitals lookup 23 subtable" x.smcp
Substitution2: "'aalt' Access All Alternates lookup 0 subtable" x.smcp
Position2: "'cpsp' Capital Spacing lookup 0 subtable" dx=20 dy=0 dh=20 dv=0
EndChar
StartChar: Y
Encoding: 89 89 120
Width: 1275
GlyphClass: 2
Flags: W
AnchorPoint: "Anchor-5" 0 0 basechar 0
AnchorPoint: "Anchor-4" 677 1450 basechar 0
AnchorPoint: "Anchor-3" 0 0 basechar 0
LayerCount: 2
Back
Fore
SplineSet
1263 1451 m 1,1,-1
 1263 1410 l 1,2,3
 1168 1373 1168 1373 1067 1174 c 2,4,-1
 825 694 l 1,5,-1
 825 217 l 2,6,7
 825 140 825 140 836.5 105 c 128,-1,8
 848 70 848 70 879 57 c 128,-1,9
 910 44 910 44 978 41 c 1,10,-1
 978 0 l 1,11,12
 869 6 869 6 663 6 c 0,13,14
 446 6 446 6 345 0 c 1,15,-1
 345 41 l 1,16,17
 414 44 414 44 445 57 c 128,-1,18
 476 70 476 70 487.5 105 c 128,-1,19
 499 140 499 140 499 217 c 2,20,-1
 499 565 l 1,21,-1
 105 1294 l 2,22,23
 42 1408 42 1408 -14 1408 c 1,24,-1
 -14 1451 l 1,25,26
 106 1441 106 1441 228 1441 c 0,27,28
 418 1441 418 1441 613 1451 c 1,29,-1
 613 1408 l 1,30,31
 540 1408 540 1408 499 1395.5 c 128,-1,32
 458 1383 458 1383 458 1347 c 0,33,34
 458 1328 458 1328 471 1302 c 2,35,-1
 783 704 l 1,36,-1
 942 1022 l 2,37,38
 1023 1183 1023 1183 1023 1274 c 0,39,40
 1023 1405 1023 1405 852 1410 c 1,41,-1
 852 1451 l 1,42,43
 992 1445 992 1445 1107 1445 c 0,44,0
 1202 1445 1202 1445 1263 1451 c 1,1,-1
EndSplineSet
Substitution2: "'c2sc' Capitals to Small Capitals lookup 23 subtable" y.smcp
Substitution2: "'aalt' Access All Alternates lookup 0 subtable" y.smcp
Position2: "'cpsp' Capital Spacing lookup 0 subtable" dx=20 dy=0 dh=20 dv=0
EndChar
StartChar: Z
Encoding: 90 90 125
Width: 1232
GlyphClass: 2
Flags: W
AnchorPoint: "Anchor-5" 626 0 basechar 0
AnchorPoint: "Anchor-4" 618 1450 basechar 0
AnchorPoint: "Anchor-3" 0 0 basechar 0
LayerCount: 2
Back
Fore
SplineSet
427 47 m 1,0,-1
 652 47 l 2,1,2
 753 47 753 47 844.5 90.5 c 128,-1,3
 936 134 936 134 1001.5 233.5 c 128,-1,4
 1067 333 1067 333 1084 492 c 1,5,-1
 1131 492 l 1,6,7
 1125 422 1125 422 1125 311 c 0,8,9
 1125 132 1125 132 1139 0 c 1,10,11
 987 6 987 6 629 6 c 0,12,13
 249 6 249 6 79 0 c 1,14,-1
 79 41 l 1,15,-1
 793 1403 l 1,16,-1
 559 1403 l 2,17,18
 392 1403 392 1403 284.5 1306.5 c 128,-1,19
 177 1210 177 1210 150 983 c 1,20,-1
 103 983 l 1,21,22
 109 1040 109 1040 109 1139 c 0,23,24
 109 1281 109 1281 94 1450 c 1,25,26
 231 1444 231 1444 555 1444 c 0,27,28
 960 1444 960 1444 1139 1450 c 1,29,-1
 1139 1409 l 1,30,-1
 427 47 l 1,0,-1
EndSplineSet
Substitution2: "'c2sc' Capitals to Small Capitals lookup 23 subtable" z.smcp
Substitution2: "'aalt' Access All Alternates lookup 0 subtable" z.smcp
Position2: "'cpsp' Capital Spacing lookup 0 subtable" dx=20 dy=0 dh=20 dv=0
EndChar
StartChar: bracketleft
Encoding: 91 91 640
Width: 660
Flags: W
LayerCount: 2
Back
Fore
SplineSet
465 1542 m 1,0,-1
 465 -332 l 1,1,-1
 582 -332 l 1,2,-1
 582 -371 l 1,3,-1
 170 -371 l 1,4,-1
 170 1581 l 1,5,-1
 582 1581 l 1,6,-1
 582 1542 l 1,7,-1
 465 1542 l 1,0,-1
EndSplineSet
Substitution2: "'case' Case-Sensitive Forms lookup 25 subtable" bracketleft.case
Substitution2: "'smcp' Lowercase to Small Capitals lookup 24 subtable" bracketleft.smcp
Substitution2: "'c2sc' Capitals to Small Capitals lookup 23 subtable" bracketleft.smcp
AlternateSubs2: "'aalt' Access All Alternates lookup 1 subtable" bracketleft.smcp bracketleft.case
EndChar
StartChar: asciicircum
Encoding: 94 94 761
Width: 1083
Flags: W
LayerCount: 2
Back
Fore
SplineSet
730 846.5 m 128,-1,1
 839 734 839 734 966 664 c 1,2,-1
 950 635 l 1,3,4
 820 666 820 666 697 713 c 128,-1,5
 574 760 574 760 500 807 c 1,6,7
 437 760 437 760 336.5 713 c 128,-1,8
 236 666 236 666 131 635 c 1,9,-1
 115 664 l 1,10,11
 241 733 241 733 349.5 845.5 c 128,-1,12
 458 958 458 958 522 1081 c 1,13,-1
 559 1081 l 1,14,0
 621 959 621 959 730 846.5 c 128,-1,1
EndSplineSet
Substitution2: "'case' Case-Sensitive Forms lookup 25 subtable" asciicircum.case
Substitution2: "'smcp' Lowercase to Small Capitals lookup 24 subtable" asciicircum.smcp
Substitution2: "'c2sc' Capitals to Small Capitals lookup 23 subtable" asciicircum.smcp
AlternateSubs2: "'aalt' Access All Alternates lookup 1 subtable" asciicircum.smcp asciicircum.case
EndChar
StartChar: grave
Encoding: 96 96 799
Width: 457
Flags: W
LayerCount: 2
Back
Fore
SplineSet
122 1700 m 0,1,2
 181 1700 181 1700 221 1652 c 0,3,4
 244 1625 244 1625 259.5 1593 c 128,-1,5
 275 1561 275 1561 299 1499 c 0,6,7
 357 1350 357 1350 415 1245 c 1,8,-1
 392 1227 l 1,9,10
 306 1306 306 1306 174 1403 c 0,11,12
 122 1441 122 1441 95 1462.5 c 128,-1,13
 68 1484 68 1484 47 1511 c 0,14,15
 15 1550 15 1550 15 1596 c 0,16,17
 15 1644 15 1644 51 1674 c 0,18,0
 81 1700 81 1700 122 1700 c 0,1,2
EndSplineSet
Substitution2: "'case' Case-Sensitive Forms lookup 25 subtable" grave.case
Substitution2: "'smcp' Lowercase to Small Capitals lookup 24 subtable" grave.smcp
Substitution2: "'c2sc' Capitals to Small Capitals lookup 23 subtable" grave.smcp
AlternateSubs2: "'aalt' Access All Alternates lookup 1 subtable" grave.smcp grave.case
EndChar
StartChar: a
Encoding: 97 97 134
Width: 1060
GlyphClass: 2
Flags: W
AnchorPoint: "Anchor-5" 0 0 basechar 0
AnchorPoint: "Anchor-4" 532 1053 basechar 0
AnchorPoint: "Anchor-3" 952 0 basechar 0
LayerCount: 2
Back
Fore
SplineSet
715 1066.5 m 128,-1,1
 789 1045 789 1045 837 996 c 0,2,3
 880 952 880 952 895 887.5 c 128,-1,4
 910 823 910 823 910 709 c 2,5,-1
 910 152 l 2,6,7
 910 102 910 102 919.5 81.5 c 128,-1,8
 929 61 929 61 954 61 c 0,9,10
 973 61 973 61 990 70 c 128,-1,11
 1007 79 1007 79 1029 96 c 1,12,-1
 1050 61 l 1,13,14
 1002 22 1002 22 947 4 c 128,-1,15
 892 -14 892 -14 816 -14 c 0,16,17
 711 -14 711 -14 665.5 32 c 128,-1,18
 620 78 620 78 619 152 c 1,19,20
 569 69 569 69 488.5 27.5 c 128,-1,21
 408 -14 408 -14 317 -14 c 0,22,23
 200 -14 200 -14 129 47.5 c 128,-1,24
 58 109 58 109 58 219 c 0,25,26
 58 326 58 326 128 395.5 c 128,-1,27
 198 465 198 465 346 520 c 0,28,29
 361 525 361 525 371 530 c 0,30,31
 460 563 460 563 507.5 585 c 128,-1,32
 555 607 555 607 585 636 c 128,-1,33
 615 665 615 665 615 704 c 2,34,-1
 615 864 l 2,35,36
 615 949 615 949 575 998 c 128,-1,37
 535 1047 535 1047 448 1047 c 0,38,39
 408 1047 408 1047 368 1034.5 c 128,-1,40
 328 1022 328 1022 302 997 c 1,41,42
 359 978 359 978 391 937 c 128,-1,43
 423 896 423 896 423 836 c 0,44,45
 423 772 423 772 377 730.5 c 128,-1,46
 331 689 331 689 256 689 c 0,47,48
 190 689 190 689 150.5 733.5 c 128,-1,49
 111 778 111 778 111 847 c 0,50,51
 111 951 111 951 226 1018 c 0,52,53
 351 1088 351 1088 537 1088 c 0,54,0
 641 1088 641 1088 715 1066.5 c 128,-1,1
573.5 576 m 128,-1,56
 545 554 545 554 488 519 c 1,57,58
 423 471 423 471 386 415.5 c 128,-1,59
 349 360 349 360 349 276 c 0,60,61
 349 195 349 195 384 156 c 128,-1,62
 419 117 419 117 477 117 c 0,63,64
 556 117 556 117 615 200 c 1,65,-1
 615 620 l 1,66,55
 602 598 602 598 573.5 576 c 128,-1,56
EndSplineSet
Substitution2: "Single Substitution lookup 29 subtable" ordfeminine
Substitution2: "'smcp' Lowercase to Small Capitals lookup 24 subtable" a.smcp
AlternateSubs2: "'aalt' Access All Alternates lookup 1 subtable" ordfeminine a.smcp
EndChar
StartChar: b
Encoding: 98 98 145
Width: 1200
GlyphClass: 2
Flags: W
LayerCount: 2
Back
Fore
SplineSet
943.5 1029 m 128,-1,1
 1027 970 1027 970 1074.5 850.5 c 128,-1,2
 1122 731 1122 731 1122 557 c 0,3,4
 1122 353 1122 353 1059.5 222 c 128,-1,5
 997 91 997 91 891.5 31 c 128,-1,6
 786 -29 786 -29 653 -29 c 0,7,8
 512 -29 512 -29 424 42 c 1,9,10
 413 43 413 43 391 43 c 0,11,12
 324 43 324 43 260 21.5 c 128,-1,13
 196 0 196 0 160 -33 c 1,14,-1
 129 -15 l 1,15,16
 143 32 143 32 143 100 c 2,17,-1
 143 1357 l 2,18,19
 143 1451 143 1451 113.5 1494 c 128,-1,20
 84 1537 84 1537 12 1537 c 1,21,-1
 12 1580 l 1,22,23
 77 1574 77 1574 139 1574 c 0,24,25
 319 1574 319 1574 438 1602 c 1,26,-1
 438 892 l 1,27,28
 481 987 481 987 563 1037.5 c 128,-1,29
 645 1088 645 1088 752 1088 c 0,30,0
 860 1088 860 1088 943.5 1029 c 128,-1,1
813 529 m 0,32,33
 813 781 813 781 766.5 890.5 c 128,-1,34
 720 1000 720 1000 630 1000 c 0,35,36
 564 1000 564 1000 509.5 951.5 c 128,-1,37
 455 903 455 903 438 821 c 1,38,-1
 438 69 l 1,39,40
 504 15 504 15 590 15 c 0,41,31
 813 15 813 15 813 529 c 0,32,33
EndSplineSet
Substitution2: "'smcp' Lowercase to Small Capitals lookup 24 subtable" b.smcp
Substitution2: "'aalt' Access All Alternates lookup 0 subtable" b.smcp
EndChar
StartChar: c
Encoding: 99 99 146
Width: 1016
GlyphClass: 2
Flags: W
AnchorPoint: "Anchor-5" 557 0 basechar 0
AnchorPoint: "Anchor-4" 548 1053 basechar 0
AnchorPoint: "Anchor-3" 0 0 basechar 0
LayerCount: 2
Back
Fore
SplineSet
724 1071 m 128,-1,1
 791 1054 791 1054 837 1025 c 0,2,3
 890 993 890 993 920 943.5 c 128,-1,4
 950 894 950 894 950 834 c 0,5,6
 950 761 950 761 904.5 715 c 128,-1,7
 859 669 859 669 788 669 c 0,8,9
 715 669 715 669 672.5 710.5 c 128,-1,10
 630 752 630 752 630 821 c 0,11,12
 630 883 630 883 668.5 928 c 128,-1,13
 707 973 707 973 765 989 c 1,14,15
 749 1010 749 1010 715.5 1024 c 128,-1,16
 682 1038 682 1038 642 1038 c 0,17,18
 559 1038 559 1038 500.5 975.5 c 128,-1,19
 442 913 442 913 412.5 803.5 c 128,-1,20
 383 694 383 694 383 553 c 0,21,22
 383 403 383 403 421 310.5 c 128,-1,23
 459 218 459 218 519.5 179 c 128,-1,24
 580 140 580 140 654 140 c 0,25,26
 724 140 724 140 795 177 c 128,-1,27
 866 214 866 214 922 307 c 1,28,-1
 958 294 l 1,29,30
 932 210 932 210 880 137 c 128,-1,31
 828 64 828 64 744.5 17.5 c 128,-1,32
 661 -29 661 -29 551 -29 c 0,33,34
 413 -29 413 -29 305.5 30.5 c 128,-1,35
 198 90 198 90 136 214.5 c 128,-1,36
 74 339 74 339 74 524 c 0,37,38
 74 704 74 704 139 831 c 128,-1,39
 204 958 204 958 318.5 1023 c 128,-1,40
 433 1088 433 1088 580 1088 c 0,41,0
 657 1088 657 1088 724 1071 c 128,-1,1
EndSplineSet
Substitution2: "'smcp' Lowercase to Small Capitals lookup 24 subtable" c.smcp
Substitution2: "'aalt' Access All Alternates lookup 0 subtable" c.smcp
EndChar
StartChar: d
Encoding: 100 100 152
Width: 1224
GlyphClass: 2
Flags: W
LayerCount: 2
Back
Fore
SplineSet
1084.5 87 m 128,-1,1
 1114 44 1114 44 1186 44 c 1,2,-1
 1186 1 l 1,3,4
 1122 7 1122 7 1059 7 c 0,5,6
 880 7 880 7 760 -21 c 1,7,-1
 760 152 l 1,8,9
 688 -29 688 -29 494 -29 c 0,10,11
 369 -29 369 -29 275 31.5 c 128,-1,12
 181 92 181 92 128.5 218 c 128,-1,13
 76 344 76 344 76 534 c 0,14,15
 76 714 76 714 134.5 839 c 128,-1,16
 193 964 193 964 296.5 1026 c 128,-1,17
 400 1088 400 1088 534 1088 c 0,18,19
 683 1088 683 1088 760 1011 c 1,20,-1
 760 1357 l 2,21,22
 760 1452 760 1452 730.5 1495 c 128,-1,23
 701 1538 701 1538 629 1538 c 1,24,-1
 629 1581 l 1,25,26
 694 1575 694 1575 756 1575 c 0,27,28
 936 1575 936 1575 1055 1603 c 1,29,-1
 1055 224 l 2,30,0
 1055 130 1055 130 1084.5 87 c 128,-1,1
695 106.5 m 128,-1,32
 746 153 746 153 760 232 c 1,33,-1
 760 960 l 1,34,35
 707 1029 707 1029 611 1029 c 0,36,37
 503 1029 503 1029 444 904 c 128,-1,38
 385 779 385 779 386 530 c 0,39,40
 385 279 385 279 435 169.5 c 128,-1,41
 485 60 485 60 579 60 c 0,42,31
 644 60 644 60 695 106.5 c 128,-1,32
EndSplineSet
Substitution2: "'smcp' Lowercase to Small Capitals lookup 24 subtable" d.smcp
Substitution2: "'aalt' Access All Alternates lookup 0 subtable" d.smcp
EndChar
StartChar: e
Encoding: 101 101 156
Width: 1033
GlyphClass: 2
Flags: W
AnchorPoint: "Anchor-5" 551 0 basechar 0
AnchorPoint: "Anchor-4" 565 1053 basechar 0
AnchorPoint: "Anchor-3" 711 0 basechar 0
LayerCount: 2
Back
Fore
SplineSet
920 304 m 1,1,-1
 957 290 l 1,2,3
 931 207 931 207 876.5 134.5 c 128,-1,4
 822 62 822 62 738 16.5 c 128,-1,5
 654 -29 654 -29 547 -29 c 0,6,7
 406 -29 406 -29 300 31 c 128,-1,8
 194 91 194 91 134.5 214 c 128,-1,9
 75 337 75 337 75 519 c 0,10,11
 75 704 75 704 138.5 832 c 128,-1,12
 202 960 202 960 315 1024 c 128,-1,13
 428 1088 428 1088 576 1088 c 0,14,15
 961 1088 961 1088 961 633 c 1,16,-1
 388 633 l 1,17,18
 384 593 384 593 384 536 c 0,19,20
 384 401 384 401 422 312 c 128,-1,21
 460 223 460 223 521 181.5 c 128,-1,22
 582 140 582 140 651 140 c 0,23,0
 820 140 820 140 920 304 c 1,1,-1
442.5 953 m 128,-1,25
 394 862 394 862 382 672 c 1,26,-1
 703 672 l 1,27,28
 706 832 706 832 670.5 938 c 128,-1,29
 635 1044 635 1044 564 1044 c 0,30,24
 491 1044 491 1044 442.5 953 c 128,-1,25
EndSplineSet
Substitution2: "'smcp' Lowercase to Small Capitals lookup 24 subtable" e.smcp
Substitution2: "'aalt' Access All Alternates lookup 0 subtable" e.smcp
EndChar
StartChar: f
Encoding: 102 102 166
Width: 720
GlyphClass: 2
Flags: W
LayerCount: 2
Back
Fore
SplineSet
808 1534 m 0,1,2
 839 1508 839 1508 858.5 1468.5 c 128,-1,3
 878 1429 878 1429 878 1381 c 0,4,5
 878 1343 878 1343 859.5 1310 c 128,-1,6
 841 1277 841 1277 808 1257.5 c 128,-1,7
 775 1238 775 1238 733 1238 c 0,8,9
 663 1238 663 1238 620 1277.5 c 128,-1,10
 577 1317 577 1317 577 1384 c 0,11,12
 577 1438 577 1438 608 1478.5 c 128,-1,13
 639 1519 639 1519 697 1536 c 1,14,15
 681 1565 681 1565 623 1565 c 0,16,17
 548 1565 548 1565 512 1511 c 0,18,19
 491 1480 491 1480 482.5 1421 c 128,-1,20
 474 1362 474 1362 474 1244 c 2,21,-1
 474 1058 l 1,22,-1
 693 1058 l 1,23,-1
 693 1017 l 1,24,-1
 474 1017 l 1,25,-1
 474 211 l 2,26,27
 474 116 474 116 522 79.5 c 128,-1,28
 570 43 570 43 667 43 c 1,29,-1
 667 0 l 1,30,31
 655 0 655 0 611 2 c 0,32,33
 383 8 383 8 314 8 c 0,34,35
 260 8 260 8 86 2 c 0,36,37
 56 0 56 0 48 0 c 1,38,-1
 48 43 l 1,39,40
 97 43 97 43 125.5 56 c 128,-1,41
 154 69 154 69 166.5 101 c 128,-1,42
 179 133 179 133 179 190 c 2,43,-1
 179 1017 l 1,44,-1
 40 1017 l 1,45,-1
 40 1058 l 1,46,-1
 179 1058 l 1,47,48
 179 1180 179 1180 191.5 1260 c 128,-1,49
 204 1340 204 1340 231.5 1396 c 128,-1,50
 259 1452 259 1452 308 1499 c 0,51,52
 355 1545 355 1545 430 1573.5 c 128,-1,53
 505 1602 505 1602 589 1602 c 0,54,0
 717 1602 717 1602 808 1534 c 0,1,2
EndSplineSet
Substitution2: "'smcp' Lowercase to Small Capitals lookup 24 subtable" f.smcp
Substitution2: "'aalt' Access All Alternates lookup 0 subtable" f.smcp
EndChar
StartChar: g
Encoding: 103 103 167
Width: 1112
GlyphClass: 2
Flags: W
AnchorPoint: "Anchor-5" 0 0 basechar 0
AnchorPoint: "Anchor-4" 544 1053 basechar 0
AnchorPoint: "Anchor-3" 0 0 basechar 0
LayerCount: 2
Back
Fore
SplineSet
1009.5 210.5 m 128,-1,1
 1086 159 1086 159 1086 42 c 0,2,3
 1086 -62 1086 -62 1020 -160.5 c 128,-1,4
 954 -259 954 -259 820 -322 c 128,-1,5
 686 -385 686 -385 493 -385 c 0,6,7
 344 -385 344 -385 242 -361.5 c 128,-1,8
 140 -338 140 -338 89.5 -298 c 128,-1,9
 39 -258 39 -258 39 -208 c 0,10,11
 39 -169 39 -169 62 -143.5 c 128,-1,12
 85 -118 85 -118 118.5 -103 c 128,-1,13
 152 -88 152 -88 210 -70 c 0,14,15
 262 -53 262 -53 292.5 -41 c 128,-1,16
 323 -29 323 -29 349 -11 c 1,17,-1
 301 -11 l 2,18,19
 217 -11 217 -11 144.5 30.5 c 128,-1,20
 72 72 72 72 72 179 c 0,21,22
 72 238 72 238 97 285.5 c 128,-1,23
 122 333 122 333 179 377 c 128,-1,24
 236 421 236 421 333 467 c 1,25,26
 226 502 226 502 167 576 c 128,-1,27
 108 650 108 650 108 762 c 0,28,29
 108 925 108 925 228.5 1006.5 c 128,-1,30
 349 1088 349 1088 548 1088 c 0,31,32
 628 1088 628 1088 701 1074 c 1,33,34
 698 1127 698 1127 708 1175 c 1,35,36
 718 1261 718 1261 766.5 1312.5 c 128,-1,37
 815 1364 815 1364 902 1364 c 0,38,39
 968 1364 968 1364 1009.5 1330 c 128,-1,40
 1051 1296 1051 1296 1051 1239 c 0,41,42
 1051 1187 1051 1187 1011 1153.5 c 128,-1,43
 971 1120 971 1120 911 1120 c 0,44,45
 849 1120 849 1120 814 1148.5 c 128,-1,46
 779 1177 779 1177 758 1235 c 1,47,48
 737 1199 737 1199 728 1131 c 0,49,50
 727 1121 727 1121 727 1101 c 0,51,52
 727 1079 727 1079 728 1068 c 1,53,54
 851 1037 851 1037 920 960.5 c 128,-1,55
 989 884 989 884 989 762 c 0,56,57
 989 653 989 653 932.5 580 c 128,-1,58
 876 507 876 507 777 471.5 c 128,-1,59
 678 436 678 436 548 436 c 0,60,61
 447 436 447 436 371 456 c 1,62,63
 310 420 310 420 282 393 c 128,-1,64
 254 366 254 366 254 330 c 0,65,66
 254 262 254 262 338 262 c 2,67,-1
 809 262 l 2,68,0
 933 262 933 262 1009.5 210.5 c 128,-1,1
445.5 985 m 128,-1,70
 411 919 411 919 411 762 c 256,71,72
 411 605 411 605 445.5 539 c 128,-1,73
 480 473 480 473 548 473 c 256,74,75
 616 473 616 473 650.5 539 c 128,-1,76
 685 605 685 605 685 762 c 256,77,78
 685 919 685 919 650.5 985 c 128,-1,79
 616 1051 616 1051 548 1051 c 256,80,69
 480 1051 480 1051 445.5 985 c 128,-1,70
702.5 -319.5 m 128,-1,82
 773 -289 773 -289 815.5 -231.5 c 128,-1,83
 858 -174 858 -174 858 -96 c 0,84,85
 858 -52 858 -52 832.5 -31.5 c 128,-1,86
 807 -11 807 -11 740 -11 c 2,87,-1
 388 -11 l 1,88,89
 355 -43 355 -43 336.5 -89.5 c 128,-1,90
 318 -136 318 -136 318 -173 c 0,91,92
 318 -258 318 -258 382.5 -304 c 128,-1,93
 447 -350 447 -350 548 -350 c 0,94,81
 632 -350 632 -350 702.5 -319.5 c 128,-1,82
EndSplineSet
Substitution2: "'smcp' Lowercase to Small Capitals lookup 24 subtable" g.smcp
Substitution2: "'aalt' Access All Alternates lookup 0 subtable" g.smcp
EndChar
StartChar: h
Encoding: 104 104 173
Width: 1246
GlyphClass: 2
Flags: W
AnchorPoint: "Anchor-5" 0 0 basechar 0
AnchorPoint: "Anchor-4" 304 1581 basechar 0
AnchorPoint: "Anchor-3" 0 0 basechar 0
LayerCount: 2
Back
Fore
SplineSet
798 1088 m 0,1,2
 954 1088 954 1088 1024 1008 c 0,3,4
 1058 969 1058 969 1073 907 c 128,-1,5
 1088 845 1088 845 1088 742 c 2,6,-1
 1088 190 l 2,7,8
 1088 133 1088 133 1101 101 c 128,-1,9
 1114 69 1114 69 1142 56 c 128,-1,10
 1170 43 1170 43 1219 43 c 1,11,-1
 1219 0 l 1,12,-1
 1184 1 l 2,13,14
 1044 8 1044 8 949 8 c 0,15,16
 849 8 849 8 716 1 c 2,17,-1
 683 0 l 1,18,-1
 683 43 l 1,19,20
 725 43 725 43 748.5 56 c 128,-1,21
 772 69 772 69 782.5 101 c 128,-1,22
 793 133 793 133 793 190 c 2,23,-1
 793 827 l 2,24,25
 793 911 793 911 766 954.5 c 128,-1,26
 739 998 739 998 667 998 c 0,27,28
 611 998 611 998 564 967.5 c 128,-1,29
 517 937 517 937 490 883 c 128,-1,30
 463 829 463 829 463 761 c 2,31,-1
 463 190 l 2,32,33
 463 133 463 133 474 101 c 128,-1,34
 485 69 485 69 508.5 56 c 128,-1,35
 532 43 532 43 574 43 c 1,36,-1
 574 0 l 1,37,-1
 542 1 l 2,38,39
 414 8 414 8 320 8 c 0,40,41
 219 8 219 8 74 1 c 2,42,-1
 38 0 l 1,43,-1
 38 43 l 1,44,45
 87 43 87 43 115 56 c 128,-1,46
 143 69 143 69 156 101 c 128,-1,47
 169 133 169 133 169 190 c 2,48,-1
 169 1357 l 2,49,50
 169 1451 169 1451 139.5 1494 c 128,-1,51
 110 1537 110 1537 38 1537 c 1,52,-1
 38 1580 l 1,53,54
 103 1574 103 1574 164 1574 c 0,55,56
 344 1574 344 1574 463 1602 c 1,57,-1
 463 898 l 1,58,0
 556 1088 556 1088 798 1088 c 0,1,2
EndSplineSet
Substitution2: "'smcp' Lowercase to Small Capitals lookup 24 subtable" h.smcp
Substitution2: "'aalt' Access All Alternates lookup 0 subtable" h.smcp
EndChar
StartChar: j
Encoding: 106 106 188
Width: 608
GlyphClass: 2
Flags: W
AnchorPoint: "Anchor-5" 0 0 basechar 0
AnchorPoint: "Anchor-4" 314 1053 basechar 0
AnchorPoint: "Anchor-3" 0 0 basechar 0
LayerCount: 2
Back
Fore
SplineSet
442.5 1541.5 m 128,-1,1
 493 1499 493 1499 493 1425 c 0,2,3
 493 1352 493 1352 442.5 1309.5 c 128,-1,4
 392 1267 392 1267 307 1267 c 0,5,6
 221 1267 221 1267 170.5 1309.5 c 128,-1,7
 120 1352 120 1352 120 1425 c 0,8,9
 120 1499 120 1499 170 1541.5 c 128,-1,10
 220 1584 220 1584 307 1584 c 0,11,0
 392 1584 392 1584 442.5 1541.5 c 128,-1,1
437 -90 m 128,-1,13
 408 -200 408 -200 335 -274 c 0,14,15
 229 -385 229 -385 4 -385 c 0,16,17
 -104 -385 -104 -385 -178 -348 c 0,18,19
 -216 -328 -216 -328 -237.5 -294.5 c 128,-1,20
 -259 -261 -259 -261 -259 -220 c 0,21,22
 -259 -157 -259 -157 -214.5 -119.5 c 128,-1,23
 -170 -82 -170 -82 -96 -82 c 0,24,25
 -25 -82 -25 -82 16 -115.5 c 128,-1,26
 57 -149 57 -149 57 -213 c 0,27,28
 57 -256 57 -256 31.5 -291 c 128,-1,29
 6 -326 6 -326 -45 -345 c 1,30,31
 -21 -348 -21 -348 2 -348 c 0,32,33
 42 -348 42 -348 76 -333 c 128,-1,34
 110 -318 110 -318 130 -290 c 0,35,36
 155 -253 155 -253 163 -181 c 128,-1,37
 171 -109 171 -109 171 45 c 2,38,-1
 171 836 l 2,39,40
 171 931 171 931 141.5 974 c 128,-1,41
 112 1017 112 1017 40 1017 c 1,42,-1
 40 1060 l 1,43,44
 115 1053 115 1053 167 1053 c 0,45,46
 343 1053 343 1053 466 1082 c 1,47,-1
 466 193 l 2,48,12
 466 20 466 20 437 -90 c 128,-1,13
EndSplineSet
Substitution2: "'smcp' Lowercase to Small Capitals lookup 24 subtable" j.smcp
Substitution2: "'aalt' Access All Alternates lookup 0 subtable" j.smcp
EndChar
StartChar: k
Encoding: 107 107 191
Width: 1199
GlyphClass: 2
Flags: W
AnchorPoint: "Anchor-5" 659 0 basechar 0
AnchorPoint: "Anchor-4" 385 1602 basechar 0
AnchorPoint: "Anchor-3" 0 0 basechar 0
LayerCount: 2
Back
Fore
SplineSet
1140.5 78.5 m 128,-1,1
 1163 54 1163 54 1195 43 c 1,2,-1
 1195 0 l 1,3,-1
 1168 1 l 2,4,5
 1058 8 1058 8 980 8 c 0,6,7
 885 8 885 8 750 1 c 2,8,-1
 715 0 l 1,9,-1
 715 43 l 1,10,11
 745 43 745 43 761 53 c 128,-1,12
 777 63 777 63 777 81 c 0,13,14
 777 93 777 93 767 113 c 2,15,-1
 564 479 l 2,16,17
 543 514 543 514 520.5 527 c 128,-1,18
 498 540 498 540 463 542 c 1,19,-1
 463 190 l 2,20,21
 463 133 463 133 475 101 c 128,-1,22
 487 69 487 69 513.5 56 c 128,-1,23
 540 43 540 43 586 43 c 1,24,-1
 586 0 l 1,25,-1
 553 1 l 2,26,27
 420 8 420 8 321 8 c 0,28,29
 219 8 219 8 74 1 c 2,30,-1
 38 0 l 1,31,-1
 38 43 l 1,32,33
 87 43 87 43 115 56 c 128,-1,34
 143 69 143 69 156 101 c 128,-1,35
 169 133 169 133 169 190 c 2,36,-1
 169 1357 l 2,37,38
 169 1452 169 1452 139.5 1495 c 128,-1,39
 110 1538 110 1538 38 1538 c 1,40,-1
 38 1581 l 1,41,42
 102 1575 102 1575 164 1575 c 0,43,44
 344 1575 344 1575 463 1603 c 1,45,-1
 463 583 l 1,46,47
 542 589 542 589 587 634 c 2,48,-1
 742 786 l 2,49,50
 811 854 811 854 811 910 c 0,51,52
 811 957 811 957 766.5 986 c 128,-1,53
 722 1015 722 1015 652 1019 c 1,54,-1
 652 1060 l 1,55,56
 785 1053 785 1053 892 1053 c 0,57,58
 1048 1053 1048 1053 1132 1060 c 1,59,-1
 1132 1019 l 1,60,61
 1007 991 1007 991 876 860 c 2,62,-1
 744 723 l 1,63,-1
 1088 150 l 2,64,0
 1118 103 1118 103 1140.5 78.5 c 128,-1,1
EndSplineSet
Substitution2: "'smcp' Lowercase to Small Capitals lookup 24 subtable" k.smcp
Substitution2: "'aalt' Access All Alternates lookup 0 subtable" k.smcp
EndChar
StartChar: l
Encoding: 108 108 194
Width: 637
GlyphClass: 2
Flags: W
AnchorPoint: "Anchor-5" 316 0 basechar 0
AnchorPoint: "Anchor-4" 316 1581 basechar 0
AnchorPoint: "Anchor-3" 0 0 basechar 0
LayerCount: 2
Back
Fore
SplineSet
478 101 m 128,-1,1
 491 69 491 69 519 56 c 128,-1,2
 547 43 547 43 596 43 c 1,3,-1
 596 0 l 1,4,-1
 561 1 l 2,5,6
 421 8 421 8 323 8 c 0,7,8
 266 8 266 8 77 2 c 0,9,10
 47 0 47 0 39 0 c 1,11,-1
 39 43 l 1,12,13
 88 43 88 43 116.5 56 c 128,-1,14
 145 69 145 69 157.5 101 c 128,-1,15
 170 133 170 133 170 190 c 2,16,-1
 170 1357 l 2,17,18
 170 1452 170 1452 140.5 1495 c 128,-1,19
 111 1538 111 1538 39 1538 c 1,20,-1
 39 1581 l 1,21,22
 104 1575 104 1575 166 1575 c 0,23,24
 346 1575 346 1575 465 1603 c 1,25,-1
 465 190 l 2,26,0
 465 133 465 133 478 101 c 128,-1,1
EndSplineSet
Substitution2: "'smcp' Lowercase to Small Capitals lookup 24 subtable" l.smcp
Substitution2: "'aalt' Access All Alternates lookup 0 subtable" l.smcp
EndChar
StartChar: m
Encoding: 109 109 200
Width: 1853
GlyphClass: 2
Flags: W
LayerCount: 2
Back
Fore
SplineSet
1708 101 m 128,-1,1
 1721 69 1721 69 1749 56 c 128,-1,2
 1777 43 1777 43 1826 43 c 1,3,-1
 1826 0 l 1,4,-1
 1791 1 l 2,5,6
 1651 8 1651 8 1556 8 c 0,7,8
 1462 8 1462 8 1334 1 c 2,9,-1
 1302 0 l 1,10,-1
 1302 43 l 1,11,12
 1339 43 1339 43 1360 56 c 128,-1,13
 1381 69 1381 69 1390.5 101 c 128,-1,14
 1400 133 1400 133 1400 190 c 2,15,-1
 1400 827 l 2,16,17
 1400 912 1400 912 1374.5 955 c 128,-1,18
 1349 998 1349 998 1278 998 c 0,19,20
 1229 998 1229 998 1186 969.5 c 128,-1,21
 1143 941 1143 941 1114.5 892 c 128,-1,22
 1086 843 1086 843 1078 784 c 1,23,-1
 1079 742 l 1,24,-1
 1079 190 l 2,25,26
 1079 132 1079 132 1090 100.5 c 128,-1,27
 1101 69 1101 69 1126.5 56 c 128,-1,28
 1152 43 1152 43 1197 43 c 1,29,-1
 1197 0 l 1,30,-1
 1166 1 l 2,31,32
 1033 8 1033 8 939 8 c 256,33,34
 845 8 845 8 717 1 c 2,35,-1
 685 0 l 1,36,-1
 685 43 l 1,37,38
 722 43 722 43 743.5 56 c 128,-1,39
 765 69 765 69 774.5 101 c 128,-1,40
 784 133 784 133 784 190 c 2,41,-1
 784 827 l 2,42,43
 784 913 784 913 761.5 955.5 c 128,-1,44
 739 998 739 998 674 998 c 0,45,46
 620 998 620 998 574 967 c 128,-1,47
 528 936 528 936 501.5 881.5 c 128,-1,48
 475 827 475 827 475 761 c 2,49,-1
 475 190 l 2,50,51
 475 132 475 132 484.5 100.5 c 128,-1,52
 494 69 494 69 515 56 c 128,-1,53
 536 43 536 43 573 43 c 1,54,-1
 573 0 l 1,55,-1
 542 1 l 2,56,57
 418 8 418 8 331 8 c 0,58,59
 230 8 230 8 85 1 c 2,60,-1
 49 0 l 1,61,-1
 49 43 l 1,62,63
 98 43 98 43 126 56 c 128,-1,64
 154 69 154 69 167 101 c 128,-1,65
 180 133 180 133 180 190 c 2,66,-1
 180 836 l 2,67,68
 180 931 180 931 150.5 974 c 128,-1,69
 121 1017 121 1017 49 1017 c 1,70,-1
 49 1060 l 1,71,72
 124 1053 124 1053 176 1053 c 0,73,74
 350 1053 350 1053 475 1082 c 1,75,-1
 475 897 l 1,76,77
 521 995 521 995 603.5 1041.5 c 128,-1,78
 686 1088 686 1088 792 1088 c 0,79,80
 946 1088 946 1088 1016 1008 c 0,81,82
 1055 963 1055 963 1068 886 c 1,83,84
 1165 1088 1165 1088 1408 1088 c 0,85,86
 1562 1088 1562 1088 1632 1008 c 0,87,88
 1666 970 1666 970 1680.5 907.5 c 128,-1,89
 1695 845 1695 845 1695 742 c 2,90,-1
 1695 190 l 2,91,0
 1695 133 1695 133 1708 101 c 128,-1,1
EndSplineSet
Substitution2: "'smcp' Lowercase to Small Capitals lookup 24 subtable" m.smcp
Substitution2: "'aalt' Access All Alternates lookup 0 subtable" m.smcp
EndChar
StartChar: n
Encoding: 110 110 201
Width: 1257
GlyphClass: 2
Flags: W
AnchorPoint: "Anchor-5" 662 0 basechar 0
AnchorPoint: "Anchor-4" 641 1053 basechar 0
AnchorPoint: "Anchor-3" 0 0 basechar 0
LayerCount: 2
Back
Fore
SplineSet
1035 1008 m 0,1,2
 1069 969 1069 969 1084 907 c 128,-1,3
 1099 845 1099 845 1099 742 c 2,4,-1
 1099 190 l 2,5,6
 1099 133 1099 133 1112 101 c 128,-1,7
 1125 69 1125 69 1153 56 c 128,-1,8
 1181 43 1181 43 1230 43 c 1,9,-1
 1230 0 l 1,10,-1
 1195 1 l 2,11,12
 1055 8 1055 8 960 8 c 0,13,14
 860 8 860 8 727 1 c 2,15,-1
 694 0 l 1,16,-1
 694 43 l 1,17,18
 736 43 736 43 759.5 56 c 128,-1,19
 783 69 783 69 793.5 101 c 128,-1,20
 804 133 804 133 804 190 c 2,21,-1
 804 827 l 2,22,23
 804 911 804 911 777 954.5 c 128,-1,24
 750 998 750 998 678 998 c 0,25,26
 621 998 621 998 574.5 967 c 128,-1,27
 528 936 528 936 501.5 881.5 c 128,-1,28
 475 827 475 827 475 761 c 2,29,-1
 475 190 l 2,30,31
 475 133 475 133 485.5 101 c 128,-1,32
 496 69 496 69 519.5 56 c 128,-1,33
 543 43 543 43 585 43 c 1,34,-1
 585 0 l 1,35,-1
 553 1 l 2,36,37
 425 8 425 8 331 8 c 0,38,39
 230 8 230 8 85 1 c 2,40,-1
 49 0 l 1,41,-1
 49 43 l 1,42,43
 98 43 98 43 126 56 c 128,-1,44
 154 69 154 69 167 101 c 128,-1,45
 180 133 180 133 180 190 c 2,46,-1
 180 836 l 2,47,48
 180 931 180 931 150.5 974 c 128,-1,49
 121 1017 121 1017 49 1017 c 1,50,-1
 49 1060 l 1,51,52
 124 1053 124 1053 176 1053 c 0,53,54
 350 1053 350 1053 475 1082 c 1,55,-1
 475 897 l 1,56,57
 568 1088 568 1088 809 1088 c 0,58,0
 965 1088 965 1088 1035 1008 c 0,1,2
EndSplineSet
Substitution2: "'smcp' Lowercase to Small Capitals lookup 24 subtable" n.smcp
Substitution2: "'aalt' Access All Alternates lookup 0 subtable" n.smcp
EndChar
StartChar: o
Encoding: 111 111 208
Width: 1157
GlyphClass: 2
Flags: W
AnchorPoint: "Anchor-5" 578 0 basechar 0
AnchorPoint: "Anchor-4" 581 1053 basechar 0
AnchorPoint: "Anchor-3" 0 0 basechar 0
LayerCount: 2
Back
Fore
SplineSet
945.5 953.5 m 128,-1,1
 1079 819 1079 819 1079 529 c 0,2,3
 1079 238 1079 238 945.5 104.5 c 128,-1,4
 812 -29 812 -29 577 -29 c 0,5,6
 343 -29 343 -29 209.5 104.5 c 128,-1,7
 76 238 76 238 76 529 c 0,8,9
 76 819 76 819 209.5 953.5 c 128,-1,10
 343 1088 343 1088 577 1088 c 0,11,0
 812 1088 812 1088 945.5 953.5 c 128,-1,1
437 919.5 m 128,-1,13
 385 792 385 792 385 529 c 256,14,15
 385 266 385 266 437 139 c 128,-1,16
 489 12 489 12 577 12 c 0,17,18
 666 12 666 12 718 139 c 128,-1,19
 770 266 770 266 770 529 c 256,20,21
 770 792 770 792 718 919.5 c 128,-1,22
 666 1047 666 1047 577 1047 c 0,23,12
 489 1047 489 1047 437 919.5 c 128,-1,13
EndSplineSet
Substitution2: "Single Substitution lookup 29 subtable" ordmasculine
Substitution2: "'smcp' Lowercase to Small Capitals lookup 24 subtable" o.smcp
AlternateSubs2: "'aalt' Access All Alternates lookup 1 subtable" ordmasculine o.smcp
EndChar
StartChar: p
Encoding: 112 112 219
Width: 1228
GlyphClass: 2
Flags: W
LayerCount: 2
Back
Fore
SplineSet
971.5 1030.5 m 128,-1,1
 1054 973 1054 973 1101.5 858 c 128,-1,2
 1149 743 1149 743 1149 577 c 0,3,4
 1149 381 1149 381 1091 245 c 128,-1,5
 1033 109 1033 109 926.5 40 c 128,-1,6
 820 -29 820 -29 675 -29 c 0,7,8
 543 -29 543 -29 465 37 c 1,9,-1
 465 -168 l 2,10,11
 465 -258 465 -258 510.5 -293 c 128,-1,12
 556 -328 556 -328 649 -328 c 1,13,-1
 649 -371 l 1,14,-1
 584 -369 l 2,15,16
 411 -362 411 -362 305 -362 c 0,17,18
 227 -362 227 -362 94 -369 c 0,19,20
 58 -371 58 -371 47 -371 c 1,21,-1
 47 -328 l 1,22,23
 93 -328 93 -328 119.5 -315.5 c 128,-1,24
 146 -303 146 -303 158 -273 c 128,-1,25
 170 -243 170 -243 170 -188 c 2,26,-1
 170 835 l 2,27,28
 170 930 170 930 140.5 972.5 c 128,-1,29
 111 1015 111 1015 39 1015 c 1,30,-1
 39 1058 l 1,31,32
 104 1052 104 1052 166 1052 c 0,33,34
 348 1052 348 1052 465 1081 c 1,35,-1
 465 889 l 1,36,37
 507 986 507 986 590 1037 c 128,-1,38
 673 1088 673 1088 783 1088 c 0,39,0
 889 1088 889 1088 971.5 1030.5 c 128,-1,1
783 157.5 m 128,-1,41
 840 288 840 288 840 537 c 256,42,43
 840 786 840 786 794 893 c 128,-1,44
 748 1000 748 1000 663 1000 c 0,45,46
 593 1000 593 1000 538 952 c 128,-1,47
 483 904 483 904 465 819 c 1,48,-1
 465 82 l 1,49,50
 512 27 512 27 595 27 c 0,51,40
 726 27 726 27 783 157.5 c 128,-1,41
EndSplineSet
Substitution2: "'smcp' Lowercase to Small Capitals lookup 24 subtable" p.smcp
Substitution2: "'aalt' Access All Alternates lookup 0 subtable" p.smcp
EndChar
StartChar: q
Encoding: 113 113 221
Width: 1198
GlyphClass: 2
Flags: W
LayerCount: 2
Back
Fore
SplineSet
1067 -273 m 128,-1,1
 1079 -303 1079 -303 1105 -315.5 c 128,-1,2
 1131 -328 1131 -328 1177 -328 c 1,3,-1
 1177 -371 l 1,4,5
 1168 -371 1168 -371 1132 -369 c 0,6,7
 1001 -362 1001 -362 919 -362 c 0,8,9
 815 -362 815 -362 642 -369 c 2,10,-1
 575 -371 l 1,11,-1
 575 -328 l 1,12,13
 668 -328 668 -328 714 -293 c 128,-1,14
 760 -258 760 -258 760 -168 c 2,15,-1
 760 162 l 1,16,17
 725 68 725 68 657.5 19.5 c 128,-1,18
 590 -29 590 -29 495 -29 c 0,19,20
 374 -29 374 -29 279.5 32 c 128,-1,21
 185 93 185 93 130.5 219 c 128,-1,22
 76 345 76 345 76 534 c 0,23,24
 76 715 76 715 132.5 839.5 c 128,-1,25
 189 964 189 964 289.5 1026 c 128,-1,26
 390 1088 390 1088 524 1088 c 0,27,28
 609 1088 609 1088 670 1069 c 128,-1,29
 731 1050 731 1050 778 1004 c 1,30,31
 850 1001 850 1001 923 1026 c 128,-1,32
 996 1051 996 1051 1038 1092 c 1,33,-1
 1069 1074 l 1,34,35
 1055 1032 1055 1032 1055 959 c 2,36,-1
 1055 -188 l 2,37,0
 1055 -243 1055 -243 1067 -273 c 128,-1,1
694 107.5 m 128,-1,39
 745 155 745 155 760 236 c 1,40,-1
 760 981 l 1,41,42
 700 1045 700 1045 600 1045 c 0,43,44
 385 1045 385 1045 385 530 c 0,45,46
 385 280 385 280 435.5 170 c 128,-1,47
 486 60 486 60 580 60 c 0,48,38
 643 60 643 60 694 107.5 c 128,-1,39
EndSplineSet
Substitution2: "'smcp' Lowercase to Small Capitals lookup 24 subtable" q.smcp
Substitution2: "'aalt' Access All Alternates lookup 0 subtable" q.smcp
EndChar
StartChar: r
Encoding: 114 114 222
Width: 956
GlyphClass: 2
Flags: W
AnchorPoint: "Anchor-5" 352 0 basechar 0
AnchorPoint: "Anchor-4" 487 1053 basechar 0
AnchorPoint: "Anchor-3" 0 0 basechar 0
LayerCount: 2
Back
Fore
SplineSet
857 1061 m 128,-1,1
 899 1034 899 1034 919 991 c 128,-1,2
 939 948 939 948 939 899 c 0,3,4
 939 823 939 823 895.5 775 c 128,-1,5
 852 727 852 727 780 727 c 0,6,7
 709 727 709 727 668 762.5 c 128,-1,8
 627 798 627 798 627 859 c 0,9,10
 627 957 627 957 717 1017 c 1,11,12
 704 1022 704 1022 690 1022 c 0,13,14
 678 1022 678 1022 661 1017 c 0,15,16
 609 1008 609 1008 566 966.5 c 128,-1,17
 523 925 523 925 499 867 c 128,-1,18
 475 809 475 809 475 753 c 2,19,-1
 475 211 l 2,20,21
 475 146 475 146 496 109.5 c 128,-1,22
 517 73 517 73 558 58 c 128,-1,23
 599 43 599 43 667 43 c 1,24,-1
 667 0 l 1,25,26
 656 0 656 0 622 2 c 0,27,28
 409 8 409 8 342 8 c 0,29,30
 236 8 236 8 87 1 c 2,31,-1
 49 0 l 1,32,-1
 49 43 l 1,33,34
 98 43 98 43 126 56 c 128,-1,35
 154 69 154 69 167 101 c 128,-1,36
 180 133 180 133 180 190 c 2,37,-1
 180 836 l 2,38,39
 180 931 180 931 150.5 974 c 128,-1,40
 121 1017 121 1017 49 1017 c 1,41,-1
 49 1060 l 1,42,43
 124 1053 124 1053 176 1053 c 0,44,45
 350 1053 350 1053 475 1082 c 1,46,-1
 475 891 l 1,47,48
 514 978 514 978 586.5 1033 c 128,-1,49
 659 1088 659 1088 752 1088 c 0,50,0
 815 1088 815 1088 857 1061 c 128,-1,1
EndSplineSet
Substitution2: "'smcp' Lowercase to Small Capitals lookup 24 subtable" r.smcp
Substitution2: "'aalt' Access All Alternates lookup 0 subtable" r.smcp
EndChar
StartChar: s
Encoding: 115 115 226
Width: 945
GlyphClass: 2
Flags: W
AnchorPoint: "Anchor-5" 477 0 basechar 0
AnchorPoint: "Anchor-4" 477 1053 basechar 0
AnchorPoint: "Anchor-3" 0 0 basechar 0
LayerCount: 2
Back
Fore
SplineSet
595 1068.5 m 128,-1,1
 660 1049 660 1049 697 1025 c 0,2,3
 719 1011 719 1011 734 1011 c 0,4,5
 772 1011 772 1011 782 1086 c 1,6,-1
 826 1086 l 1,7,8
 817 986 817 986 817 726 c 1,9,-1
 774 726 l 1,10,11
 755 861 755 861 693 952 c 128,-1,12
 631 1043 631 1043 511 1043 c 0,13,14
 450 1043 450 1043 411 1007.5 c 128,-1,15
 372 972 372 972 372 911 c 0,16,17
 372 862 372 862 397.5 821.5 c 128,-1,18
 423 781 423 781 461 748.5 c 128,-1,19
 499 716 499 716 567 667 c 0,20,21
 586 654 586 654 624 626 c 0,22,23
 707 564 707 564 757 517.5 c 128,-1,24
 807 471 807 471 838 411.5 c 128,-1,25
 869 352 869 352 869 275 c 0,26,27
 869 184 869 184 817 115 c 128,-1,28
 765 46 765 46 676 8.5 c 128,-1,29
 587 -29 587 -29 481 -29 c 0,30,31
 368 -29 368 -29 289 14 c 0,32,33
 222 48 222 48 194 57 c 0,34,35
 188 59 188 59 185 59 c 0,36,37
 152 59 152 59 135 -14 c 1,38,-1
 92 -14 l 1,39,40
 100 103 100 103 100 395 c 1,41,-1
 144 395 l 1,42,43
 186 18 186 18 420 18 c 0,44,45
 480 18 480 18 522 54.5 c 128,-1,46
 564 91 564 91 564 164 c 0,47,48
 564 221 564 221 538.5 266 c 128,-1,49
 513 311 513 311 473.5 347 c 128,-1,50
 434 383 434 383 357 443 c 0,51,52
 266 514 266 514 217 560 c 128,-1,53
 168 606 168 606 134 667.5 c 128,-1,54
 100 729 100 729 100 806 c 0,55,56
 100 894 100 894 148 958 c 128,-1,57
 196 1022 196 1022 276.5 1055 c 128,-1,58
 357 1088 357 1088 452 1088 c 0,59,0
 530 1088 530 1088 595 1068.5 c 128,-1,1
EndSplineSet
Substitution2: "'smcp' Lowercase to Small Capitals lookup 24 subtable" s.smcp
Substitution2: "'aalt' Access All Alternates lookup 0 subtable" s.smcp
EndChar
StartChar: t
Encoding: 116 116 233
Width: 720
GlyphClass: 2
Flags: W
AnchorPoint: "Anchor-5" 457 0 basechar 0
AnchorPoint: "Anchor-4" 334 1053 basechar 0
AnchorPoint: "Anchor-3" 0 0 basechar 0
LayerCount: 2
Back
Fore
SplineSet
707 1058 m 1,0,-1
 707 1017 l 1,1,-1
 465 1017 l 1,2,-1
 465 191 l 2,3,4
 465 130 465 130 487 103.5 c 128,-1,5
 509 77 509 77 555 77 c 0,6,7
 641 77 641 77 695 200 c 1,8,-1
 729 181 l 1,9,10
 652 -29 652 -29 449 -29 c 0,11,12
 313 -29 313 -29 244 40 c 0,13,14
 201 83 201 83 185.5 148.5 c 128,-1,15
 170 214 170 214 170 326 c 2,16,-1
 170 1017 l 1,17,-1
 -2 1017 l 1,18,-1
 -2 1058 l 1,19,-1
 170 1058 l 1,20,-1
 170 1329 l 1,21,22
 346 1331 346 1331 465 1395 c 1,23,-1
 465 1058 l 1,24,-1
 707 1058 l 1,0,-1
EndSplineSet
Substitution2: "'smcp' Lowercase to Small Capitals lookup 24 subtable" t.smcp
Substitution2: "'aalt' Access All Alternates lookup 0 subtable" t.smcp
EndChar
StartChar: u
Encoding: 117 117 238
Width: 1240
GlyphClass: 2
Flags: W
AnchorPoint: "Anchor-5" 643 0 basechar 0
AnchorPoint: "Anchor-4" 592 1053 basechar 0
AnchorPoint: "Anchor-3" 1152 0 basechar 0
LayerCount: 2
Back
Fore
SplineSet
1097.5 85 m 128,-1,1
 1127 42 1127 42 1199 42 c 1,2,-1
 1199 -1 l 1,3,4
 1135 5 1135 5 1072 5 c 0,5,6
 892 5 892 5 773 -23 c 1,7,-1
 773 162 l 1,8,9
 680 -29 680 -29 443 -29 c 0,10,11
 292 -29 292 -29 219 52 c 0,12,13
 186 90 186 90 171.5 152.5 c 128,-1,14
 157 215 157 215 157 317 c 2,15,-1
 157 836 l 2,16,17
 157 931 157 931 127.5 974 c 128,-1,18
 98 1017 98 1017 26 1017 c 1,19,-1
 26 1060 l 1,20,21
 101 1053 101 1053 153 1053 c 0,22,23
 327 1053 327 1053 452 1082 c 1,24,-1
 452 233 l 2,25,26
 452 148 452 148 477.5 104.5 c 128,-1,27
 503 61 503 61 574 61 c 0,28,29
 628 61 628 61 673.5 92 c 128,-1,30
 719 123 719 123 746 177.5 c 128,-1,31
 773 232 773 232 773 298 c 2,32,-1
 773 836 l 2,33,34
 773 931 773 931 743.5 974 c 128,-1,35
 714 1017 714 1017 642 1017 c 1,36,-1
 642 1060 l 1,37,38
 717 1053 717 1053 769 1053 c 0,39,40
 945 1053 945 1053 1068 1082 c 1,41,-1
 1068 222 l 2,42,0
 1068 128 1068 128 1097.5 85 c 128,-1,1
EndSplineSet
Substitution2: "'smcp' Lowercase to Small Capitals lookup 24 subtable" u.smcp
Substitution2: "'aalt' Access All Alternates lookup 0 subtable" u.smcp
EndChar
StartChar: v
Encoding: 118 118 249
Width: 1040
GlyphClass: 2
Flags: W
LayerCount: 2
Back
Fore
SplineSet
1038 1060 m 1,1,-1
 1038 1017 l 1,2,3
 996 1006 996 1006 962 966.5 c 128,-1,4
 928 927 928 927 898 841 c 2,5,-1
 598 -4 l 1,6,7
 565 -1 565 -1 531 -1 c 0,8,9
 499 -1 499 -1 464 -4 c 1,10,-1
 100 902 l 2,11,12
 53 1017 53 1017 -19 1017 c 1,13,-1
 -19 1060 l 1,14,15
 118 1049 118 1049 272 1049 c 0,16,17
 409 1049 409 1049 538 1060 c 1,18,-1
 538 1017 l 1,19,20
 492 1017 492 1017 467.5 1014.5 c 128,-1,21
 443 1012 443 1012 426.5 999 c 128,-1,22
 410 986 410 986 410 958 c 0,23,24
 410 936 410 936 420 906 c 2,25,-1
 655 284 l 1,26,-1
 802 691 l 2,27,28
 834 786 834 786 834 854 c 0,29,30
 834 931 834 931 794.5 971.5 c 128,-1,31
 755 1012 755 1012 684 1017 c 1,32,-1
 684 1060 l 1,33,34
 768 1052 768 1052 881 1052 c 0,35,0
 991 1052 991 1052 1038 1060 c 1,1,-1
EndSplineSet
Substitution2: "'smcp' Lowercase to Small Capitals lookup 24 subtable" v.smcp
Substitution2: "'aalt' Access All Alternates lookup 0 subtable" v.smcp
EndChar
StartChar: w
Encoding: 119 119 250
Width: 1611
GlyphClass: 2
Flags: W
AnchorPoint: "Anchor-5" 0 0 basechar 0
AnchorPoint: "Anchor-4" 842 1053 basechar 0
AnchorPoint: "Anchor-3" 0 0 basechar 0
LayerCount: 2
Back
Fore
SplineSet
1613 1060 m 1,1,-1
 1613 1017 l 1,2,3
 1569 1006 1569 1006 1534.5 967 c 128,-1,4
 1500 928 1500 928 1472 841 c 2,5,-1
 1200 -4 l 1,6,7
 1167 -1 1167 -1 1133 -1 c 0,8,9
 1100 -1 1100 -1 1067 -4 c 1,10,-1
 789 756 l 1,11,-1
 562 -4 l 1,12,13
 529 -1 529 -1 496 -1 c 0,14,15
 462 -1 462 -1 429 -4 c 1,16,-1
 105 902 l 2,17,18
 62 1017 62 1017 -14 1017 c 1,19,-1
 -14 1060 l 1,20,21
 112 1047 112 1047 277 1047 c 0,22,23
 392 1047 392 1047 544 1060 c 1,24,-1
 544 1017 l 1,25,26
 499 1017 499 1017 472.5 1013.5 c 128,-1,27
 446 1010 446 1010 430.5 997 c 128,-1,28
 415 984 415 984 415 956 c 0,29,30
 415 936 415 936 426 901 c 2,31,-1
 611 321 l 1,32,-1
 833 1062 l 1,33,-1
 834 1062 l 2,34,35
 868 1059 868 1059 904 1059 c 0,36,37
 944 1059 944 1059 983 1062 c 1,38,-1
 1249 280 l 1,39,-1
 1379 691 l 2,40,41
 1406 778 1406 778 1406 845 c 0,42,43
 1406 1004 1406 1004 1246 1017 c 1,44,-1
 1246 1060 l 1,45,46
 1330 1052 1330 1052 1456 1052 c 0,47,0
 1565 1052 1565 1052 1613 1060 c 1,1,-1
EndSplineSet
Substitution2: "'smcp' Lowercase to Small Capitals lookup 24 subtable" w.smcp
Substitution2: "'aalt' Access All Alternates lookup 0 subtable" w.smcp
EndChar
StartChar: x
Encoding: 120 120 255
Width: 1097
GlyphClass: 2
Flags: W
AnchorPoint: "Anchor-5" 569 0 basechar 0
AnchorPoint: "Anchor-4" 581 1053 basechar 0
AnchorPoint: "Anchor-3" 0 0 basechar 0
LayerCount: 2
Back
Fore
SplineSet
1039.5 73.5 m 128,-1,1
 1064 49 1064 49 1097 43 c 1,2,-1
 1097 0 l 1,3,-1
 1069 1 l 2,4,5
 955 8 955 8 878 8 c 0,6,7
 783 8 783 8 645 1 c 2,8,-1
 611 0 l 1,9,-1
 611 43 l 1,10,11
 642 43 642 43 661.5 54 c 128,-1,12
 681 65 681 65 681 84 c 0,13,14
 681 97 681 97 671 113 c 2,15,-1
 457 431 l 1,16,-1
 386 339 l 2,17,18
 317 249 317 249 317 176 c 0,19,20
 317 119 317 119 357 82.5 c 128,-1,21
 397 46 397 46 466 41 c 1,22,-1
 466 0 l 1,23,24
 346 6 346 6 172 6 c 0,25,26
 87 6 87 6 27 0 c 1,27,-1
 27 41 l 1,28,29
 74 58 74 58 117.5 94.5 c 128,-1,30
 161 131 161 131 215 199 c 2,31,-1
 433 467 l 1,32,-1
 131 914 l 2,33,34
 96 967 96 967 72.5 989 c 128,-1,35
 49 1011 49 1011 17 1017 c 1,36,-1
 17 1060 l 1,37,38
 25 1060 25 1060 57 1058 c 0,39,40
 183 1051 183 1051 260 1051 c 0,41,42
 340 1051 340 1051 464 1058 c 0,43,44
 494 1060 494 1060 502 1060 c 1,45,-1
 502 1017 l 1,46,47
 471 1017 471 1017 452 1006 c 128,-1,48
 433 995 433 995 433 976 c 0,49,50
 433 963 433 963 443 947 c 2,51,-1
 637 659 l 1,52,-1
 715 762 l 2,53,54
 785 853 785 853 785 919 c 0,55,56
 785 962 785 962 753.5 988 c 128,-1,57
 722 1014 722 1014 661 1019 c 1,58,-1
 661 1060 l 1,59,60
 799 1053 799 1053 893 1053 c 0,61,62
 969 1053 969 1053 1037 1060 c 1,63,-1
 1037 1019 l 1,64,65
 952 991 952 991 850 861 c 2,66,-1
 660 624 l 1,67,-1
 982 145 l 2,68,0
 1015 98 1015 98 1039.5 73.5 c 128,-1,1
EndSplineSet
Substitution2: "'smcp' Lowercase to Small Capitals lookup 24 subtable" x.smcp
Substitution2: "'aalt' Access All Alternates lookup 0 subtable" x.smcp
EndChar
StartChar: y
Encoding: 121 121 256
Width: 1063
GlyphClass: 2
Flags: W
AnchorPoint: "Anchor-5" 0 0 basechar 0
AnchorPoint: "Anchor-4" 528 1053 basechar 0
AnchorPoint: "Anchor-3" 0 0 basechar 0
LayerCount: 2
Back
Fore
SplineSet
1050 1060 m 1,1,-1
 1050 1017 l 1,2,3
 1008 1006 1008 1006 973.5 966.5 c 128,-1,4
 939 927 939 927 909 841 c 2,5,-1
 621 32 l 1,6,-1
 542 -188 l 2,7,8
 505 -290 505 -290 453 -334 c 0,9,10
 392 -385 392 -385 274 -385 c 0,11,12
 221 -385 221 -385 170 -367.5 c 128,-1,13
 119 -350 119 -350 85.5 -312.5 c 128,-1,14
 52 -275 52 -275 52 -220 c 0,15,16
 52 -157 52 -157 96.5 -119.5 c 128,-1,17
 141 -82 141 -82 215 -82 c 0,18,19
 285 -82 285 -82 326.5 -115.5 c 128,-1,20
 368 -149 368 -149 368 -212 c 0,21,22
 368 -254 368 -254 341.5 -290 c 128,-1,23
 315 -326 315 -326 266 -343 c 1,24,25
 280 -347 280 -347 313 -347 c 0,26,27
 443 -347 443 -347 499 -184 c 2,28,-1
 533 -85 l 1,29,-1
 99 902 l 2,30,31
 45 1017 45 1017 -28 1017 c 1,32,-1
 -28 1060 l 1,33,34
 101 1047 101 1047 253 1047 c 0,35,36
 385 1047 385 1047 537 1060 c 1,37,-1
 537 1017 l 1,38,39
 494 1017 494 1017 468 1014 c 128,-1,40
 442 1011 442 1011 424.5 998.5 c 128,-1,41
 407 986 407 986 407 959 c 0,42,43
 407 937 407 937 422 901 c 2,44,-1
 673 296 l 1,45,-1
 814 691 l 2,46,47
 847 789 847 789 847 854 c 0,48,49
 847 931 847 931 807 971.5 c 128,-1,50
 767 1012 767 1012 695 1017 c 1,51,-1
 695 1060 l 1,52,53
 779 1052 779 1052 893 1052 c 0,54,0
 1002 1052 1002 1052 1050 1060 c 1,1,-1
EndSplineSet
Substitution2: "'smcp' Lowercase to Small Capitals lookup 24 subtable" y.smcp
Substitution2: "'aalt' Access All Alternates lookup 0 subtable" y.smcp
EndChar
StartChar: z
Encoding: 122 122 261
Width: 970
GlyphClass: 2
Flags: W
AnchorPoint: "Anchor-5" 493 0 basechar 0
AnchorPoint: "Anchor-4" 518 1053 basechar 0
AnchorPoint: "Anchor-3" 0 0 basechar 0
LayerCount: 2
Back
Fore
SplineSet
503 31 m 2,0,1
 635 31 635 31 725 117.5 c 128,-1,2
 815 204 815 204 830 397 c 1,3,-1
 873 397 l 1,4,5
 873 105 873 105 881 -8 c 1,6,7
 716 0 716 0 488 0 c 0,8,9
 287 0 287 0 62 -10 c 1,10,-1
 574 1028 l 1,11,-1
 459 1028 l 2,12,13
 168 1028 168 1028 140 661 c 1,14,-1
 97 661 l 1,15,16
 97 952 97 952 89 1067 c 1,17,18
 248 1058 248 1058 482 1058 c 0,19,20
 661 1058 661 1058 908 1069 c 1,21,-1
 396 31 l 1,22,-1
 503 31 l 2,0,1
EndSplineSet
Substitution2: "'smcp' Lowercase to Small Capitals lookup 24 subtable" z.smcp
Substitution2: "'aalt' Access All Alternates lookup 0 subtable" z.smcp
EndChar
StartChar: braceleft
Encoding: 123 123 638
Width: 683
Flags: W
LayerCount: 2
Back
Fore
SplineSet
550.5 1532 m 128,-1,1
 520 1503 520 1503 507.5 1414 c 128,-1,2
 495 1325 495 1325 495 1128 c 0,3,4
 495 954 495 954 441 848 c 128,-1,5
 387 742 387 742 299.5 690 c 128,-1,6
 212 638 212 638 92 612 c 1,7,8
 212 586 212 586 299 534 c 128,-1,9
 386 482 386 482 440.5 375.5 c 128,-1,10
 495 269 495 269 495 96 c 0,11,12
 495 -108 495 -108 507.5 -198.5 c 128,-1,13
 520 -289 520 -289 550 -317 c 128,-1,14
 580 -345 580 -345 647 -346 c 1,15,-1
 647 -385 l 1,16,17
 477 -385 477 -385 382 -342.5 c 128,-1,18
 287 -300 287 -300 244 -197 c 128,-1,19
 201 -94 201 -94 201 96 c 0,20,21
 201 293 201 293 188 396.5 c 128,-1,22
 175 500 175 500 142 544.5 c 128,-1,23
 109 589 109 589 45 594 c 1,24,-1
 35 594 l 1,25,-1
 35 631 l 1,26,-1
 45 631 l 1,27,28
 109 635 109 635 142 679 c 128,-1,29
 175 723 175 723 188 826.5 c 128,-1,30
 201 930 201 930 201 1128 c 0,31,32
 201 1310 201 1310 244 1412.5 c 128,-1,33
 287 1515 287 1515 383 1558.5 c 128,-1,34
 479 1602 479 1602 647 1602 c 1,35,-1
 647 1563 l 1,36,0
 581 1561 581 1561 550.5 1532 c 128,-1,1
EndSplineSet
Substitution2: "'case' Case-Sensitive Forms lookup 25 subtable" braceleft.case
Substitution2: "'smcp' Lowercase to Small Capitals lookup 24 subtable" braceleft.smcp
Substitution2: "'c2sc' Capitals to Small Capitals lookup 23 subtable" braceleft.smcp
AlternateSubs2: "'aalt' Access All Alternates lookup 1 subtable" braceleft.smcp braceleft.case
EndChar
StartChar: bar
Encoding: 124 124 763
Width: 519
Flags: W
LayerCount: 2
Back
Fore
SplineSet
168 -399 m 1,0,-1
 168 1757 l 1,1,-1
 348 1757 l 1,2,-1
 348 -399 l 1,3,-1
 168 -399 l 1,0,-1
EndSplineSet
EndChar
StartChar: asciitilde
Encoding: 126 126 725
Width: 1368
Flags: W
LayerCount: 2
Back
Fore
SplineSet
574.5 774 m 128,-1,1
 638 751 638 751 729 704 c 0,2,3
 813 659 813 659 874.5 636.5 c 128,-1,4
 936 614 936 614 1005 614 c 0,5,6
 1157 614 1157 614 1214 758 c 1,7,-1
 1250 750 l 1,8,9
 1241 655 1241 655 1196 583 c 128,-1,10
 1151 511 1151 511 1082.5 471.5 c 128,-1,11
 1014 432 1014 432 935 432 c 0,12,13
 860 432 860 432 796.5 455 c 128,-1,14
 733 478 733 478 642 525 c 0,15,16
 556 569 556 569 495.5 591.5 c 128,-1,17
 435 614 435 614 366 614 c 0,18,19
 214 614 214 614 157 471 c 1,20,-1
 121 479 l 1,21,22
 130 574 130 574 175 646 c 128,-1,23
 220 718 220 718 288.5 757.5 c 128,-1,24
 357 797 357 797 436 797 c 0,25,0
 511 797 511 797 574.5 774 c 128,-1,1
EndSplineSet
Substitution2: "'case' Case-Sensitive Forms lookup 25 subtable" asciitilde.case
Substitution2: "'smcp' Lowercase to Small Capitals lookup 24 subtable" asciitilde.smcp
Substitution2: "'c2sc' Capitals to Small Capitals lookup 23 subtable" asciitilde.smcp
AlternateSubs2: "'aalt' Access All Alternates lookup 1 subtable" asciitilde.smcp asciitilde.case
EndChar
StartChar: exclamdown
Encoding: 161 161 678
Width: 566
Flags: W
LayerCount: 2
Back
Fore
SplineSet
411 1046.5 m 128,-1,1
 458 1004 458 1004 458 930 c 0,2,3
 458 857 458 857 411 814.5 c 128,-1,4
 364 772 364 772 283 772 c 0,5,6
 203 772 203 772 156 814.5 c 128,-1,7
 109 857 109 857 109 930 c 0,8,9
 109 1004 109 1004 156 1046.5 c 128,-1,10
 203 1089 203 1089 283 1089 c 0,11,0
 364 1089 364 1089 411 1046.5 c 128,-1,1
328 405 m 128,-1,13
 351 284 351 284 391 121 c 0,14,15
 421 -1 421 -1 435 -69.5 c 128,-1,16
 449 -138 449 -138 449 -192 c 0,17,18
 449 -286 449 -286 403 -335.5 c 128,-1,19
 357 -385 357 -385 282 -385 c 256,20,21
 207 -385 207 -385 160 -334.5 c 128,-1,22
 113 -284 113 -284 113 -192 c 0,23,24
 113 -140 113 -140 126 -75.5 c 128,-1,25
 139 -11 139 -11 170 118 c 0,26,27
 211 280 211 280 234.5 403 c 128,-1,28
 258 526 258 526 263 651 c 1,29,-1
 300 651 l 1,30,12
 305 526 305 526 328 405 c 128,-1,13
EndSplineSet
Substitution2: "'case' Case-Sensitive Forms lookup 25 subtable" exclamdown.case
Substitution2: "'smcp' Lowercase to Small Capitals lookup 24 subtable" exclamdown.smcp
Substitution2: "'c2sc' Capitals to Small Capitals lookup 23 subtable" exclamdown.smcp
AlternateSubs2: "'aalt' Access All Alternates lookup 1 subtable" exclamdown.smcp exclamdown.case
EndChar
StartChar: cent
Encoding: 162 162 717
Width: 1021
Flags: W
LayerCount: 2
Back
Fore
SplineSet
874 141 m 128,-1,1
 824 70 824 70 745 22.5 c 128,-1,2
 666 -25 666 -25 561 -29 c 1,3,-1
 561 -371 l 1,4,-1
 516 -371 l 1,5,-1
 516 -28 l 1,6,7
 385 -23 385 -23 283 38.5 c 128,-1,8
 181 100 181 100 123 222.5 c 128,-1,9
 65 345 65 345 65 524 c 0,10,11
 65 693 65 693 122 815 c 128,-1,12
 179 937 179 937 281 1005.5 c 128,-1,13
 383 1074 383 1074 516 1086 c 1,14,-1
 516 1450 l 1,15,-1
 561 1450 l 1,16,-1
 561 1088 l 1,17,-1
 571 1088 l 2,18,19
 648 1088 648 1088 715 1071 c 128,-1,20
 782 1054 782 1054 828 1025 c 0,21,22
 881 993 881 993 911 943.5 c 128,-1,23
 941 894 941 894 941 834 c 0,24,25
 941 761 941 761 895.5 715 c 128,-1,26
 850 669 850 669 779 669 c 0,27,28
 706 669 706 669 663.5 710.5 c 128,-1,29
 621 752 621 752 621 821 c 0,30,31
 621 883 621 883 659.5 928 c 128,-1,32
 698 973 698 973 756 989 c 1,33,34
 740 1010 740 1010 706.5 1024 c 128,-1,35
 673 1038 673 1038 633 1038 c 0,36,37
 595 1038 595 1038 561 1024 c 1,38,-1
 561 154 l 1,39,40
 599 140 599 140 645 140 c 0,41,42
 715 140 715 140 786 177 c 128,-1,43
 857 214 857 214 913 307 c 1,44,-1
 949 294 l 1,45,0
 924 212 924 212 874 141 c 128,-1,1
516 176 m 1,47,-1
 516 998 l 1,48,49
 447 943 447 943 410.5 826.5 c 128,-1,50
 374 710 374 710 374 553 c 0,51,46
 374 265 374 265 516 176 c 1,47,-1
EndSplineSet
Substitution2: "'smcp' Lowercase to Small Capitals lookup 24 subtable" cent.smcp
Substitution2: "'c2sc' Capitals to Small Capitals lookup 23 subtable" cent.smcp
Substitution2: "'aalt' Access All Alternates lookup 0 subtable" cent.smcp
EndChar
StartChar: sterling
Encoding: 163 163 722
Width: 1352
Flags: W
LayerCount: 2
Back
Fore
SplineSet
1153.5 470 m 128,-1,1
 1213 436 1213 436 1250 379.5 c 128,-1,2
 1287 323 1287 323 1287 248 c 0,3,4
 1287 122 1287 122 1208 46.5 c 128,-1,5
 1129 -29 1129 -29 978 -29 c 0,6,7
 900 -29 900 -29 833 -8.5 c 128,-1,8
 766 12 766 12 667 54 c 0,9,10
 570 96 570 96 515 111 c 0,11,12
 449 127 449 127 414 127 c 0,13,14
 357 127 357 127 302 106 c 1,15,16
 259 40 259 40 209.5 5.5 c 128,-1,17
 160 -29 160 -29 112 -29 c 0,18,19
 66 -29 66 -29 66 4 c 0,20,21
 66 25 66 25 88.5 49.5 c 128,-1,22
 111 74 111 74 151.5 96 c 128,-1,23
 192 118 192 118 244 131 c 1,24,25
 264 188 264 188 269.5 252.5 c 128,-1,26
 275 317 275 317 275 442 c 2,27,-1
 275 528 l 1,28,-1
 275 608 l 1,29,-1
 117 608 l 1,30,-1
 117 649 l 1,31,-1
 275 649 l 1,32,-1
 275 813 l 1,33,-1
 117 813 l 1,34,-1
 117 854 l 1,35,-1
 275 854 l 1,36,-1
 275 899 l 2,37,38
 275 1507 275 1507 791 1507 c 0,39,40
 934 1507 934 1507 1016 1458 c 0,41,42
 1063 1430 1063 1430 1089.5 1389.5 c 128,-1,43
 1116 1349 1116 1349 1116 1300 c 0,44,45
 1116 1237 1116 1237 1074.5 1195 c 128,-1,46
 1033 1153 1033 1153 970 1153 c 0,47,48
 905 1153 905 1153 863 1190.5 c 128,-1,49
 821 1228 821 1228 821 1288 c 0,50,51
 821 1341 821 1341 849.5 1381 c 128,-1,52
 878 1421 878 1421 928 1440 c 1,53,54
 913 1454 913 1454 880 1463 c 128,-1,55
 847 1472 847 1472 808 1472 c 0,56,57
 710 1472 710 1472 660 1414.5 c 128,-1,58
 610 1357 610 1357 593 1248 c 128,-1,59
 576 1139 576 1139 576 952 c 2,60,-1
 576 854 l 1,61,-1
 824 854 l 1,62,-1
 824 813 l 1,63,-1
 576 813 l 1,64,-1
 576 691 l 2,65,66
 576 663 576 663 575 649 c 1,67,-1
 824 649 l 1,68,-1
 824 608 l 1,69,-1
 571 608 l 1,70,71
 561 535 561 535 533 471.5 c 128,-1,72
 505 408 505 408 468.5 353.5 c 128,-1,73
 432 299 432 299 368 215 c 0,74,75
 356 198 356 198 343.5 182 c 128,-1,76
 331 166 331 166 320 151 c 1,77,78
 409 225 409 225 483 254 c 128,-1,79
 557 283 557 283 628 283 c 0,80,81
 682 283 682 283 726 274.5 c 128,-1,82
 770 266 770 266 835 248 c 0,83,84
 892 232 892 232 935.5 223.5 c 128,-1,85
 979 215 979 215 1029 215 c 0,86,87
 1093 215 1093 215 1129.5 248.5 c 128,-1,88
 1166 282 1166 282 1166 332 c 0,89,90
 1166 392 1166 392 1126 430.5 c 128,-1,91
 1086 469 1086 469 1016 483 c 1,92,-1
 1025 516 l 1,93,0
 1094 504 1094 504 1153.5 470 c 128,-1,1
EndSplineSet
Substitution2: "'smcp' Lowercase to Small Capitals lookup 24 subtable" sterling.smcp
Substitution2: "'c2sc' Capitals to Small Capitals lookup 23 subtable" sterling.smcp
Substitution2: "'aalt' Access All Alternates lookup 0 subtable" sterling.smcp
EndChar
StartChar: currency
Encoding: 164 164 718
Width: 1260
Flags: W
LayerCount: 2
Back
Fore
SplineSet
1017 827 m 1,0,1
 1075 727 1075 727 1075 614 c 0,2,3
 1075 500 1075 500 1016 401 c 1,4,-1
 1138 281 l 1,5,-1
 964 106 l 1,6,-1
 842 227 l 1,7,8
 742 170 742 170 629 170 c 0,9,10
 511 170 511 170 417 227 c 1,11,-1
 297 106 l 1,12,-1
 122 281 l 1,13,-1
 241 400 l 1,14,15
 183 500 183 500 183 614 c 0,16,17
 183 729 183 729 242 828 c 1,18,-1
 122 949 l 1,19,-1
 296 1123 l 1,20,-1
 416 1002 l 1,21,22
 512 1061 512 1061 629 1061 c 0,23,24
 742 1061 742 1061 843 1001 c 1,25,-1
 965 1123 l 1,26,-1
 1139 949 l 1,27,-1
 1017 827 l 1,0,1
512.5 836 m 128,-1,29
 458 801 458 801 426 742 c 128,-1,30
 394 683 394 683 394 614 c 0,31,32
 394 546 394 546 426 487.5 c 128,-1,33
 458 429 458 429 512.5 394.5 c 128,-1,34
 567 360 567 360 631 360 c 0,35,36
 694 360 694 360 748.5 394.5 c 128,-1,37
 803 429 803 429 835 487.5 c 128,-1,38
 867 546 867 546 867 614 c 256,39,40
 867 682 867 682 835 741.5 c 128,-1,41
 803 801 803 801 748.5 836 c 128,-1,42
 694 871 694 871 631 871 c 0,43,28
 567 871 567 871 512.5 836 c 128,-1,29
EndSplineSet
Substitution2: "'smcp' Lowercase to Small Capitals lookup 24 subtable" currency.smcp
Substitution2: "'c2sc' Capitals to Small Capitals lookup 23 subtable" currency.smcp
Substitution2: "'aalt' Access All Alternates lookup 0 subtable" currency.smcp
EndChar
StartChar: yen
Encoding: 165 165 723
Width: 1388
Flags: W
LayerCount: 2
Back
Fore
SplineSet
1327 1451 m 1,1,-1
 1327 1410 l 1,2,3
 1232 1373 1232 1373 1131 1174 c 2,4,-1
 889 694 l 1,5,-1
 889 620 l 1,6,-1
 1145 620 l 1,7,-1
 1145 579 l 1,8,-1
 889 579 l 1,9,-1
 889 415 l 1,10,-1
 1145 415 l 1,11,-1
 1145 374 l 1,12,-1
 889 374 l 1,13,-1
 889 217 l 2,14,15
 889 140 889 140 900.5 105 c 128,-1,16
 912 70 912 70 943 57 c 128,-1,17
 974 44 974 44 1042 41 c 1,18,-1
 1042 0 l 1,19,20
 932 6 932 6 727 6 c 0,21,22
 509 6 509 6 409 0 c 1,23,-1
 409 41 l 1,24,25
 478 44 478 44 509 57 c 128,-1,26
 540 70 540 70 551.5 105 c 128,-1,27
 563 140 563 140 563 217 c 2,28,-1
 563 374 l 1,29,-1
 307 374 l 1,30,-1
 307 415 l 1,31,-1
 563 415 l 1,32,-1
 563 565 l 1,33,-1
 556 579 l 1,34,-1
 307 579 l 1,35,-1
 307 620 l 1,36,-1
 533 620 l 1,37,-1
 169 1294 l 2,38,39
 106 1408 106 1408 50 1408 c 1,40,-1
 50 1451 l 1,41,42
 170 1441 170 1441 292 1441 c 0,43,44
 482 1441 482 1441 677 1451 c 1,45,-1
 677 1408 l 1,46,47
 604 1408 604 1408 563 1395.5 c 128,-1,48
 522 1383 522 1383 522 1347 c 0,49,50
 522 1328 522 1328 535 1302 c 2,51,-1
 847 704 l 1,52,-1
 1006 1022 l 2,53,54
 1087 1183 1087 1183 1087 1274 c 0,55,56
 1087 1405 1087 1405 916 1410 c 1,57,-1
 916 1451 l 1,58,59
 1056 1445 1056 1445 1171 1445 c 0,60,0
 1265 1445 1265 1445 1327 1451 c 1,1,-1
EndSplineSet
Substitution2: "'smcp' Lowercase to Small Capitals lookup 24 subtable" yen.smcp
Substitution2: "'c2sc' Capitals to Small Capitals lookup 23 subtable" yen.smcp
Substitution2: "'aalt' Access All Alternates lookup 0 subtable" yen.smcp
EndChar
StartChar: brokenbar
Encoding: 166 166 764
Width: 525
Flags: W
LayerCount: 2
Back
Fore
SplineSet
171 786 m 1,0,-1
 171 1757 l 1,1,-1
 352 1757 l 1,2,-1
 352 786 l 1,3,-1
 171 786 l 1,0,-1
171 -399 m 1,4,-1
 171 668 l 1,5,-1
 352 668 l 1,6,-1
 352 -399 l 1,7,-1
 171 -399 l 1,4,-1
EndSplineSet
EndChar
StartChar: section
Encoding: 167 167 773
Width: 1190
Flags: W
LayerCount: 2
Back
Fore
SplineSet
1058 403 m 128,-1,1
 998 320 998 320 862 248 c 1,2,3
 941 179 941 179 978.5 110 c 128,-1,4
 1016 41 1016 41 1016 -43 c 0,5,6
 1016 -145 1016 -145 957.5 -222.5 c 128,-1,7
 899 -300 899 -300 793 -342.5 c 128,-1,8
 687 -385 687 -385 550 -385 c 0,9,10
 410 -385 410 -385 309 -339 c 0,11,12
 173 -274 173 -274 173 -150 c 0,13,14
 173 -111 173 -111 192 -78 c 128,-1,15
 211 -45 211 -45 245.5 -25.5 c 128,-1,16
 280 -6 280 -6 325 -6 c 0,17,18
 394 -6 394 -6 437 -45.5 c 128,-1,19
 480 -85 480 -85 480 -148 c 0,20,21
 480 -199 480 -199 452.5 -240.5 c 128,-1,22
 425 -282 425 -282 376 -299 c 1,23,24
 388 -320 388 -320 436.5 -333 c 128,-1,25
 485 -346 485 -346 536 -346 c 0,26,27
 646 -346 646 -346 698 -291.5 c 128,-1,28
 750 -237 750 -237 750 -159 c 0,29,30
 750 -91 750 -91 719.5 -40 c 128,-1,31
 689 11 689 11 638.5 51.5 c 128,-1,32
 588 92 588 92 490 157 c 0,33,34
 476 167 476 167 422 203 c 0,35,36
 292 291 292 291 221 350 c 128,-1,37
 150 409 150 409 111 476 c 128,-1,38
 72 543 72 543 72 629 c 0,39,40
 72 731 72 731 131 814.5 c 128,-1,41
 190 898 190 898 326 970 c 1,42,43
 248 1039 248 1039 211 1107.5 c 128,-1,44
 174 1176 174 1176 174 1259 c 0,45,46
 174 1362 174 1362 233 1439.5 c 128,-1,47
 292 1517 292 1517 397.5 1559.5 c 128,-1,48
 503 1602 503 1602 640 1602 c 0,49,50
 781 1602 781 1602 882 1556 c 0,51,52
 1017 1491 1017 1491 1017 1366 c 0,53,54
 1017 1328 1017 1328 998.5 1295 c 128,-1,55
 980 1262 980 1262 945.5 1242.5 c 128,-1,56
 911 1223 911 1223 866 1223 c 0,57,58
 797 1223 797 1223 753.5 1262 c 128,-1,59
 710 1301 710 1301 710 1364 c 0,60,61
 710 1415 710 1415 737.5 1456.5 c 128,-1,62
 765 1498 765 1498 814 1516 c 1,63,64
 801 1537 801 1537 753 1550 c 128,-1,65
 705 1563 705 1563 655 1563 c 0,66,67
 545 1563 545 1563 493 1508.5 c 128,-1,68
 441 1454 441 1454 441 1376 c 0,69,70
 441 1307 441 1307 472 1255.5 c 128,-1,71
 503 1204 503 1204 554 1163 c 128,-1,72
 605 1122 605 1122 705 1056 c 2,73,-1
 768 1014 l 2,74,75
 898 926 898 926 969 867 c 128,-1,76
 1040 808 1040 808 1079 740.5 c 128,-1,77
 1118 673 1118 673 1118 587 c 0,78,0
 1118 486 1118 486 1058 403 c 128,-1,1
880.5 350 m 128,-1,80
 897 389 897 389 897 441 c 0,81,82
 897 501 897 501 863.5 551.5 c 128,-1,83
 830 602 830 602 762.5 656 c 128,-1,84
 695 710 695 710 565 795 c 0,85,86
 433 882 433 882 362 939 c 1,87,88
 293 874 293 874 293 776 c 0,89,90
 293 716 293 716 326.5 665 c 128,-1,91
 360 614 360 614 428 560.5 c 128,-1,92
 496 507 496 507 625 422 c 0,93,94
 757 335 757 335 828 278 c 1,95,79
 864 311 864 311 880.5 350 c 128,-1,80
EndSplineSet
Substitution2: "'smcp' Lowercase to Small Capitals lookup 24 subtable" section.smcp
Substitution2: "'c2sc' Capitals to Small Capitals lookup 23 subtable" section.smcp
Substitution2: "'aalt' Access All Alternates lookup 0 subtable" section.smcp
EndChar
StartChar: dieresis
Encoding: 168 168 797
Width: 799
Flags: W
LayerCount: 2
Back
Fore
SplineSet
242 1535.5 m 128,-1,1
 278 1514 278 1514 299.5 1478.5 c 128,-1,2
 321 1443 321 1443 321 1403 c 0,3,4
 321 1361 321 1361 299.5 1325.5 c 128,-1,5
 278 1290 278 1290 242 1269 c 128,-1,6
 206 1248 206 1248 166 1248 c 0,7,8
 124 1248 124 1248 88.5 1269 c 128,-1,9
 53 1290 53 1290 32.5 1325.5 c 128,-1,10
 12 1361 12 1361 12 1403 c 0,11,12
 12 1443 12 1443 33 1478.5 c 128,-1,13
 54 1514 54 1514 89 1535.5 c 128,-1,14
 124 1557 124 1557 166 1557 c 0,15,0
 206 1557 206 1557 242 1535.5 c 128,-1,1
708 1535.5 m 128,-1,17
 744 1514 744 1514 765.5 1478.5 c 128,-1,18
 787 1443 787 1443 787 1403 c 0,19,20
 787 1361 787 1361 765.5 1325.5 c 128,-1,21
 744 1290 744 1290 708 1269 c 128,-1,22
 672 1248 672 1248 632 1248 c 0,23,24
 590 1248 590 1248 554.5 1269 c 128,-1,25
 519 1290 519 1290 498.5 1325.5 c 128,-1,26
 478 1361 478 1361 478 1403 c 0,27,28
 478 1443 478 1443 499 1478.5 c 128,-1,29
 520 1514 520 1514 555 1535.5 c 128,-1,30
 590 1557 590 1557 632 1557 c 0,31,16
 672 1557 672 1557 708 1535.5 c 128,-1,17
EndSplineSet
Substitution2: "'case' Case-Sensitive Forms lookup 25 subtable" dieresis.case
Substitution2: "'smcp' Lowercase to Small Capitals lookup 24 subtable" dieresis.smcp
Substitution2: "'c2sc' Capitals to Small Capitals lookup 23 subtable" dieresis.smcp
AlternateSubs2: "'aalt' Access All Alternates lookup 1 subtable" dieresis.smcp dieresis.case
EndChar
StartChar: copyright
Encoding: 169 169 766
Width: 1804
Flags: W
LayerCount: 2
Back
Fore
SplineSet
1309.5 1492.5 m 128,-1,1
 1497 1383 1497 1383 1606.5 1195.5 c 128,-1,2
 1716 1008 1716 1008 1716 786 c 0,3,4
 1716 565 1716 565 1606.5 377.5 c 128,-1,5
 1497 190 1497 190 1309.5 80.5 c 128,-1,6
 1122 -29 1122 -29 901 -29 c 0,7,8
 679 -29 679 -29 492 80.5 c 128,-1,9
 305 190 305 190 195.5 377.5 c 128,-1,10
 86 565 86 565 86 786 c 0,11,12
 86 1008 86 1008 195.5 1195.5 c 128,-1,13
 305 1383 305 1383 492 1492.5 c 128,-1,14
 679 1602 679 1602 901 1602 c 0,15,0
 1122 1602 1122 1602 1309.5 1492.5 c 128,-1,1
533 1435 m 128,-1,17
 365 1334 365 1334 266.5 1162 c 128,-1,18
 168 990 168 990 168 786 c 0,19,20
 168 583 168 583 266.5 411 c 128,-1,21
 365 239 365 239 533 138 c 128,-1,22
 701 37 701 37 901 37 c 0,23,24
 1100 37 1100 37 1268.5 138 c 128,-1,25
 1437 239 1437 239 1535.5 411 c 128,-1,26
 1634 583 1634 583 1634 786 c 0,27,28
 1634 990 1634 990 1535.5 1162 c 128,-1,29
 1437 1334 1437 1334 1268.5 1435 c 128,-1,30
 1100 1536 1100 1536 901 1536 c 0,31,16
 701 1536 701 1536 533 1435 c 128,-1,17
1093.5 1328 m 128,-1,33
 1162 1310 1162 1310 1207 1280 c 0,34,35
 1257 1248 1257 1248 1286 1200 c 128,-1,36
 1315 1152 1315 1152 1315 1092 c 0,37,38
 1315 1044 1315 1044 1294 1006.5 c 128,-1,39
 1273 969 1273 969 1236.5 948 c 128,-1,40
 1200 927 1200 927 1154 927 c 0,41,42
 1082 927 1082 927 1039 969.5 c 128,-1,43
 996 1012 996 1012 996 1082 c 0,44,45
 996 1143 996 1143 1034.5 1187.5 c 128,-1,46
 1073 1232 1073 1232 1131 1246 c 1,47,48
 1112 1269 1112 1269 1071.5 1284 c 128,-1,49
 1031 1299 1031 1299 987 1299 c 0,50,51
 927 1299 927 1299 880 1262 c 1,52,53
 816 1226 816 1226 782.5 1121 c 128,-1,54
 749 1016 749 1016 749 809 c 0,55,56
 749 646 749 646 787 546 c 128,-1,57
 825 446 825 446 885.5 403.5 c 128,-1,58
 946 361 946 361 1019 361 c 0,59,60
 1189 361 1189 361 1288 565 c 1,61,-1
 1324 552 l 1,62,63
 1298 468 1298 468 1245.5 395 c 128,-1,64
 1193 322 1193 322 1110 275.5 c 128,-1,65
 1027 229 1027 229 917 229 c 0,66,67
 779 229 779 229 671.5 288.5 c 128,-1,68
 564 348 564 348 501.5 472.5 c 128,-1,69
 439 597 439 597 439 782 c 0,70,71
 439 962 439 962 504 1089 c 128,-1,72
 569 1216 569 1216 684 1281 c 128,-1,73
 799 1346 799 1346 947 1346 c 0,74,32
 1025 1346 1025 1346 1093.5 1328 c 128,-1,33
EndSplineSet
EndChar
StartChar: ordfeminine
Encoding: 170 170 421
Width: 988
GlyphClass: 2
Flags: W
LayerCount: 2
Back
Fore
SplineSet
729.5 1417.5 m 128,-1,1
 803 1356 803 1356 803 1219 c 2,2,-1
 803 874 l 2,3,4
 803 845 803 845 812 833 c 128,-1,5
 821 821 821 821 842 821 c 0,6,7
 876 821 876 821 901 844 c 1,8,-1
 924 813 l 1,9,10
 827 737 827 737 690 737 c 0,11,12
 611 737 611 737 577.5 761.5 c 128,-1,13
 544 786 544 786 541 834 c 1,14,15
 441 737 441 737 295 737 c 0,16,17
 207 737 207 737 149.5 777.5 c 128,-1,18
 92 818 92 818 92 898 c 0,19,20
 92 954 92 954 123 992.5 c 128,-1,21
 154 1031 154 1031 214 1059.5 c 128,-1,22
 274 1088 274 1088 377 1120 c 0,23,24
 541 1173 541 1173 541 1235 c 2,25,-1
 541 1272 l 2,26,27
 541 1361 541 1361 509 1400.5 c 128,-1,28
 477 1440 477 1440 414 1440 c 256,29,30
 351 1440 351 1440 303 1409 c 1,31,32
 345 1397 345 1397 368.5 1364 c 128,-1,33
 392 1331 392 1331 392 1292 c 0,34,35
 392 1238 392 1238 351.5 1206 c 128,-1,36
 311 1174 311 1174 254 1174 c 0,37,38
 193 1174 193 1174 156 1206 c 128,-1,39
 119 1238 119 1238 119 1290 c 0,40,41
 119 1337 119 1337 149.5 1373.5 c 128,-1,42
 180 1410 180 1410 230 1432 c 0,43,44
 334 1479 334 1479 492 1479 c 0,45,0
 656 1479 656 1479 729.5 1417.5 c 128,-1,1
516 1139.5 m 128,-1,47
 498 1122 498 1122 458 1094 c 0,48,49
 409 1060 409 1060 387 1022.5 c 128,-1,50
 365 985 365 985 365 938 c 256,51,52
 365 891 365 891 387.5 862.5 c 128,-1,53
 410 834 410 834 444 834 c 0,54,55
 497 834 497 834 541 872 c 1,56,-1
 541 1174 l 1,57,46
 534 1157 534 1157 516 1139.5 c 128,-1,47
EndSplineSet
EndChar
StartChar: guillemotleft
Encoding: 171 171 657
Width: 1166
Flags: W
LayerCount: 2
Back
Fore
SplineSet
519.5 768 m 128,-1,1
 440 616 440 616 358 532 c 1,2,3
 439 448 439 448 519 294.5 c 128,-1,4
 599 141 599 141 648 -20 c 1,5,-1
 617 -31 l 1,6,7
 489 144 489 144 353 278.5 c 128,-1,8
 217 413 217 413 52 517 c 1,9,-1
 52 542 l 1,10,11
 217 645 217 645 352.5 780 c 128,-1,12
 488 915 488 915 617 1091 c 1,13,-1
 648 1080 l 1,14,0
 599 920 599 920 519.5 768 c 128,-1,1
945 747.5 m 128,-1,16
 876 611 876 611 804 532 c 1,17,18
 875 455 875 455 944.5 316 c 128,-1,19
 1014 177 1014 177 1057 29 c 1,20,-1
 1025 18 l 1,21,22
 910 177 910 177 785.5 300.5 c 128,-1,23
 661 424 661 424 510 517 c 1,24,-1
 510 542 l 1,25,26
 660 634 660 634 784.5 757.5 c 128,-1,27
 909 881 909 881 1025 1042 c 1,28,-1
 1057 1031 l 1,29,15
 1014 884 1014 884 945 747.5 c 128,-1,16
EndSplineSet
Substitution2: "'case' Case-Sensitive Forms lookup 25 subtable" guillemotleft.case
Substitution2: "'smcp' Lowercase to Small Capitals lookup 24 subtable" guillemotleft.smcp
Substitution2: "'c2sc' Capitals to Small Capitals lookup 23 subtable" guillemotleft.smcp
AlternateSubs2: "'aalt' Access All Alternates lookup 1 subtable" guillemotleft.smcp guillemotleft.case
EndChar
StartChar: logicalnot
Encoding: 172 172 734
Width: 1314
Flags: W
LayerCount: 2
Back
Fore
SplineSet
1102 338 m 1,0,-1
 1102 696 l 1,1,-1
 150 696 l 1,2,-1
 150 758 l 1,3,-1
 1176 758 l 1,4,-1
 1176 338 l 1,5,-1
 1102 338 l 1,0,-1
EndSplineSet
EndChar
StartChar: registered
Encoding: 174 174 772
Width: 1362
Flags: W
LayerCount: 2
Back
Fore
SplineSet
966 1525 m 128,-1,1
 1097 1448 1097 1448 1174 1316.5 c 128,-1,2
 1251 1185 1251 1185 1251 1030 c 256,3,4
 1251 875 1251 875 1174 744 c 128,-1,5
 1097 613 1097 613 966 536 c 128,-1,6
 835 459 835 459 680 459 c 256,7,8
 525 459 525 459 393.5 536 c 128,-1,9
 262 613 262 613 185 744 c 128,-1,10
 108 875 108 875 108 1030 c 256,11,12
 108 1185 108 1185 185 1316.5 c 128,-1,13
 262 1448 262 1448 393.5 1525 c 128,-1,14
 525 1602 525 1602 680 1602 c 256,15,0
 835 1602 835 1602 966 1525 c 128,-1,1
923.5 592.5 m 128,-1,17
 1035 661 1035 661 1100 777.5 c 128,-1,18
 1165 894 1165 894 1165 1030 c 0,19,20
 1165 1167 1165 1167 1100 1283 c 128,-1,21
 1035 1399 1035 1399 924 1467.5 c 128,-1,22
 813 1536 813 1536 680 1536 c 256,23,24
 547 1536 547 1536 435.5 1467.5 c 128,-1,25
 324 1399 324 1399 259 1283 c 128,-1,26
 194 1167 194 1167 194 1030 c 0,27,28
 194 894 194 894 259 777.5 c 128,-1,29
 324 661 324 661 435.5 592.5 c 128,-1,30
 547 524 547 524 680 524 c 0,31,16
 812 524 812 524 923.5 592.5 c 128,-1,17
918 708 m 0,33,34
 853 708 853 708 819.5 729.5 c 128,-1,35
 786 751 786 751 777 797 c 2,36,-1
 747 946 l 2,37,38
 740 982 740 982 729.5 999.5 c 128,-1,39
 719 1017 719 1017 694 1026.5 c 128,-1,40
 669 1036 669 1036 618 1039 c 1,41,-1
 618 827 l 2,42,43
 618 795 618 795 622 780 c 128,-1,44
 626 765 626 765 635.5 759.5 c 128,-1,45
 645 754 645 754 665 752 c 1,46,-1
 665 721 l 1,47,48
 631 721 631 721 611 722 c 2,49,-1
 536 723 l 1,50,-1
 450 722 l 2,51,52
 430 721 430 721 400 721 c 1,53,-1
 400 752 l 1,54,55
 421 754 421 754 430.5 759.5 c 128,-1,56
 440 765 440 765 444 780 c 128,-1,57
 448 795 448 795 448 827 c 2,58,-1
 448 1276 l 2,59,60
 448 1309 448 1309 444 1324.5 c 128,-1,61
 440 1340 440 1340 430.5 1346 c 128,-1,62
 421 1352 421 1352 400 1354 c 1,63,-1
 400 1384 l 1,64,65
 430 1382 430 1382 528 1382 c 2,66,-1
 656 1383 l 2,67,68
 677 1384 677 1384 704 1384 c 0,69,70
 954 1384 954 1384 954 1223 c 0,71,72
 954 1167 954 1167 906.5 1120.5 c 128,-1,73
 859 1074 859 1074 743 1056 c 1,74,75
 807 1050 807 1050 844.5 1035.5 c 128,-1,76
 882 1021 882 1021 900 997.5 c 128,-1,77
 918 974 918 974 925 936 c 2,78,-1
 955 802 l 2,79,80
 960 777 960 777 966.5 765.5 c 128,-1,81
 973 754 973 754 986 754 c 0,82,83
 1000 754 1000 754 1009 766 c 1,84,-1
 1025 746 l 1,85,32
 993 708 993 708 918 708 c 0,33,34
628.5 1342 m 128,-1,87
 618 1330 618 1330 618 1296 c 2,88,-1
 618 1073 l 1,89,-1
 643 1073 l 2,90,91
 782 1073 782 1073 782 1211 c 0,92,93
 782 1354 782 1354 672 1354 c 0,94,86
 639 1354 639 1354 628.5 1342 c 128,-1,87
EndSplineSet
EndChar
StartChar: degree
Encoding: 176 176 769
Width: 638
Flags: W
LayerCount: 2
Back
Fore
SplineSet
441.5 1649 m 128,-1,1
 499 1619 499 1619 533 1563 c 128,-1,2
 567 1507 567 1507 567 1434 c 0,3,4
 567 1359 567 1359 533 1303 c 128,-1,5
 499 1247 499 1247 441.5 1216.5 c 128,-1,6
 384 1186 384 1186 317 1186 c 0,7,8
 251 1186 251 1186 194 1216.5 c 128,-1,9
 137 1247 137 1247 103 1303.5 c 128,-1,10
 69 1360 69 1360 69 1434 c 0,11,12
 69 1507 69 1507 103 1563 c 128,-1,13
 137 1619 137 1619 194 1649 c 128,-1,14
 251 1679 251 1679 317 1679 c 0,15,0
 384 1679 384 1679 441.5 1649 c 128,-1,1
223.5 1620 m 128,-1,17
 178 1595 178 1595 149 1546.5 c 128,-1,18
 120 1498 120 1498 120 1432 c 0,19,20
 120 1364 120 1364 149 1316 c 128,-1,21
 178 1268 178 1268 223 1244.5 c 128,-1,22
 268 1221 268 1221 317 1221 c 256,23,24
 366 1221 366 1221 411.5 1244.5 c 128,-1,25
 457 1268 457 1268 486.5 1316 c 128,-1,26
 516 1364 516 1364 516 1432 c 0,27,28
 516 1498 516 1498 486.5 1546.5 c 128,-1,29
 457 1595 457 1595 411 1620 c 128,-1,30
 365 1645 365 1645 317 1645 c 256,31,16
 269 1645 269 1645 223.5 1620 c 128,-1,17
EndSplineSet
EndChar
StartChar: twosuperior
Encoding: 178 178 636
Width: 718
Flags: W
LayerCount: 2
Back
Fore
SplineSet
529.5 1507 m 128,-1,1
 592 1468 592 1468 592 1394 c 0,2,3
 592 1342 592 1342 563 1298.5 c 128,-1,4
 534 1255 534 1255 490.5 1221 c 128,-1,5
 447 1187 447 1187 373 1139 c 0,6,7
 286 1080 286 1080 254 1055 c 1,8,-1
 531 1055 l 2,9,10
 562 1055 562 1055 579.5 1062.5 c 128,-1,11
 597 1070 597 1070 606.5 1083.5 c 128,-1,12
 616 1097 616 1097 627 1124 c 1,13,-1
 662 1118 l 1,14,15
 634 983 634 983 631 891 c 1,16,17
 606 897 606 897 553 897 c 2,18,-1
 53 897 l 1,19,-1
 53 938 l 1,20,21
 75 957 75 957 136 1004 c 0,22,23
 218 1066 218 1066 271.5 1114 c 128,-1,24
 325 1162 325 1162 363.5 1225 c 128,-1,25
 402 1288 402 1288 402 1359 c 0,26,27
 402 1410 402 1410 369.5 1437 c 128,-1,28
 337 1464 337 1464 278 1464 c 0,29,30
 164 1464 164 1464 99 1366 c 1,31,-1
 68 1382 l 1,32,33
 164 1546 164 1546 366 1546 c 0,34,0
 467 1546 467 1546 529.5 1507 c 128,-1,1
EndSplineSet
EndChar
StartChar: acute
Encoding: 180 180 791
Width: 457
Flags: W
LayerCount: 2
Back
Fore
SplineSet
440 1595 m 0,1,2
 440 1550 440 1550 408 1511 c 0,3,4
 386 1484 386 1484 358.5 1461.5 c 128,-1,5
 331 1439 331 1439 281 1403 c 0,6,7
 149 1306 149 1306 62 1227 c 1,8,-1
 40 1245 l 1,9,10
 98 1350 98 1350 156 1499 c 0,11,12
 180 1561 180 1561 195.5 1593 c 128,-1,13
 211 1625 211 1625 234 1652 c 0,14,15
 273 1700 273 1700 332 1700 c 0,16,17
 373 1700 373 1700 403 1674 c 0,18,0
 440 1644 440 1644 440 1595 c 0,1,2
EndSplineSet
Substitution2: "'case' Case-Sensitive Forms lookup 25 subtable" acute.case
Substitution2: "'smcp' Lowercase to Small Capitals lookup 24 subtable" acute.smcp
Substitution2: "'c2sc' Capitals to Small Capitals lookup 23 subtable" acute.smcp
Substitution2: "'locl' Localized Forms in Latin lookup 7 subtable" acute.loclPLK
AlternateSubs2: "'aalt' Access All Alternates lookup 1 subtable" acute.loclPLK acute.smcp acute.case
EndChar
StartChar: paragraph
Encoding: 182 182 771
Width: 1499
Flags: W
LayerCount: 2
Back
Fore
SplineSet
1076 1448 m 0,1,2
 1265 1445 1265 1445 1259 1445 c 1,3,4
 1350 1445 1350 1445 1415 1450 c 1,5,-1
 1415 1411 l 1,6,7
 1355 1408 1355 1408 1323.5 1392.5 c 128,-1,8
 1292 1377 1292 1377 1281 1349 c 128,-1,9
 1270 1321 1270 1321 1270 1272 c 2,10,-1
 1270 -154 l 2,11,12
 1270 -231 1270 -231 1281.5 -266 c 128,-1,13
 1293 -301 1293 -301 1324 -314 c 128,-1,14
 1355 -327 1355 -327 1424 -330 c 1,15,-1
 1424 -371 l 1,16,17
 1298 -365 1298 -365 1065 -365 c 0,18,19
 843 -365 843 -365 738 -371 c 1,20,-1
 738 -330 l 1,21,22
 825 -327 825 -327 868.5 -308.5 c 128,-1,23
 912 -290 912 -290 928 -250 c 128,-1,24
 944 -210 944 -210 944 -133 c 2,25,-1
 944 -27 l 1,26,27
 484 -27 484 -27 275 179 c 128,-1,28
 66 385 66 385 66 737 c 0,29,30
 66 946 66 946 161 1108 c 128,-1,31
 256 1270 256 1270 435.5 1361 c 128,-1,32
 615 1452 615 1452 860 1452 c 0,33,0
 940 1452 940 1452 1076 1448 c 0,1,2
916 1258 m 128,-1,35
 895 1173 895 1173 877.5 1039.5 c 128,-1,36
 860 906 860 906 857 762 c 1,37,38
 704 762 704 762 564.5 753.5 c 128,-1,39
 425 745 425 745 336.5 734.5 c 128,-1,40
 248 724 248 724 248 719 c 0,41,42
 248 713 248 713 334.5 703 c 128,-1,43
 421 693 421 693 561 685.5 c 128,-1,44
 701 678 701 678 857 678 c 1,45,46
 860 528 860 528 877.5 395.5 c 128,-1,47
 895 263 895 263 915.5 180.5 c 128,-1,48
 936 98 936 98 946 98 c 1,49,-1
 946 1343 l 1,50,34
 937 1343 937 1343 916 1258 c 128,-1,35
EndSplineSet
Substitution2: "'smcp' Lowercase to Small Capitals lookup 24 subtable" paragraph.smcp
Substitution2: "'c2sc' Capitals to Small Capitals lookup 23 subtable" paragraph.smcp
Substitution2: "'aalt' Access All Alternates lookup 0 subtable" paragraph.smcp
EndChar
StartChar: cedilla
Encoding: 184 184 794
Width: 467
Flags: W
LayerCount: 2
Back
Fore
SplineSet
318 -109 m 0,1,2
 386 -109 386 -109 422.5 -138.5 c 128,-1,3
 459 -168 459 -168 459 -218 c 0,4,5
 459 -301 459 -301 377 -343 c 128,-1,6
 295 -385 295 -385 172 -385 c 0,7,8
 63 -385 63 -385 -7 -360 c 1,9,-1
 4 -323 l 1,10,11
 55 -332 55 -332 94 -332 c 0,12,13
 154 -332 154 -332 199 -311.5 c 128,-1,14
 244 -291 244 -291 244 -248 c 0,15,16
 244 -195 244 -195 175 -195 c 0,17,18
 127 -195 127 -195 95 -209 c 1,19,-1
 159 5 l 1,20,-1
 215 5 l 1,21,-1
 172 -133 l 1,22,0
 238 -109 238 -109 318 -109 c 0,1,2
EndSplineSet
Substitution2: "'case' Case-Sensitive Forms lookup 25 subtable" cedilla.case
Substitution2: "'smcp' Lowercase to Small Capitals lookup 24 subtable" cedilla.smcp
Substitution2: "'c2sc' Capitals to Small Capitals lookup 23 subtable" cedilla.smcp
AlternateSubs2: "'aalt' Access All Alternates lookup 1 subtable" cedilla.smcp cedilla.case
EndChar
StartChar: ordmasculine
Encoding: 186 186 422
Width: 959
GlyphClass: 2
Flags: W
LayerCount: 2
Back
Fore
SplineSet
682.5 1436.5 m 128,-1,1
 773 1394 773 1394 825.5 1310 c 128,-1,2
 878 1226 878 1226 878 1108 c 256,3,4
 878 990 878 990 825.5 906 c 128,-1,5
 773 822 773 822 682.5 779.5 c 128,-1,6
 592 737 592 737 479 737 c 0,7,8
 365 737 365 737 274.5 779.5 c 128,-1,9
 184 822 184 822 131.5 906 c 128,-1,10
 79 990 79 990 79 1108 c 256,11,12
 79 1226 79 1226 131.5 1310 c 128,-1,13
 184 1394 184 1394 274.5 1436.5 c 128,-1,14
 365 1479 365 1479 479 1479 c 0,15,0
 592 1479 592 1479 682.5 1436.5 c 128,-1,1
386.5 1360 m 128,-1,17
 352 1278 352 1278 352 1108 c 256,18,19
 352 938 352 938 386.5 856 c 128,-1,20
 421 774 421 774 479 774 c 0,21,22
 536 774 536 774 570.5 856 c 128,-1,23
 605 938 605 938 605 1108 c 256,24,25
 605 1278 605 1278 570.5 1360 c 128,-1,26
 536 1442 536 1442 479 1442 c 0,27,16
 421 1442 421 1442 386.5 1360 c 128,-1,17
EndSplineSet
EndChar
StartChar: guillemotright
Encoding: 187 187 658
Width: 1165
Flags: W
LayerCount: 2
Back
Fore
SplineSet
810.5 779.5 m 128,-1,1
 947 644 947 644 1111 541 c 1,2,-1
 1111 516 l 1,3,4
 946 413 946 413 810 277.5 c 128,-1,5
 674 142 674 142 547 -32 c 1,6,-1
 516 -21 l 1,7,8
 564 138 564 138 643.5 289 c 128,-1,9
 723 440 723 440 806 526 c 1,10,11
 724 610 724 610 644 764 c 128,-1,12
 564 918 564 918 516 1079 c 1,13,-1
 547 1090 l 1,14,0
 674 915 674 915 810.5 779.5 c 128,-1,1
379.5 757.5 m 128,-1,16
 504 634 504 634 654 541 c 1,17,-1
 654 516 l 1,18,19
 504 423 504 423 379 300 c 128,-1,20
 254 177 254 177 138 17 c 1,21,-1
 107 28 l 1,22,23
 149 174 149 174 218.5 310.5 c 128,-1,24
 288 447 288 447 360 526 c 1,25,26
 289 603 289 603 219 742.5 c 128,-1,27
 149 882 149 882 107 1030 c 1,28,-1
 138 1041 l 1,29,15
 255 881 255 881 379.5 757.5 c 128,-1,16
EndSplineSet
Substitution2: "'case' Case-Sensitive Forms lookup 25 subtable" guillemotright.case
Substitution2: "'smcp' Lowercase to Small Capitals lookup 24 subtable" guillemotright.smcp
Substitution2: "'c2sc' Capitals to Small Capitals lookup 23 subtable" guillemotright.smcp
AlternateSubs2: "'aalt' Access All Alternates lookup 1 subtable" guillemotright.smcp guillemotright.case
EndChar
StartChar: questiondown
Encoding: 191 191 683
Width: 1030
Flags: W
LayerCount: 2
Back
Fore
SplineSet
727 1048.5 m 128,-1,1
 774 1006 774 1006 774 932 c 0,2,3
 774 859 774 859 727 816.5 c 128,-1,4
 680 774 680 774 599 774 c 0,5,6
 519 774 519 774 472 816.5 c 128,-1,7
 425 859 425 859 425 932 c 0,8,9
 425 1006 425 1006 472 1048.5 c 128,-1,10
 519 1091 519 1091 599 1091 c 0,11,0
 680 1091 680 1091 727 1048.5 c 128,-1,1
451.5 272.5 m 128,-1,13
 392 213 392 213 371 145 c 128,-1,14
 350 77 350 77 350 -10 c 0,15,16
 350 -179 350 -179 417.5 -261.5 c 128,-1,17
 485 -344 485 -344 602 -344 c 0,18,19
 730 -344 730 -344 779 -299 c 1,20,21
 665 -263 665 -263 665 -150 c 0,22,23
 665 -85 665 -85 710.5 -43.5 c 128,-1,24
 756 -2 756 -2 828 -2 c 0,25,26
 870 -2 870 -2 903 -21 c 128,-1,27
 936 -40 936 -40 954 -73 c 128,-1,28
 972 -106 972 -106 972 -144 c 0,29,30
 972 -253 972 -253 855 -318 c 0,31,32
 739 -385 739 -385 549 -385 c 0,33,34
 403 -385 403 -385 292 -341.5 c 128,-1,35
 181 -298 181 -298 119.5 -216.5 c 128,-1,36
 58 -135 58 -135 58 -25 c 0,37,38
 58 132 58 132 198.5 240.5 c 128,-1,39
 339 349 339 349 580 397 c 1,40,-1
 580 662 l 1,41,-1
 621 662 l 1,42,-1
 621 379 l 1,43,12
 511 332 511 332 451.5 272.5 c 128,-1,13
EndSplineSet
Substitution2: "'case' Case-Sensitive Forms lookup 25 subtable" questiondown.case
Substitution2: "'smcp' Lowercase to Small Capitals lookup 24 subtable" questiondown.smcp
Substitution2: "'c2sc' Capitals to Small Capitals lookup 23 subtable" questiondown.smcp
AlternateSubs2: "'aalt' Access All Alternates lookup 1 subtable" questiondown.smcp questiondown.case
EndChar
StartChar: AE
Encoding: 198 198 12
Width: 1820
GlyphClass: 2
Flags: W
AnchorPoint: "Anchor-5" 0 0 basechar 0
AnchorPoint: "Anchor-4" 910 1450 basechar 0
AnchorPoint: "Anchor-3" 0 0 basechar 0
LayerCount: 2
Back
Fore
SplineSet
1728 0 m 1,1,2
 1594 6 1594 6 1275 6 c 0,3,4
 885 6 885 6 686 0 c 1,5,-1
 686 41 l 1,6,7
 748 44 748 44 775.5 57 c 128,-1,8
 803 70 803 70 813 105 c 128,-1,9
 823 140 823 140 823 217 c 2,10,-1
 823 709 l 1,11,-1
 480 709 l 1,12,-1
 190 213 l 2,13,14
 153 149 153 149 153 113 c 256,15,16
 153 77 153 77 187.5 60.5 c 128,-1,17
 222 44 222 44 295 41 c 1,18,-1
 295 0 l 1,19,20
 233 6 233 6 108 6 c 0,21,22
 22 6 22 6 -29 0 c 1,23,-1
 -29 41 l 1,24,25
 5 43 5 43 38 72.5 c 128,-1,26
 71 102 71 102 112 172 c 2,27,-1
 808 1354 l 1,28,29
 794 1384 794 1384 764 1395 c 128,-1,30
 734 1406 734 1406 669 1409 c 1,31,-1
 669 1450 l 1,32,33
 729 1448 729 1448 863 1446 c 1,34,-1
 942 1581 l 1,35,-1
 991 1581 l 1,36,-1
 912 1446 l 1,37,38
 1056 1444 1056 1444 1275 1444 c 0,39,40
 1565 1444 1565 1444 1687 1450 c 1,41,42
 1673 1295 1673 1295 1673 1171 c 0,43,44
 1673 1082 1673 1082 1679 1032 c 1,45,-1
 1632 1032 l 1,46,47
 1615 1170 1615 1170 1581 1251.5 c 128,-1,48
 1547 1333 1547 1333 1495.5 1368 c 128,-1,49
 1444 1403 1444 1403 1370 1403 c 2,50,-1
 1302 1403 l 2,51,52
 1234 1403 1234 1403 1203 1391 c 128,-1,53
 1172 1379 1172 1379 1160.5 1344.5 c 128,-1,54
 1149 1310 1149 1310 1149 1233 c 2,55,-1
 1149 750 l 1,56,-1
 1257 750 l 2,57,58
 1317 750 1317 750 1352.5 783.5 c 128,-1,59
 1388 817 1388 817 1403 860 c 128,-1,60
 1418 903 1418 903 1431 968 c 2,61,-1
 1435 991 l 1,62,-1
 1482 991 l 1,63,64
 1475 900 1475 900 1475 817 c 2,65,-1
 1476 729 l 2,66,67
 1476 636 1476 636 1488 467 c 1,68,-1
 1441 467 l 1,69,70
 1429 543 1429 543 1413.5 592.5 c 128,-1,71
 1398 642 1398 642 1360.5 675.5 c 128,-1,72
 1323 709 1323 709 1257 709 c 2,73,-1
 1149 709 l 1,74,-1
 1149 217 l 2,75,76
 1149 140 1149 140 1160.5 105.5 c 128,-1,77
 1172 71 1172 71 1203 59 c 128,-1,78
 1234 47 1234 47 1302 47 c 2,79,-1
 1402 47 l 2,80,81
 1515 47 1515 47 1583 141.5 c 128,-1,82
 1651 236 1651 236 1673 459 c 1,83,-1
 1720 459 l 1,84,85
 1714 393 1714 393 1714 287 c 0,86,0
 1714 122 1714 122 1728 0 c 1,1,2
823 1233 m 2,87,88
 823 1257 823 1257 821 1291 c 1,89,-1
 504 750 l 1,90,-1
 823 750 l 1,91,-1
 823 1233 l 2,87,88
EndSplineSet
Substitution2: "'c2sc' Capitals to Small Capitals lookup 23 subtable" ae.smcp
Substitution2: "'aalt' Access All Alternates lookup 0 subtable" ae.smcp
Position2: "'cpsp' Capital Spacing lookup 0 subtable" dx=20 dy=0 dh=20 dv=0
EndChar
StartChar: Ccedilla
Encoding: 199 199 17
Width: 1445
GlyphClass: 2
Flags: W
AnchorPoint: "Anchor-5" 819 0 basechar 0
AnchorPoint: "Anchor-4" 776 1450 basechar 0
AnchorPoint: "Anchor-3" 0 0 basechar 0
LayerCount: 2
Back
Fore
SplineSet
1328 0 m 1,1,-1
 1281 0 l 1,2,3
 1275 64 1275 64 1263.5 92.5 c 128,-1,4
 1252 121 1252 121 1231 121 c 0,5,6
 1214 121 1214 121 1188 104 c 0,7,8
 1130 63 1130 63 1081.5 36 c 128,-1,9
 1033 9 1033 9 971 -9 c 128,-1,10
 909 -27 909 -27 832 -29 c 1,11,-1
 799 -133 l 1,12,13
 869 -109 869 -109 957 -109 c 0,14,15
 1030 -109 1030 -109 1070 -138.5 c 128,-1,16
 1110 -168 1110 -168 1110 -218 c 0,17,18
 1110 -301 1110 -301 1018.5 -343 c 128,-1,19
 927 -385 927 -385 786 -385 c 0,20,21
 669 -385 669 -385 596 -360 c 1,22,-1
 606 -323 l 1,23,24
 666 -332 666 -332 709 -332 c 0,25,26
 784 -332 784 -332 839.5 -311.5 c 128,-1,27
 895 -291 895 -291 895 -248 c 0,28,29
 895 -195 895 -195 802 -195 c 0,30,31
 755 -195 755 -195 721 -209 c 1,32,-1
 777 -28 l 1,33,34
 569 -21 569 -21 413 68.5 c 128,-1,35
 257 158 257 158 172 323 c 128,-1,36
 87 488 87 488 87 713 c 0,37,38
 87 939 87 939 179 1113 c 128,-1,39
 271 1287 271 1287 436 1383 c 128,-1,40
 601 1479 601 1479 812 1479 c 0,41,42
 934 1479 934 1479 1020 1444 c 128,-1,43
 1106 1409 1106 1409 1188 1346 c 0,44,45
 1210 1328 1210 1328 1228 1328 c 0,46,47
 1269 1328 1269 1328 1281 1450 c 1,48,-1
 1328 1450 l 1,49,50
 1320 1310 1320 1310 1320 954 c 1,51,-1
 1272 954 l 1,52,53
 1260 1057 1260 1057 1244.5 1121 c 128,-1,54
 1229 1185 1229 1185 1199.5 1234.5 c 128,-1,55
 1170 1284 1170 1284 1118 1325 c 1,56,57
 1068 1374 1068 1374 1000.5 1400 c 128,-1,58
 933 1426 933 1426 859 1426 c 0,59,60
 719 1426 719 1426 627.5 1329 c 128,-1,61
 536 1232 536 1232 493.5 1072.5 c 128,-1,62
 451 913 451 913 451 721 c 256,63,64
 451 529 451 529 495.5 370.5 c 128,-1,65
 540 212 540 212 633.5 116.5 c 128,-1,66
 727 21 727 21 867 21 c 0,67,68
 937 21 937 21 1005.5 46.5 c 128,-1,69
 1074 72 1074 72 1122 120 c 1,70,71
 1174 160 1174 160 1203 213 c 128,-1,72
 1232 266 1232 266 1247 336 c 128,-1,73
 1262 406 1262 406 1272 516 c 1,74,-1
 1320 516 l 1,75,0
 1320 145 1320 145 1328 0 c 1,1,-1
EndSplineSet
Substitution2: "'c2sc' Capitals to Small Capitals lookup 23 subtable" ccedilla.smcp
Substitution2: "'aalt' Access All Alternates lookup 0 subtable" ccedilla.smcp
Position2: "'cpsp' Capital Spacing lookup 0 subtable" dx=20 dy=0 dh=20 dv=0
EndChar
StartChar: multiply
Encoding: 215 215 736
Width: 1010
Flags: W
LayerCount: 2
Back
Fore
SplineSet
860 1126 m 1,0,-1
 905 1081 l 1,1,-1
 551 729 l 1,2,-1
 905 375 l 1,3,-1
 860 330 l 1,4,-1
 506 684 l 1,5,-1
 150 328 l 1,6,-1
 105 373 l 1,7,-1
 461 727 l 1,8,-1
 103 1085 l 1,9,-1
 148 1130 l 1,10,-1
 506 772 l 1,11,-1
 860 1126 l 1,0,-1
EndSplineSet
EndChar
StartChar: Oslash
Encoding: 216 216 80
Width: 1623
GlyphClass: 2
Flags: W
AnchorPoint: "Anchor-5" 815 0 basechar 0
AnchorPoint: "Anchor-4" 766 1450 basechar 0
AnchorPoint: "Anchor-3" 0 0 basechar 0
LayerCount: 2
Back
Fore
SplineSet
1461 1103.5 m 128,-1,1
 1535 946 1535 946 1535 737 c 0,2,3
 1535 511 1535 511 1442.5 337 c 128,-1,4
 1350 163 1350 163 1185.5 67 c 128,-1,5
 1021 -29 1021 -29 810 -29 c 0,6,7
 569 -29 569 -29 394 80 c 1,8,-1
 223 -162 l 1,9,-1
 180 -133 l 1,10,-1
 351 109 l 1,11,12
 224 204 224 204 155.5 358 c 128,-1,13
 87 512 87 512 87 713 c 0,14,15
 87 939 87 939 179 1113 c 128,-1,16
 271 1287 271 1287 436 1383 c 128,-1,17
 601 1479 601 1479 812 1479 c 0,18,19
 1040 1479 1040 1479 1210 1381 c 1,20,-1
 1356 1595 l 1,21,-1
 1395 1569 l 1,22,-1
 1250 1355 l 1,23,0
 1387 1261 1387 1261 1461 1103.5 c 128,-1,1
605 1350.5 m 128,-1,25
 520 1259 520 1259 473.5 1095.5 c 128,-1,26
 427 932 427 932 427 721 c 0,27,28
 427 472 427 472 498 292 c 1,29,-1
 1093 1226 l 1,30,31
 1039 1330 1039 1330 964 1386 c 128,-1,32
 889 1442 889 1442 803 1442 c 0,33,24
 690 1442 690 1442 605 1350.5 c 128,-1,25
1016.5 99.5 m 128,-1,35
 1102 191 1102 191 1148.5 354.5 c 128,-1,36
 1195 518 1195 518 1195 729 c 0,37,38
 1195 988 1195 988 1117 1174 c 1,39,-1
 523 236 l 1,40,41
 577 126 577 126 653.5 67 c 128,-1,42
 730 8 730 8 818 8 c 0,43,34
 931 8 931 8 1016.5 99.5 c 128,-1,35
EndSplineSet
Substitution2: "'c2sc' Capitals to Small Capitals lookup 23 subtable" oslash.smcp
Substitution2: "'aalt' Access All Alternates lookup 0 subtable" oslash.smcp
Position2: "'cpsp' Capital Spacing lookup 0 subtable" dx=20 dy=0 dh=20 dv=0
EndChar
StartChar: Thorn
Encoding: 222 222 84
Width: 1271
GlyphClass: 2
Flags: W
AnchorPoint: "Anchor-5" 392 0 basechar 0
AnchorPoint: "Anchor-4" 392 1450 basechar 0
AnchorPoint: "Anchor-3" 672 0 basechar 0
LayerCount: 2
Back
Fore
SplineSet
547 217 m 2,0,1
 547 140 547 140 558.5 105 c 128,-1,2
 570 70 570 70 601 57 c 128,-1,3
 632 44 632 44 701 41 c 1,4,-1
 701 0 l 1,5,6
 590 6 590 6 391 6 c 0,7,8
 172 6 172 6 68 0 c 1,9,-1
 68 41 l 1,10,11
 137 44 137 44 167.5 57 c 128,-1,12
 198 70 198 70 209.5 105 c 128,-1,13
 221 140 221 140 221 217 c 2,14,-1
 221 1233 l 2,15,16
 221 1310 221 1310 209.5 1345 c 128,-1,17
 198 1380 198 1380 167 1393 c 128,-1,18
 136 1406 136 1406 68 1409 c 1,19,-1
 68 1450 l 1,20,21
 172 1444 172 1444 391 1444 c 0,22,23
 590 1444 590 1444 701 1450 c 1,24,-1
 701 1409 l 1,25,26
 632 1406 632 1406 601 1393 c 128,-1,27
 570 1380 570 1380 558.5 1345 c 128,-1,28
 547 1310 547 1310 547 1233 c 2,29,-1
 547 1160 l 1,30,-1
 662 1162 l 1,31,32
 944 1162 944 1162 1086.5 1060.5 c 128,-1,33
 1229 959 1229 959 1229 769 c 0,34,35
 1229 641 1229 641 1173.5 536 c 128,-1,36
 1118 431 1118 431 981.5 365.5 c 128,-1,37
 845 300 845 300 617 300 c 2,38,-1
 547 300 l 1,39,-1
 547 217 l 2,0,1
547 1122 m 1,40,-1
 547 341 l 1,41,-1
 596 341 l 2,42,43
 763 341 763 341 826 450.5 c 128,-1,44
 889 560 889 560 889 750 c 0,45,46
 889 939 889 939 824.5 1031 c 128,-1,47
 760 1123 760 1123 611 1123 c 2,48,-1
 547 1122 l 1,40,-1
EndSplineSet
Substitution2: "'c2sc' Capitals to Small Capitals lookup 23 subtable" thorn.smcp
Substitution2: "'aalt' Access All Alternates lookup 0 subtable" thorn.smcp
Position2: "'cpsp' Capital Spacing lookup 0 subtable" dx=20 dy=0 dh=20 dv=0
EndChar
StartChar: germandbls
Encoding: 223 223 232
Width: 1345
GlyphClass: 2
Flags: W
LayerCount: 2
Back
Fore
SplineSet
910 1563.5 m 128,-1,1
 1007 1525 1007 1525 1057 1456 c 128,-1,2
 1107 1387 1107 1387 1107 1299 c 0,3,4
 1107 1200 1107 1200 1045 1115.5 c 128,-1,5
 983 1031 983 1031 883 972 c 128,-1,6
 783 913 783 913 673 887 c 1,7,8
 865 859 865 859 1004 786 c 128,-1,9
 1143 713 1143 713 1216.5 605.5 c 128,-1,10
 1290 498 1290 498 1290 368 c 0,11,12
 1290 245 1290 245 1227 155 c 128,-1,13
 1164 65 1164 65 1060 18 c 128,-1,14
 956 -29 956 -29 835 -29 c 0,15,16
 709 -29 709 -29 627.5 22 c 128,-1,17
 546 73 546 73 546 182 c 0,18,19
 546 255 546 255 585 300 c 128,-1,20
 624 345 624 345 692 345 c 0,21,22
 756 345 756 345 795 306.5 c 128,-1,23
 834 268 834 268 834 204 c 0,24,25
 834 144 834 144 797.5 99.5 c 128,-1,26
 761 55 761 55 706 33 c 1,27,28
 716 21 716 21 737.5 13.5 c 128,-1,29
 759 6 759 6 785 6 c 0,30,31
 846 6 846 6 891 45.5 c 128,-1,32
 936 85 936 85 960 160 c 128,-1,33
 984 235 984 235 984 338 c 0,34,35
 984 558 984 558 886 685.5 c 128,-1,36
 788 813 788 813 641 863 c 1,37,38
 595 838 595 838 569 838 c 0,39,40
 552 838 552 838 540 846.5 c 128,-1,41
 528 855 528 855 528 871 c 0,42,43
 528 889 528 889 540 899 c 128,-1,44
 552 909 552 909 574 909 c 0,45,46
 606 909 606 909 642 894 c 1,47,48
 744 964 744 964 784.5 1053 c 128,-1,49
 825 1142 825 1142 825 1277 c 0,50,51
 825 1571 825 1571 642 1571 c 0,52,53
 578 1571 578 1571 539.5 1533.5 c 128,-1,54
 501 1496 501 1496 482.5 1408 c 128,-1,55
 464 1320 464 1320 464 1166 c 2,56,-1
 464 -23 l 1,57,58
 348 6 348 6 182 6 c 0,59,60
 134 6 134 6 38 0 c 1,61,-1
 38 43 l 1,62,63
 87 43 87 43 115.5 58.5 c 128,-1,64
 144 74 144 74 156.5 109 c 128,-1,65
 169 144 169 144 169 204 c 2,66,-1
 169 1070 l 2,67,68
 169 1338 169 1338 299.5 1470 c 128,-1,69
 430 1602 430 1602 676 1602 c 0,70,0
 813 1602 813 1602 910 1563.5 c 128,-1,1
EndSplineSet
Substitution2: "'smcp' Lowercase to Small Capitals lookup 24 subtable" germandbls.smcp
Substitution2: "'aalt' Access All Alternates lookup 0 subtable" germandbls.smcp
EndChar
StartChar: ae
Encoding: 230 230 144
Width: 1506
GlyphClass: 2
Flags: W
AnchorPoint: "Anchor-5" 0 0 basechar 0
AnchorPoint: "Anchor-4" 754 1053 basechar 0
AnchorPoint: "Anchor-3" 0 0 basechar 0
LayerCount: 2
Back
Fore
SplineSet
1388 304 m 1,1,-1
 1426 290 l 1,2,3
 1401 207 1401 207 1350.5 134.5 c 128,-1,4
 1300 62 1300 62 1222 16.5 c 128,-1,5
 1144 -29 1144 -29 1044 -29 c 0,6,7
 914 -29 914 -29 816.5 27 c 128,-1,8
 719 83 719 83 665 197 c 1,9,10
 605 88 605 88 522 34 c 128,-1,11
 439 -20 439 -20 323 -20 c 0,12,13
 247 -20 247 -20 188.5 7 c 128,-1,14
 130 34 130 34 96.5 86 c 128,-1,15
 63 138 63 138 63 211 c 0,16,17
 63 322 63 322 132.5 393 c 128,-1,18
 202 464 202 464 347 519 c 2,19,-1
 370 528 l 2,20,21
 455 562 455 562 501 584.5 c 128,-1,22
 547 607 547 607 575.5 636 c 128,-1,23
 604 665 604 665 604 704 c 2,24,-1
 604 864 l 2,25,26
 604 948 604 948 561 997.5 c 128,-1,27
 518 1047 518 1047 433 1047 c 0,28,29
 394 1047 394 1047 354.5 1034.5 c 128,-1,30
 315 1022 315 1022 289 997 c 1,31,32
 406 959 406 959 406 845 c 0,33,34
 406 780 406 780 360.5 738.5 c 128,-1,35
 315 697 315 697 243 697 c 0,36,37
 179 697 179 697 139 739.5 c 128,-1,38
 99 782 99 782 99 847 c 0,39,40
 99 901 99 901 129.5 945 c 128,-1,41
 160 989 160 989 213 1019 c 0,42,43
 331 1088 331 1088 493 1088 c 0,44,45
 593 1088 593 1088 658.5 1062 c 128,-1,46
 724 1036 724 1036 764 973 c 1,47,48
 884 1088 884 1088 1073 1088 c 0,49,50
 1438 1088 1438 1088 1438 633 c 1,51,-1
 907 633 l 1,52,53
 903 593 903 593 903 536 c 0,54,55
 903 401 903 401 938 312 c 128,-1,56
 973 223 973 223 1028.5 181.5 c 128,-1,57
 1084 140 1084 140 1148 140 c 0,58,0
 1299 140 1299 140 1388 304 c 1,1,-1
954 953.5 m 128,-1,60
 912 863 912 863 902 672 c 1,61,-1
 1180 672 l 1,62,63
 1183 832 1183 832 1152.5 938 c 128,-1,64
 1122 1044 1122 1044 1061 1044 c 0,65,59
 996 1044 996 1044 954 953.5 c 128,-1,60
604 519 m 0,67,68
 604 558 604 558 607 594 c 1,69,-1
 604 620 l 1,70,71
 581 584 581 584 502 524 c 0,72,73
 431 471 431 471 392.5 414.5 c 128,-1,74
 354 358 354 358 354 278 c 0,75,76
 354 205 354 205 387.5 168 c 128,-1,77
 421 131 421 131 481 131 c 0,78,79
 530 131 530 131 571 153 c 128,-1,80
 612 175 612 175 648 231 c 1,81,-1
 647 241 l 1,82,66
 604 356 604 356 604 519 c 0,67,68
EndSplineSet
Substitution2: "'smcp' Lowercase to Small Capitals lookup 24 subtable" ae.smcp
Substitution2: "'aalt' Access All Alternates lookup 0 subtable" ae.smcp
EndChar
StartChar: ccedilla
Encoding: 231 231 149
Width: 1016
GlyphClass: 2
Flags: W
AnchorPoint: "Anchor-5" 557 0 basechar 0
AnchorPoint: "Anchor-4" 548 1053 basechar 0
AnchorPoint: "Anchor-3" 0 0 basechar 0
LayerCount: 2
Back
Fore
SplineSet
525 -28 m 1,0,-1
 492 -133 l 1,1,2
 558 -109 558 -109 638 -109 c 0,3,4
 706 -109 706 -109 742.5 -138.5 c 128,-1,5
 779 -168 779 -168 779 -218 c 0,6,7
 779 -301 779 -301 697 -343 c 128,-1,8
 615 -385 615 -385 492 -385 c 0,9,10
 383 -385 383 -385 313 -360 c 1,11,-1
 324 -323 l 1,12,13
 375 -332 375 -332 414 -332 c 0,14,15
 474 -332 474 -332 519 -311.5 c 128,-1,16
 564 -291 564 -291 564 -248 c 0,17,18
 564 -195 564 -195 495 -195 c 0,19,20
 447 -195 447 -195 415 -209 c 1,21,-1
 470 -24 l 1,22,23
 353 -7 353 -7 264 58 c 128,-1,24
 175 123 175 123 124.5 240 c 128,-1,25
 74 357 74 357 74 524 c 0,26,27
 74 704 74 704 139 831 c 128,-1,28
 204 958 204 958 318.5 1023 c 128,-1,29
 433 1088 433 1088 580 1088 c 0,30,31
 657 1088 657 1088 724 1071 c 128,-1,32
 791 1054 791 1054 837 1025 c 0,33,34
 890 993 890 993 920 943.5 c 128,-1,35
 950 894 950 894 950 834 c 0,36,37
 950 761 950 761 904.5 715 c 128,-1,38
 859 669 859 669 788 669 c 0,39,40
 715 669 715 669 672.5 710.5 c 128,-1,41
 630 752 630 752 630 821 c 0,42,43
 630 883 630 883 668.5 928 c 128,-1,44
 707 973 707 973 765 989 c 1,45,46
 749 1010 749 1010 715.5 1024 c 128,-1,47
 682 1038 682 1038 642 1038 c 0,48,49
 559 1038 559 1038 500.5 975.5 c 128,-1,50
 442 913 442 913 412.5 803.5 c 128,-1,51
 383 694 383 694 383 553 c 0,52,53
 383 403 383 403 421 310.5 c 128,-1,54
 459 218 459 218 519.5 179 c 128,-1,55
 580 140 580 140 654 140 c 0,56,57
 724 140 724 140 795 177 c 128,-1,58
 866 214 866 214 922 307 c 1,59,-1
 958 294 l 1,60,61
 932 210 932 210 880 137 c 128,-1,62
 828 64 828 64 744.5 17.5 c 128,-1,63
 661 -29 661 -29 551 -29 c 1,64,-1
 525 -28 l 1,0,-1
EndSplineSet
Substitution2: "'smcp' Lowercase to Small Capitals lookup 24 subtable" ccedilla.smcp
Substitution2: "'aalt' Access All Alternates lookup 0 subtable" ccedilla.smcp
EndChar
StartChar: eth
Encoding: 240 240 153
Width: 1160
GlyphClass: 2
Flags: W
LayerCount: 2
Back
Fore
SplineSet
965 1072.5 m 128,-1,1
 1074 876 1074 876 1074 623 c 0,2,3
 1074 405 1074 405 1010.5 258 c 128,-1,4
 947 111 947 111 834.5 40 c 128,-1,5
 722 -31 722 -31 575 -31 c 0,6,7
 342 -31 342 -31 209 101.5 c 128,-1,8
 76 234 76 234 76 512 c 0,9,10
 76 695 76 695 135.5 825 c 128,-1,11
 195 955 195 955 300 1021.5 c 128,-1,12
 405 1088 405 1088 541 1088 c 0,13,14
 653 1088 653 1088 721 1032 c 1,15,16
 669 1224 669 1224 553 1354 c 1,17,-1
 226 1194 l 1,18,-1
 207 1231 l 1,19,-1
 524 1386 l 1,20,21
 420 1492 420 1492 263 1567 c 1,22,-1
 279 1602 l 1,23,24
 470 1537 470 1537 625 1435 c 1,25,-1
 918 1577 l 1,26,-1
 937 1541 l 1,27,-1
 664 1408 l 1,28,0
 856 1269 856 1269 965 1072.5 c 128,-1,1
715 151.5 m 128,-1,30
 770 293 770 293 770 614 c 0,31,32
 770 828 770 828 733 988 c 1,33,34
 685 1040 685 1040 603 1040 c 0,35,36
 385 1040 385 1040 385 527 c 0,37,38
 385 350 385 350 409.5 234 c 128,-1,39
 434 118 434 118 476 64 c 128,-1,40
 518 10 518 10 571 10 c 0,41,29
 660 10 660 10 715 151.5 c 128,-1,30
EndSplineSet
Substitution2: "'smcp' Lowercase to Small Capitals lookup 24 subtable" eth.smcp
Substitution2: "'aalt' Access All Alternates lookup 0 subtable" eth.smcp
EndChar
StartChar: divide
Encoding: 247 247 726
Width: 1297
Flags: W
LayerCount: 2
Back
Fore
SplineSet
730.5 1101.5 m 128,-1,1
 764 1068 764 1068 764 1022 c 0,2,3
 764 974 764 974 730.5 941.5 c 128,-1,4
 697 909 697 909 649 909 c 0,5,6
 603 909 603 909 569.5 942 c 128,-1,7
 536 975 536 975 536 1022 c 0,8,9
 536 1068 536 1068 569.5 1101.5 c 128,-1,10
 603 1135 603 1135 649 1135 c 0,11,0
 697 1135 697 1135 730.5 1101.5 c 128,-1,1
137 696 m 1,12,-1
 137 758 l 1,13,-1
 1163 758 l 1,14,-1
 1163 696 l 1,15,-1
 137 696 l 1,12,-1
730.5 512 m 128,-1,17
 764 479 764 479 764 432 c 256,18,19
 764 385 764 385 730.5 351 c 128,-1,20
 697 317 697 317 649 317 c 0,21,22
 603 317 603 317 569.5 351 c 128,-1,23
 536 385 536 385 536 432 c 0,24,25
 536 478 536 478 569.5 511.5 c 128,-1,26
 603 545 603 545 649 545 c 0,27,16
 697 545 697 545 730.5 512 c 128,-1,17
EndSplineSet
EndChar
StartChar: oslash
Encoding: 248 248 216
Width: 1156
GlyphClass: 2
Flags: W
AnchorPoint: "Anchor-5" 578 0 basechar 0
AnchorPoint: "Anchor-4" 580 1053 basechar 0
AnchorPoint: "Anchor-3" 0 0 basechar 0
LayerCount: 2
Back
Fore
SplineSet
1079 529 m 0,1,2
 1079 238 1079 238 945.5 104.5 c 128,-1,3
 812 -29 812 -29 577 -29 c 0,4,5
 400 -29 400 -29 282 45 c 1,6,-1
 148 -150 l 1,7,-1
 108 -122 l 1,8,-1
 242 74 l 1,9,10
 76 213 76 213 76 529 c 0,11,12
 76 819 76 819 209.5 953.5 c 128,-1,13
 343 1088 343 1088 577 1088 c 0,14,15
 759 1088 759 1088 877 1011 c 1,16,-1
 1014 1208 l 1,17,-1
 1053 1182 l 1,18,-1
 916 981 l 1,19,0
 1079 842 1079 842 1079 529 c 0,1,2
437 919.5 m 128,-1,21
 385 792 385 792 385 529 c 0,22,23
 385 382 385 382 402 274 c 1,24,-1
 740 847 l 1,25,26
 693 1047 693 1047 577 1047 c 0,27,20
 489 1047 489 1047 437 919.5 c 128,-1,21
718 139 m 128,-1,29
 770 266 770 266 770 529 c 0,30,31
 770 668 770 668 754 777 c 1,32,-1
 417 201 l 1,33,34
 466 12 466 12 577 12 c 0,35,28
 666 12 666 12 718 139 c 128,-1,29
EndSplineSet
Substitution2: "'smcp' Lowercase to Small Capitals lookup 24 subtable" oslash.smcp
Substitution2: "'aalt' Access All Alternates lookup 0 subtable" oslash.smcp
EndChar
StartChar: thorn
Encoding: 254 254 220
Width: 1196
GlyphClass: 2
Flags: W
LayerCount: 2
Back
Fore
SplineSet
941 1030.5 m 128,-1,1
 1024 973 1024 973 1071.5 858 c 128,-1,2
 1119 743 1119 743 1119 577 c 0,3,4
 1119 381 1119 381 1061 245 c 128,-1,5
 1003 109 1003 109 896.5 40 c 128,-1,6
 790 -29 790 -29 645 -29 c 0,7,8
 513 -29 513 -29 435 37 c 1,9,-1
 435 -168 l 2,10,11
 435 -258 435 -258 480.5 -293 c 128,-1,12
 526 -328 526 -328 619 -328 c 1,13,-1
 619 -371 l 1,14,-1
 554 -369 l 2,15,16
 381 -362 381 -362 275 -362 c 0,17,18
 193 -362 193 -362 62 -369 c 0,19,20
 26 -371 26 -371 17 -371 c 1,21,-1
 17 -328 l 1,22,23
 63 -328 63 -328 89.5 -315.5 c 128,-1,24
 116 -303 116 -303 128 -273 c 128,-1,25
 140 -243 140 -243 140 -188 c 2,26,-1
 140 1357 l 2,27,28
 140 1451 140 1451 110.5 1494 c 128,-1,29
 81 1537 81 1537 9 1537 c 1,30,-1
 9 1580 l 1,31,32
 74 1574 74 1574 136 1574 c 0,33,34
 315 1574 315 1574 435 1602 c 1,35,-1
 435 892 l 1,36,37
 478 987 478 987 561 1037.5 c 128,-1,38
 644 1088 644 1088 752 1088 c 0,39,0
 858 1088 858 1088 941 1030.5 c 128,-1,1
752 157.5 m 128,-1,41
 809 288 809 288 809 537 c 256,42,43
 809 786 809 786 763.5 893 c 128,-1,44
 718 1000 718 1000 632 1000 c 0,45,46
 562 1000 562 1000 507.5 952 c 128,-1,47
 453 904 453 904 435 820 c 1,48,-1
 435 81 l 1,49,50
 481 27 481 27 564 27 c 0,51,40
 695 27 695 27 752 157.5 c 128,-1,41
EndSplineSet
Substitution2: "'smcp' Lowercase to Small Capitals lookup 24 subtable" thorn.smcp
Substitution2: "'aalt' Access All Alternates lookup 0 subtable" thorn.smcp
EndChar
StartChar: Aogonek
Encoding: 260 260 9
Width: 1366
GlyphClass: 2
Flags: W
AnchorPoint: "Anchor-5" 0 0 basechar 0
AnchorPoint: "Anchor-4" 680 1450 basechar 0
AnchorPoint: "Anchor-3" 1349 0 basechar 0
LayerCount: 2
Back
Fore
SplineSet
1182.5 -86 m 128,-1,1
 1132 -138 1132 -138 1132 -189 c 0,2,3
 1132 -272 1132 -272 1216 -272 c 0,4,5
 1251 -272 1251 -272 1288 -256 c 128,-1,6
 1325 -240 1325 -240 1347 -217 c 1,7,-1
 1376 -246 l 1,8,9
 1321 -319 1321 -319 1254 -352 c 128,-1,10
 1187 -385 1187 -385 1095 -385 c 0,11,12
 1006 -385 1006 -385 957.5 -348 c 128,-1,13
 909 -311 909 -311 909 -245 c 0,14,15
 909 -162 909 -162 1002.5 -98 c 128,-1,16
 1096 -34 1096 -34 1267 4 c 1,17,18
 1143 6 1143 6 1069 6 c 0,19,20
 859 6 859 6 757 0 c 1,21,-1
 757 41 l 1,22,23
 834 44 834 44 867.5 60 c 128,-1,24
 901 76 901 76 901 116 c 0,25,26
 901 152 901 152 877 213 c 2,27,-1
 754 549 l 1,28,-1
 309 549 l 1,29,-1
 254 407 l 2,30,31
 198 263 198 263 198 180 c 0,32,33
 198 104 198 104 243.5 73.5 c 128,-1,34
 289 43 289 43 380 41 c 1,35,-1
 380 0 l 1,36,37
 241 6 241 6 125 6 c 0,38,39
 30 6 30 6 -32 0 c 1,40,-1
 -32 41 l 1,41,42
 71 60 71 60 146 256 c 2,43,-1
 612 1454 l 1,44,45
 645 1451 645 1451 683 1451 c 256,46,47
 721 1451 721 1451 754 1454 c 1,48,-1
 1251 172 l 2,49,50
 1277 104 1277 104 1311.5 73.5 c 128,-1,51
 1346 43 1346 43 1380 41 c 1,52,-1
 1380 0 l 1,53,-1
 1341 2 l 1,54,0
 1233 -34 1233 -34 1182.5 -86 c 128,-1,1
536 1141 m 1,55,-1
 324 590 l 1,56,-1
 739 590 l 1,57,-1
 536 1141 l 1,55,-1
EndSplineSet
Substitution2: "'c2sc' Capitals to Small Capitals lookup 23 subtable" aogonek.smcp
Substitution2: "'aalt' Access All Alternates lookup 0 subtable" aogonek.smcp
Position2: "'cpsp' Capital Spacing lookup 0 subtable" dx=20 dy=0 dh=20 dv=0
EndChar
StartChar: aogonek
Encoding: 261 261 141
Width: 1060
GlyphClass: 2
Flags: W
AnchorPoint: "Anchor-5" 0 0 basechar 0
AnchorPoint: "Anchor-4" 532 1053 basechar 0
AnchorPoint: "Anchor-3" 952 0 basechar 0
LayerCount: 2
Back
Fore
SplineSet
933.5 -256 m 128,-1,1
 971 -240 971 -240 993 -217 c 1,2,-1
 1021 -246 l 1,3,4
 966 -319 966 -319 899.5 -352 c 128,-1,5
 833 -385 833 -385 741 -385 c 0,6,7
 652 -385 652 -385 603 -348 c 128,-1,8
 554 -311 554 -311 554 -245 c 0,9,10
 554 -171 554 -171 621 -112 c 128,-1,11
 688 -53 688 -53 812 -14 c 1,12,13
 710 -13 710 -13 665 33 c 128,-1,14
 620 79 620 79 619 152 c 1,15,16
 569 69 569 69 488.5 27.5 c 128,-1,17
 408 -14 408 -14 317 -14 c 0,18,19
 200 -14 200 -14 129 47.5 c 128,-1,20
 58 109 58 109 58 219 c 0,21,22
 58 326 58 326 128 395.5 c 128,-1,23
 198 465 198 465 346 520 c 0,24,25
 361 525 361 525 371 530 c 0,26,27
 460 563 460 563 507.5 585 c 128,-1,28
 555 607 555 607 585 636 c 128,-1,29
 615 665 615 665 615 704 c 2,30,-1
 615 864 l 2,31,32
 615 949 615 949 575 998 c 128,-1,33
 535 1047 535 1047 448 1047 c 0,34,35
 408 1047 408 1047 368 1034.5 c 128,-1,36
 328 1022 328 1022 302 997 c 1,37,38
 359 978 359 978 391 937 c 128,-1,39
 423 896 423 896 423 836 c 0,40,41
 423 772 423 772 377 730.5 c 128,-1,42
 331 689 331 689 256 689 c 0,43,44
 190 689 190 689 150.5 733.5 c 128,-1,45
 111 778 111 778 111 847 c 0,46,47
 111 951 111 951 226 1018 c 0,48,49
 351 1088 351 1088 537 1088 c 0,50,51
 641 1088 641 1088 715 1066.5 c 128,-1,52
 789 1045 789 1045 837 996 c 0,53,54
 880 952 880 952 895 887.5 c 128,-1,55
 910 823 910 823 910 709 c 2,56,-1
 910 152 l 2,57,58
 910 102 910 102 919.5 81.5 c 128,-1,59
 929 61 929 61 954 61 c 0,60,61
 973 61 973 61 990 70 c 128,-1,62
 1007 79 1007 79 1029 96 c 1,63,-1
 1050 61 l 1,64,65
 1005 25 1005 25 961 9 c 0,66,67
 951 2 951 2 932 -7 c 0,68,69
 850 -45 850 -45 813.5 -92.5 c 128,-1,70
 777 -140 777 -140 777 -189 c 0,71,72
 777 -272 777 -272 862 -272 c 0,73,0
 896 -272 896 -272 933.5 -256 c 128,-1,1
573.5 576 m 128,-1,75
 545 554 545 554 488 519 c 1,76,77
 423 471 423 471 386 415.5 c 128,-1,78
 349 360 349 360 349 276 c 0,79,80
 349 195 349 195 384 156 c 128,-1,81
 419 117 419 117 477 117 c 0,82,83
 556 117 556 117 615 200 c 1,84,-1
 615 620 l 1,85,74
 602 598 602 598 573.5 576 c 128,-1,75
EndSplineSet
Substitution2: "'smcp' Lowercase to Small Capitals lookup 24 subtable" aogonek.smcp
Substitution2: "'aalt' Access All Alternates lookup 0 subtable" aogonek.smcp
EndChar
StartChar: Dcroat
Encoding: 272 272 23
Width: 1590
GlyphClass: 2
Flags: W
AnchorPoint: "Anchor-5" 0 0 basechar 0
AnchorPoint: "Anchor-4" 703 1450 basechar 0
AnchorPoint: "Anchor-3" 0 0 basechar 0
LayerCount: 2
Back
Fore
SplineSet
1299.5 1269 m 128,-1,1
 1498 1088 1498 1088 1498 741 c 0,2,3
 1498 518 1498 518 1401 350.5 c 128,-1,4
 1304 183 1304 183 1120.5 91.5 c 128,-1,5
 937 0 937 0 683 0 c 0,6,7
 633 0 633 0 559 3 c 0,8,9
 379 6 379 6 384 6 c 1,10,11
 173 6 173 6 69 0 c 1,12,-1
 69 41 l 1,13,14
 138 44 138 44 168.5 57 c 128,-1,15
 199 70 199 70 210.5 105 c 128,-1,16
 222 140 222 140 222 217 c 2,17,-1
 222 709 l 1,18,-1
 69 709 l 1,19,-1
 69 750 l 1,20,-1
 222 750 l 1,21,-1
 222 1233 l 2,22,23
 222 1310 222 1310 210.5 1345 c 128,-1,24
 199 1380 199 1380 168 1393 c 128,-1,25
 137 1406 137 1406 69 1409 c 1,26,-1
 69 1450 l 1,27,28
 200 1443 200 1443 316 1443 c 2,29,-1
 380 1444 l 1,30,-1
 468 1446 l 2,31,32
 634 1450 634 1450 702 1450 c 0,33,0
 1101 1450 1101 1450 1299.5 1269 c 128,-1,1
971.5 116.5 m 128,-1,35
 1072 196 1072 196 1115 348.5 c 128,-1,36
 1158 501 1158 501 1158 733 c 0,37,38
 1158 967 1158 967 1112 1116 c 128,-1,39
 1066 1265 1066 1265 965 1339 c 128,-1,40
 864 1413 864 1413 700 1413 c 0,41,42
 636 1413 636 1413 604 1398.5 c 128,-1,43
 572 1384 572 1384 560 1347 c 128,-1,44
 548 1310 548 1310 548 1237 c 2,45,-1
 548 750 l 1,46,-1
 802 750 l 1,47,-1
 802 709 l 1,48,-1
 548 709 l 1,49,-1
 548 213 l 2,50,51
 548 139 548 139 560 102.5 c 128,-1,52
 572 66 572 66 604.5 51.5 c 128,-1,53
 637 37 637 37 702 37 c 0,54,34
 871 37 871 37 971.5 116.5 c 128,-1,35
EndSplineSet
Substitution2: "'c2sc' Capitals to Small Capitals lookup 23 subtable" dcroat.smcp
Substitution2: "'aalt' Access All Alternates lookup 0 subtable" dcroat.smcp
Position2: "'cpsp' Capital Spacing lookup 0 subtable" dx=20 dy=0 dh=20 dv=0
EndChar
StartChar: dcroat
Encoding: 273 273 155
Width: 1224
GlyphClass: 2
Flags: W
LayerCount: 2
Back
Fore
SplineSet
1055 224 m 2,0,1
 1055 130 1055 130 1084.5 87 c 128,-1,2
 1114 44 1114 44 1186 44 c 1,3,-1
 1186 1 l 1,4,5
 1122 7 1122 7 1059 7 c 0,6,7
 880 7 880 7 760 -21 c 1,8,-1
 760 152 l 1,9,10
 688 -29 688 -29 494 -29 c 0,11,12
 369 -29 369 -29 275 31.5 c 128,-1,13
 181 92 181 92 128.5 218 c 128,-1,14
 76 344 76 344 76 534 c 0,15,16
 76 714 76 714 134.5 839 c 128,-1,17
 193 964 193 964 296.5 1026 c 128,-1,18
 400 1088 400 1088 534 1088 c 0,19,20
 683 1088 683 1088 760 1011 c 1,21,-1
 760 1245 l 1,22,-1
 420 1245 l 1,23,-1
 420 1286 l 1,24,-1
 760 1286 l 1,25,-1
 760 1357 l 2,26,27
 760 1452 760 1452 730.5 1495 c 128,-1,28
 701 1538 701 1538 629 1538 c 1,29,-1
 629 1581 l 1,30,31
 694 1575 694 1575 756 1575 c 0,32,33
 936 1575 936 1575 1055 1603 c 1,34,-1
 1055 1286 l 1,35,-1
 1207 1286 l 1,36,-1
 1207 1245 l 1,37,-1
 1055 1245 l 1,38,-1
 1055 224 l 2,0,1
695 106.5 m 128,-1,40
 746 153 746 153 760 232 c 1,41,-1
 760 960 l 1,42,43
 707 1029 707 1029 611 1029 c 0,44,45
 503 1029 503 1029 444 904 c 128,-1,46
 385 779 385 779 386 530 c 0,47,48
 385 279 385 279 435 169.5 c 128,-1,49
 485 60 485 60 579 60 c 0,50,39
 644 60 644 60 695 106.5 c 128,-1,40
EndSplineSet
Substitution2: "'smcp' Lowercase to Small Capitals lookup 24 subtable" dcroat.smcp
Substitution2: "'aalt' Access All Alternates lookup 0 subtable" dcroat.smcp
EndChar
StartChar: Eogonek
Encoding: 280 280 33
Width: 1298
GlyphClass: 2
Flags: W
AnchorPoint: "Anchor-5" 666 0 basechar 0
AnchorPoint: "Anchor-4" 644 1450 basechar 0
AnchorPoint: "Anchor-3" 1194 0 basechar 0
LayerCount: 2
Back
Fore
SplineSet
1098 -352 m 128,-1,1
 1031 -385 1031 -385 939 -385 c 0,2,3
 850 -385 850 -385 801.5 -348 c 128,-1,4
 753 -311 753 -311 753 -245 c 0,5,6
 753 -162 753 -162 846 -98 c 128,-1,7
 939 -34 939 -34 1108 3 c 1,8,9
 985 6 985 6 735 6 c 0,10,11
 291 6 291 6 68 0 c 1,12,-1
 68 41 l 1,13,14
 137 44 137 44 167.5 57 c 128,-1,15
 198 70 198 70 209.5 105 c 128,-1,16
 221 140 221 140 221 217 c 2,17,-1
 221 1233 l 2,18,19
 221 1310 221 1310 209.5 1345 c 128,-1,20
 198 1380 198 1380 167 1393 c 128,-1,21
 136 1406 136 1406 68 1409 c 1,22,-1
 68 1450 l 1,23,24
 291 1444 291 1444 735 1444 c 0,25,26
 1037 1444 1037 1444 1163 1450 c 1,27,28
 1149 1281 1149 1281 1149 1147 c 0,29,30
 1149 1057 1149 1057 1155 1008 c 1,31,-1
 1108 1008 l 1,32,33
 1088 1156 1088 1156 1045 1242.5 c 128,-1,34
 1002 1329 1002 1329 935.5 1366 c 128,-1,35
 869 1403 869 1403 772 1403 c 2,36,-1
 688 1403 l 2,37,38
 625 1403 625 1403 596.5 1393 c 128,-1,39
 568 1383 568 1383 557.5 1353 c 128,-1,40
 547 1323 547 1323 547 1257 c 2,41,-1
 547 750 l 1,42,-1
 613 750 l 2,43,44
 723 750 723 750 779 830 c 128,-1,45
 835 910 835 910 857 1020 c 1,46,-1
 904 1020 l 1,47,48
 897 919 897 919 897 827 c 2,49,-1
 898 729 l 2,50,51
 898 625 898 625 910 438 c 1,52,-1
 863 438 l 1,53,54
 823 709 823 709 613 709 c 2,55,-1
 547 709 l 1,56,-1
 547 193 l 2,57,58
 547 127 547 127 557.5 97 c 128,-1,59
 568 67 568 67 596.5 57 c 128,-1,60
 625 47 625 47 688 47 c 2,61,-1
 789 47 l 2,62,63
 885 47 885 47 955.5 88.5 c 128,-1,64
 1026 130 1026 130 1075 226 c 128,-1,65
 1124 322 1124 322 1149 483 c 1,66,-1
 1196 483 l 1,67,68
 1190 417 1190 417 1190 311 c 0,69,70
 1190 143 1190 143 1204 0 c 1,71,-1
 1183 1 l 1,72,73
 1076 -34 1076 -34 1026 -86 c 128,-1,74
 976 -138 976 -138 976 -189 c 0,75,76
 976 -272 976 -272 1060 -272 c 0,77,78
 1095 -272 1095 -272 1132 -256 c 128,-1,79
 1169 -240 1169 -240 1191 -217 c 1,80,-1
 1220 -246 l 1,81,0
 1165 -319 1165 -319 1098 -352 c 128,-1,1
EndSplineSet
Substitution2: "'c2sc' Capitals to Small Capitals lookup 23 subtable" eogonek.smcp
Substitution2: "'aalt' Access All Alternates lookup 0 subtable" eogonek.smcp
Position2: "'cpsp' Capital Spacing lookup 0 subtable" dx=20 dy=0 dh=20 dv=0
EndChar
StartChar: eogonek
Encoding: 281 281 165
Width: 1033
GlyphClass: 2
Flags: W
AnchorPoint: "Anchor-5" 551 0 basechar 0
AnchorPoint: "Anchor-4" 565 1053 basechar 0
AnchorPoint: "Anchor-3" 711 0 basechar 0
LayerCount: 2
Back
Fore
SplineSet
920 304 m 1,1,-1
 957 290 l 1,2,3
 928 199 928 199 865.5 122 c 128,-1,4
 803 45 803 45 713 5 c 0,5,6
 703 -2 703 -2 691 -7 c 0,7,8
 609 -45 609 -45 572.5 -92.5 c 128,-1,9
 536 -140 536 -140 536 -189 c 0,10,11
 536 -272 536 -272 621 -272 c 0,12,13
 655 -272 655 -272 692.5 -256 c 128,-1,14
 730 -240 730 -240 752 -217 c 1,15,-1
 780 -246 l 1,16,17
 725 -319 725 -319 658.5 -352 c 128,-1,18
 592 -385 592 -385 500 -385 c 0,19,20
 411 -385 411 -385 362 -348 c 128,-1,21
 313 -311 313 -311 313 -245 c 0,22,23
 313 -177 313 -177 368.5 -122.5 c 128,-1,24
 424 -68 424 -68 528 -29 c 1,25,26
 392 -25 392 -25 290.5 36.5 c 128,-1,27
 189 98 189 98 132 219.5 c 128,-1,28
 75 341 75 341 75 519 c 0,29,30
 75 704 75 704 138.5 832 c 128,-1,31
 202 960 202 960 315 1024 c 128,-1,32
 428 1088 428 1088 576 1088 c 0,33,34
 961 1088 961 1088 961 633 c 1,35,-1
 388 633 l 1,36,37
 384 593 384 593 384 536 c 0,38,39
 384 401 384 401 422 312 c 128,-1,40
 460 223 460 223 521 181.5 c 128,-1,41
 582 140 582 140 651 140 c 0,42,0
 820 140 820 140 920 304 c 1,1,-1
442.5 953 m 128,-1,44
 394 862 394 862 382 672 c 1,45,-1
 703 672 l 1,46,47
 706 832 706 832 670.5 938 c 128,-1,48
 635 1044 635 1044 564 1044 c 0,49,43
 491 1044 491 1044 442.5 953 c 128,-1,44
EndSplineSet
Substitution2: "'smcp' Lowercase to Small Capitals lookup 24 subtable" eogonek.smcp
Substitution2: "'aalt' Access All Alternates lookup 0 subtable" eogonek.smcp
EndChar
StartChar: gcircumflex
Encoding: 285 285 170
Width: 1102
GlyphClass: 2
Flags: W
LayerCount: 2
Back
Fore
SplineSet
374 1319.5 m 128,-1,1
 285 1277 285 1277 191 1249 c 1,2,-1
 175 1278 l 1,3,4
 288 1345 288 1345 385.5 1453 c 128,-1,5
 483 1561 483 1561 541 1679 c 1,6,-1
 578 1679 l 1,7,8
 616 1576 616 1576 676.5 1480.5 c 128,-1,9
 737 1385 737 1385 813 1316 c 1,10,-1
 792 1287 l 1,11,12
 624 1338 624 1338 519 1405 c 1,13,0
 463 1362 463 1362 374 1319.5 c 128,-1,1
1000 210.5 m 128,-1,15
 1076 159 1076 159 1076 40 c 0,16,17
 1076 -65 1076 -65 1009.5 -163 c 128,-1,18
 943 -261 943 -261 810 -323 c 128,-1,19
 677 -385 677 -385 486 -385 c 0,20,21
 339 -385 339 -385 240 -361.5 c 128,-1,22
 141 -338 141 -338 93.5 -298.5 c 128,-1,23
 46 -259 46 -259 46 -211 c 0,24,25
 46 -171 46 -171 68.5 -145.5 c 128,-1,26
 91 -120 91 -120 124 -105.5 c 128,-1,27
 157 -91 157 -91 216 -72 c 0,28,29
 314 -42 314 -42 357 -12 c 1,30,-1
 308 -12 l 2,31,32
 259 -12 259 -12 207 3.5 c 128,-1,33
 155 19 155 19 116.5 61.5 c 128,-1,34
 78 104 78 104 78 179 c 0,35,36
 78 238 78 238 102 285 c 128,-1,37
 126 332 126 332 180 375 c 128,-1,38
 234 418 234 418 326 465 c 1,39,40
 217 499 217 499 156 574 c 128,-1,41
 95 649 95 649 95 762 c 0,42,43
 95 925 95 925 215.5 1006.5 c 128,-1,44
 336 1088 336 1088 535 1088 c 0,45,46
 667 1088 667 1088 766 1052 c 1,47,48
 769 1080 769 1080 777 1114 c 0,49,50
 787 1195 787 1195 835.5 1248.5 c 128,-1,51
 884 1302 884 1302 963 1302 c 0,52,53
 1022 1302 1022 1302 1061 1271.5 c 128,-1,54
 1100 1241 1100 1241 1100 1189 c 0,55,56
 1100 1141 1100 1141 1062 1108.5 c 128,-1,57
 1024 1076 1024 1076 967 1076 c 0,58,59
 914 1076 914 1076 880 1103 c 128,-1,60
 846 1130 846 1130 835 1172 c 1,61,62
 809 1138 809 1138 802 1078 c 0,63,64
 800 1065 800 1065 798 1039 c 1,65,66
 975 956 975 956 975 762 c 0,67,68
 975 653 975 653 918.5 580 c 128,-1,69
 862 507 862 507 763 471.5 c 128,-1,70
 664 436 664 436 535 436 c 0,71,72
 443 436 443 436 366 454 c 1,73,74
 309 417 309 417 285 391.5 c 128,-1,75
 261 366 261 366 261 330 c 0,76,77
 261 292 261 292 284 277 c 128,-1,78
 307 262 307 262 351 262 c 2,79,-1
 799 262 l 2,80,14
 924 262 924 262 1000 210.5 c 128,-1,15
432.5 985 m 128,-1,82
 398 919 398 919 398 762 c 256,83,84
 398 605 398 605 432.5 539 c 128,-1,85
 467 473 467 473 535 473 c 256,86,87
 603 473 603 473 637.5 539 c 128,-1,88
 672 605 672 605 672 762 c 256,89,90
 672 919 672 919 637.5 985 c 128,-1,91
 603 1051 603 1051 535 1051 c 256,92,81
 467 1051 467 1051 432.5 985 c 128,-1,82
697 -318.5 m 128,-1,94
 770 -287 770 -287 813.5 -228.5 c 128,-1,95
 857 -170 857 -170 857 -94 c 0,96,97
 857 -52 857 -52 830.5 -32 c 128,-1,98
 804 -12 804 -12 738 -12 c 2,99,-1
 397 -12 l 1,100,101
 362 -45 362 -45 343 -91 c 128,-1,102
 324 -137 324 -137 324 -176 c 0,103,104
 324 -259 324 -259 384 -304.5 c 128,-1,105
 444 -350 444 -350 540 -350 c 0,106,93
 624 -350 624 -350 697 -318.5 c 128,-1,94
EndSplineSet
Substitution2: "'smcp' Lowercase to Small Capitals lookup 24 subtable" gcircumflex.smcp
Substitution2: "'aalt' Access All Alternates lookup 0 subtable" gcircumflex.smcp
EndChar
StartChar: gbreve
Encoding: 287 287 169
Width: 1102
GlyphClass: 2
Flags: W
LayerCount: 2
Back
Fore
SplineSet
307.5 1366.5 m 128,-1,1
 211 1461 211 1461 166 1595 c 1,2,-1
 201 1614 l 1,3,4
 332 1466 332 1466 557 1466 c 0,5,6
 781 1466 781 1466 914 1614 c 1,7,-1
 948 1595 l 1,8,9
 903 1460 903 1460 807 1366 c 128,-1,10
 711 1272 711 1272 557 1272 c 0,11,0
 404 1272 404 1272 307.5 1366.5 c 128,-1,1
1000 210.5 m 128,-1,13
 1076 159 1076 159 1076 40 c 0,14,15
 1076 -65 1076 -65 1009.5 -163 c 128,-1,16
 943 -261 943 -261 810 -323 c 128,-1,17
 677 -385 677 -385 486 -385 c 0,18,19
 339 -385 339 -385 240 -361.5 c 128,-1,20
 141 -338 141 -338 93.5 -298.5 c 128,-1,21
 46 -259 46 -259 46 -211 c 0,22,23
 46 -171 46 -171 68.5 -145.5 c 128,-1,24
 91 -120 91 -120 124 -105.5 c 128,-1,25
 157 -91 157 -91 216 -72 c 0,26,27
 314 -42 314 -42 357 -12 c 1,28,-1
 308 -12 l 2,29,30
 259 -12 259 -12 207 3.5 c 128,-1,31
 155 19 155 19 116.5 61.5 c 128,-1,32
 78 104 78 104 78 179 c 0,33,34
 78 238 78 238 102 285 c 128,-1,35
 126 332 126 332 180 375 c 128,-1,36
 234 418 234 418 326 465 c 1,37,38
 217 499 217 499 156 574 c 128,-1,39
 95 649 95 649 95 762 c 0,40,41
 95 925 95 925 215.5 1006.5 c 128,-1,42
 336 1088 336 1088 535 1088 c 0,43,44
 670 1088 670 1088 769 1051 c 1,45,46
 767 1107 767 1107 777 1151 c 0,47,48
 784 1202 784 1202 809 1245 c 128,-1,49
 834 1288 834 1288 874 1313.5 c 128,-1,50
 914 1339 914 1339 963 1339 c 0,51,52
 1022 1339 1022 1339 1061 1305.5 c 128,-1,53
 1100 1272 1100 1272 1100 1213 c 0,54,55
 1100 1160 1100 1160 1062 1124 c 128,-1,56
 1024 1088 1024 1088 967 1088 c 0,57,58
 914 1088 914 1088 880 1119 c 128,-1,59
 846 1150 846 1150 835 1197 c 1,60,61
 809 1168 809 1168 802 1115 c 0,62,63
 799 1096 799 1096 799 1074 c 0,64,65
 799 1063 799 1063 801 1037 c 1,66,67
 975 954 975 954 975 762 c 0,68,69
 975 653 975 653 918.5 580 c 128,-1,70
 862 507 862 507 763 471.5 c 128,-1,71
 664 436 664 436 535 436 c 0,72,73
 443 436 443 436 366 454 c 1,74,75
 309 417 309 417 285 391.5 c 128,-1,76
 261 366 261 366 261 330 c 0,77,78
 261 292 261 292 284 277 c 128,-1,79
 307 262 307 262 351 262 c 2,80,-1
 799 262 l 2,81,12
 924 262 924 262 1000 210.5 c 128,-1,13
432.5 985 m 128,-1,83
 398 919 398 919 398 762 c 256,84,85
 398 605 398 605 432.5 539 c 128,-1,86
 467 473 467 473 535 473 c 256,87,88
 603 473 603 473 637.5 539 c 128,-1,89
 672 605 672 605 672 762 c 256,90,91
 672 919 672 919 637.5 985 c 128,-1,92
 603 1051 603 1051 535 1051 c 256,93,82
 467 1051 467 1051 432.5 985 c 128,-1,83
697 -318.5 m 128,-1,95
 770 -287 770 -287 813.5 -228.5 c 128,-1,96
 857 -170 857 -170 857 -94 c 0,97,98
 857 -52 857 -52 830.5 -32 c 128,-1,99
 804 -12 804 -12 738 -12 c 2,100,-1
 397 -12 l 1,101,102
 362 -45 362 -45 343 -91 c 128,-1,103
 324 -137 324 -137 324 -176 c 0,104,105
 324 -259 324 -259 384 -304.5 c 128,-1,106
 444 -350 444 -350 540 -350 c 0,107,94
 624 -350 624 -350 697 -318.5 c 128,-1,95
EndSplineSet
Substitution2: "'smcp' Lowercase to Small Capitals lookup 24 subtable" gbreve.smcp
Substitution2: "'aalt' Access All Alternates lookup 0 subtable" gbreve.smcp
EndChar
StartChar: gdotaccent
Encoding: 289 289 172
Width: 1102
GlyphClass: 2
Flags: W
LayerCount: 2
Back
Fore
SplineSet
411 1313.5 m 128,-1,1
 361 1356 361 1356 361 1430 c 0,2,3
 361 1503 361 1503 411.5 1545.5 c 128,-1,4
 462 1588 462 1588 548 1588 c 0,5,6
 633 1588 633 1588 683.5 1545.5 c 128,-1,7
 734 1503 734 1503 734 1430 c 0,8,9
 734 1356 734 1356 683.5 1313.5 c 128,-1,10
 633 1271 633 1271 548 1271 c 0,11,0
 461 1271 461 1271 411 1313.5 c 128,-1,1
1000 210.5 m 128,-1,13
 1076 159 1076 159 1076 40 c 0,14,15
 1076 -65 1076 -65 1009.5 -163 c 128,-1,16
 943 -261 943 -261 810 -323 c 128,-1,17
 677 -385 677 -385 486 -385 c 0,18,19
 339 -385 339 -385 240 -361.5 c 128,-1,20
 141 -338 141 -338 93.5 -298.5 c 128,-1,21
 46 -259 46 -259 46 -211 c 0,22,23
 46 -171 46 -171 68.5 -145.5 c 128,-1,24
 91 -120 91 -120 124 -105.5 c 128,-1,25
 157 -91 157 -91 216 -72 c 0,26,27
 314 -42 314 -42 357 -12 c 1,28,-1
 308 -12 l 2,29,30
 259 -12 259 -12 207 3.5 c 128,-1,31
 155 19 155 19 116.5 61.5 c 128,-1,32
 78 104 78 104 78 179 c 0,33,34
 78 238 78 238 102 285 c 128,-1,35
 126 332 126 332 180 375 c 128,-1,36
 234 418 234 418 326 465 c 1,37,38
 217 499 217 499 156 574 c 128,-1,39
 95 649 95 649 95 762 c 0,40,41
 95 925 95 925 215.5 1006.5 c 128,-1,42
 336 1088 336 1088 535 1088 c 0,43,44
 639 1088 639 1088 726 1065 c 1,45,46
 727 1117 727 1117 740 1167 c 1,47,48
 750 1252 750 1252 802 1309.5 c 128,-1,49
 854 1367 854 1367 938 1367 c 0,50,51
 1002 1367 1002 1367 1044.5 1329.5 c 128,-1,52
 1087 1292 1087 1292 1087 1229 c 0,53,54
 1087 1170 1087 1170 1046 1131 c 128,-1,55
 1005 1092 1005 1092 942 1092 c 0,56,57
 883 1092 883 1092 842 1122 c 128,-1,58
 801 1152 801 1152 791 1213 c 1,59,60
 772 1184 772 1184 765 1131 c 0,61,62
 761 1100 761 1100 761 1054 c 1,63,64
 863 1017 863 1017 919 944.5 c 128,-1,65
 975 872 975 872 975 762 c 0,66,67
 975 653 975 653 918.5 580 c 128,-1,68
 862 507 862 507 763 471.5 c 128,-1,69
 664 436 664 436 535 436 c 0,70,71
 443 436 443 436 366 454 c 1,72,73
 309 417 309 417 285 391.5 c 128,-1,74
 261 366 261 366 261 330 c 0,75,76
 261 292 261 292 284 277 c 128,-1,77
 307 262 307 262 351 262 c 2,78,-1
 799 262 l 2,79,12
 924 262 924 262 1000 210.5 c 128,-1,13
432.5 985 m 128,-1,81
 398 919 398 919 398 762 c 256,82,83
 398 605 398 605 432.5 539 c 128,-1,84
 467 473 467 473 535 473 c 256,85,86
 603 473 603 473 637.5 539 c 128,-1,87
 672 605 672 605 672 762 c 256,88,89
 672 919 672 919 637.5 985 c 128,-1,90
 603 1051 603 1051 535 1051 c 256,91,80
 467 1051 467 1051 432.5 985 c 128,-1,81
697 -318.5 m 128,-1,93
 770 -287 770 -287 813.5 -228.5 c 128,-1,94
 857 -170 857 -170 857 -94 c 0,95,96
 857 -52 857 -52 830.5 -32 c 128,-1,97
 804 -12 804 -12 738 -12 c 2,98,-1
 397 -12 l 1,99,100
 362 -45 362 -45 343 -91 c 128,-1,101
 324 -137 324 -137 324 -176 c 0,102,103
 324 -259 324 -259 384 -304.5 c 128,-1,104
 444 -350 444 -350 540 -350 c 0,105,92
 624 -350 624 -350 697 -318.5 c 128,-1,93
EndSplineSet
Substitution2: "'smcp' Lowercase to Small Capitals lookup 24 subtable" gdotaccent.smcp
Substitution2: "'aalt' Access All Alternates lookup 0 subtable" gdotaccent.smcp
EndChar
